<svg xmlns="http://www.w3.org/2000/svg" xmlns:xlink="http://www.w3.org/1999/xlink" viewBox="0 0 458.94 321.1"><defs><style>.cls-1{fill:none;}.cls-2{isolation:isolate;}.cls-3{fill:#ffe0e0;}.cls-4{fill:#593b50;}.cls-5{fill:#f33;}.cls-6{fill:#594a50;}.cls-7{fill:url(#Áåçûìÿííûé_ãğàäèåíò_103);}.cls-8{fill:#3c1e45;}.cls-9{fill:#34122f;}.cls-10{fill:#451a3e;}.cls-11{fill:url(#Áåçûìÿííûé_ãğàäèåíò_103-2);}.cls-12{fill:url(#Áåçûìÿííûé_ãğàäèåíò_104);}.cls-13{fill:#735d79;}.cls-14,.cls-15,.cls-17{fill:#fff;}.cls-14,.cls-38{opacity:0.5;}.cls-14,.cls-17,.cls-21{mix-blend-mode:soft-light;}.cls-16{fill:#ff9baa;}.cls-18{fill:#ffc2c9;}.cls-19{fill:#a796a7;}.cls-20{fill:#855f85;}.cls-21{fill:#c5c7e0;}.cls-22{fill:#a40b33;}.cls-23{fill:#674b6f;}.cls-24{fill:#3e2645;}.cls-25{fill:#3d2145;}.cls-26{fill:#930d45;}.cls-27{fill:url(#Áåçûìÿííûé_ãğàäèåíò_72);}.cls-28{fill:#ff596d;}.cls-29{clip-path:url(#clip-path);}.cls-30{fill:#bb2853;}.cls-30,.cls-31,.cls-32,.cls-33,.cls-34,.cls-35,.cls-36,.cls-37,.cls-38,.cls-39,.cls-40,.cls-41,.cls-42,.cls-43{fill-rule:evenodd;}.cls-31{fill:#830443;}.cls-32{fill:url(#Áåçûìÿííûé_ãğàäèåíò_40);}.cls-33{fill:url(#Áåçûìÿííûé_ãğàäèåíò_147);}.cls-34,.cls-37{fill:#a4006d;}.cls-34{opacity:0.6;}.cls-34,.cls-35,.cls-36,.cls-37,.cls-38,.cls-42,.cls-43{mix-blend-mode:multiply;}.cls-35,.cls-36{opacity:0.8;}.cls-35{fill:url(#Áåçûìÿííûé_ãğàäèåíò_14);}.cls-36{fill:url(#Áåçûìÿííûé_ãğàäèåíò_14-2);}.cls-37{opacity:0.47;}.cls-38{fill:url(#Áåçûìÿííûé_ãğàäèåíò_14-3);}.cls-39{fill:#f46352;}.cls-40{fill:url(#Áåçûìÿííûé_ãğàäèåíò_20);}.cls-41{fill:#c5434d;}.cls-42{opacity:0.58;fill:url(#Áåçûìÿííûé_ãğàäèåíò_12);}.cls-43{fill:#96027b;opacity:0.4;}</style><linearGradient id="Áåçûìÿííûé_ãğàäèåíò_103" x1="196.61" y1="277.19" x2="196.61" y2="78.38" gradientUnits="userSpaceOnUse"><stop offset="0" stop-color="#654a6c"/><stop offset="1" stop-color="#593854"/></linearGradient><linearGradient id="Áåçûìÿííûé_ãğàäèåíò_103-2" x1="65.4" y1="179.02" x2="325.74" y2="179.02" xlink:href="#Áåçûìÿííûé_ãğàäèåíò_103"/><linearGradient id="Áåçûìÿííûé_ãğàäèåíò_104" x1="191.15" y1="302.78" x2="191.15" y2="276.6" gradientUnits="userSpaceOnUse"><stop offset="0" stop-color="#654b6c"/><stop offset="1" stop-color="#593954"/></linearGradient><linearGradient id="Áåçûìÿííûé_ãğàäèåíò_72" x1="151.81" y1="284.9" x2="171.43" y2="284.9" gradientUnits="userSpaceOnUse"><stop offset="0" stop-color="#dd0e24"/><stop offset="1" stop-color="#d33"/></linearGradient><clipPath id="clip-path"><polygon class="cls-1" points="66.31 102.12 187.74 100.35 250.16 26.01 397.36 40.48 586.44 341.71 325.74 262.22 85.7 265.72 66.31 102.12"/></clipPath><linearGradient id="Áåçûìÿííûé_ãğàäèåíò_40" x1="376.74" y1="357.32" x2="376.74" y2="285.03" gradientTransform="translate(-118.84 -187.44) rotate(-6.68)" gradientUnits="userSpaceOnUse"><stop offset="0" stop-color="#ffa774"/><stop offset="1" stop-color="#fe875e"/></linearGradient><linearGradient id="Áåçûìÿííûé_ãğàäèåíò_147" x1="212.06" y1="550.84" x2="212.06" y2="175.82" gradientTransform="translate(-118.84 -187.44) rotate(-6.68)" gradientUnits="userSpaceOnUse"><stop offset="0" stop-color="#bd0e59"/><stop offset="0" stop-color="#bd0e59"/><stop offset="0.26" stop-color="#da1147"/><stop offset="0.51" stop-color="#ee133b"/><stop offset="0.76" stop-color="#fb1534"/><stop offset="1" stop-color="#ff1531"/></linearGradient><linearGradient id="Áåçûìÿííûé_ãğàäèåíò_14" x1="219.44" y1="415.2" x2="219.44" y2="357.34" gradientTransform="translate(-118.84 -187.44) rotate(-6.68)" gradientUnits="userSpaceOnUse"><stop offset="0" stop-color="#fff"/><stop offset="1" stop-color="#bf4042"/></linearGradient><linearGradient id="Áåçûìÿííûé_ãğàäèåíò_14-2" x1="266.85" y1="456.73" x2="266.85" y2="376.72" xlink:href="#Áåçûìÿííûé_ãğàäèåíò_14"/><linearGradient id="Áåçûìÿííûé_ãğàäèåíò_14-3" x1="424.63" y1="343.98" x2="424.63" y2="291.26" xlink:href="#Áåçûìÿííûé_ãğàäèåíò_14"/><linearGradient id="Áåçûìÿííûé_ãğàäèåíò_20" x1="164.25" y1="352.38" x2="164.25" y2="206.45" gradientTransform="matrix(1.3, -0.16, 0.12, 0.99, 119.25, -33.93)" gradientUnits="userSpaceOnUse"><stop offset="0.03" stop-color="#ffb790"/><stop offset="1" stop-color="#ffcca7"/></linearGradient><linearGradient id="Áåçûìÿííûé_ãğàäèåíò_12" x1="98.63" y1="294.96" x2="98.63" y2="210.18" gradientTransform="matrix(1.3, -0.16, 0.12, 0.99, 119.25, -33.93)" gradientUnits="userSpaceOnUse"><stop offset="0" stop-color="#ffdec7"/><stop offset="0.99" stop-color="#c837be"/></linearGradient></defs><title>main2</title><g class="cls-2"><g id="katman_1" data-name="katman 1"><circle class="cls-3" cx="256.24" cy="159.48" r="159.31" transform="translate(-37.72 227.9) rotate(-45)"/><rect class="cls-4" x="134.15" y="6.93" width="7.12" height="3.31"/><rect class="cls-4" x="9.17" y="264.59" width="10.35" height="3.31" transform="translate(-240.45 187.68) rotate(-69.78)"/><rect class="cls-4" x="225.78" y="52.42" width="10.35" height="1.1" transform="translate(101.41 251.38) rotate(-69.78)"/><rect class="cls-4" x="434.78" y="52.2" width="16.7" height="3.31" transform="translate(128.8 370.82) rotate(-52.17)"/><rect class="cls-5" x="6.12" y="172.78" width="1.1" height="15.17" transform="translate(-148.4 88.01) rotate(-57.1)"/><rect class="cls-5" x="-1.35" y="179.76" width="15.13" height="1.1" transform="translate(-146.38 84.05) rotate(-55.78)"/><path class="cls-5" d="M399.66,24.42l-6-9.32h13Zm-4-8.21,4.06,6.27,4.67-6.27Z"/><path class="cls-5" d="M225.12,8.58a5.81,5.81,0,1,1-5.8-5.8A5.81,5.81,0,0,1,225.12,8.58Z"/><path class="cls-5" d="M195,53a1.49,1.49,0,1,1-1.49-1.49A1.48,1.48,0,0,1,195,53Z"/><path class="cls-5" d="M458.94,198.8a2.69,2.69,0,1,1-2.69-2.69A2.69,2.69,0,0,1,458.94,198.8Z"/><path class="cls-5" d="M92.66,36.75A2.69,2.69,0,1,1,90,34.06,2.68,2.68,0,0,1,92.66,36.75Z"/><path class="cls-6" d="M246.75,19.55a1.34,1.34,0,1,1-1.34-1.34A1.34,1.34,0,0,1,246.75,19.55Z"/><path class="cls-6" d="M326,7.18a5.65,5.65,0,1,1-5.65-5.65A5.66,5.66,0,0,1,326,7.18Z"/><polygon class="cls-7" points="75.18 277.19 54.63 82.51 318.14 78.38 338.58 273.7 75.18 277.19"/><polygon class="cls-8" points="54.63 82.51 46.97 90.51 68.33 277.86 75.18 277.19 54.63 82.51"/><polygon class="cls-9" points="338.58 273.7 329.9 275.74 68.33 277.86 75.18 277.19 338.58 273.7"/><polygon class="cls-10" points="85.7 265.72 65.19 92.72 309.77 90.89 328 263.75 85.7 265.72"/><polygon class="cls-11" points="65.4 94.49 308.18 92.71 325.74 262.22 85.66 265.34 65.4 94.49"/><polygon class="cls-9" points="167.14 276.97 156.99 302.78 167.33 302.78 177.39 276.89 167.14 276.97"/><polygon class="cls-12" points="177.39 276.89 214.96 276.6 206.74 302.78 167.33 302.78 177.39 276.89"/><polygon class="cls-9" points="175.57 282.17 214.32 278.89 214.96 276.6 177.39 276.89 175.57 282.17"/><polygon class="cls-13" points="250.74 310.51 250.74 302.78 172.25 302.78 172.25 309.58 250.74 310.51"/><rect class="cls-9" x="156.35" y="302.78" width="15.9" height="6.8"/><polygon class="cls-14" points="69.02 82.29 76.67 92.64 137.55 92.18 134.03 81.27 69.02 82.29"/><polygon class="cls-15" points="66.31 102.12 308.81 98.88 325.74 262.22 85.7 265.72 66.31 102.12"/><polygon class="cls-16" points="66.31 102.12 67.77 114.42 310.07 111.05 308.81 98.88 66.31 102.12"/><polygon class="cls-5" points="93.98 211.9 93.03 201 134.79 201 134.79 211.9 93.98 211.9"/><polygon class="cls-3" points="206.37 123.72 82.71 124.94 82.26 121.07 205.92 119.85 206.37 123.72"/><polygon class="cls-3" points="303.37 129.35 117.34 131.19 116.89 127.31 302.91 125.48 303.37 129.35"/><polygon class="cls-3" points="304.14 135.93 84.26 138.1 83.8 134.23 303.69 132.06 304.14 135.93"/><polygon class="cls-3" points="304.91 142.51 85.03 144.68 84.58 140.81 304.46 138.64 304.91 142.51"/><polygon class="cls-3" points="305.68 149.09 85.8 151.26 85.35 147.39 305.23 145.22 305.68 149.09"/><polygon class="cls-3" points="306.45 155.67 86.57 157.84 86.12 153.97 306 151.8 306.45 155.67"/><polygon class="cls-3" points="307.23 162.25 87.34 164.43 86.89 160.55 306.77 158.38 307.23 162.25"/><polygon class="cls-3" points="308 168.83 88.11 171.01 87.66 167.13 307.54 164.96 308 168.83"/><polygon class="cls-3" points="308.77 175.41 88.89 177.59 88.43 173.71 308.31 171.54 308.77 175.41"/><polygon class="cls-3" points="309.54 181.99 89.66 184.17 89.2 180.29 309.09 178.12 309.54 181.99"/><polygon class="cls-3" points="310.31 188.57 90.43 190.75 89.98 186.88 309.86 184.7 310.31 188.57"/><polygon class="cls-3" points="236.02 195.9 91.2 197.33 90.75 193.46 235.57 192.02 236.02 195.9"/><polygon class="cls-5" points="82.26 121.07 83.19 129.42 97.56 129.42 96.93 120.92 82.26 121.07"/><polygon class="cls-3" points="98.05 259.59 96.93 248.11 319.15 246.16 319.15 256.98 98.05 259.59"/><polygon class="cls-17" points="79.32 110.13 78.68 106.09 163.27 104.52 164 108.78 79.32 110.13"/><polygon class="cls-18" points="149.73 243.94 146.53 201 188.91 201 190.58 243.94 149.73 243.94"/><polygon class="cls-18" points="194.91 243.94 191.72 201 234.09 201 235.76 243.94 194.91 243.94"/><polygon class="cls-18" points="257.55 243.94 254.35 201 296.73 201 298.39 243.94 257.55 243.94"/><polygon class="cls-19" points="63.66 308.75 63.66 318.79 455.55 322.56 455.55 307.49 63.66 308.75"/><polygon class="cls-20" points="63.66 308.75 172.6 308.75 172.6 319.69 63.66 318.79 63.66 308.75"/><polygon class="cls-21" points="393.24 321.96 396.62 307.49 425.04 307.49 421.55 321.96 393.24 321.96"/><polygon class="cls-21" points="427.64 322.29 432.27 307.49 435.69 307.51 430.66 322.29 427.64 322.29"/><path class="cls-5" d="M144.1,268.14h4.44s46.65,3.55,68.72,21.74L216,308.17h-1.46Z"/><path class="cls-22" d="M84.54,308.64,79.23,271.1s41.58,4,72.24,18.06l-1.19,19.28Z"/><path class="cls-23" d="M79.23,271.1l64.87-3s45.54,3.08,70.42,21.74l-63.05-.72S115.29,275.63,79.23,271.1Z"/><polygon class="cls-24" points="214.52 289.88 214.52 308.18 150.28 308.44 151.47 289.16 214.52 289.88"/><path class="cls-5" d="M79.23,271.1l7.11-.32s39.8,7.15,65.13,18.38l-1.19,19.28h-1.23l.43-19.42S120.47,276.5,79.23,271.1Z"/><path class="cls-15" d="M91.74,271.1l29.76,5.4,55.88-1.58a159.1,159.1,0,0,0-32.71-6.22Z"/><path class="cls-25" d="M149.34,281l-9.75,0a11.4,11.4,0,0,1-3-.57l-5.66-2c-.89-.31-1-.55-.26-.55l9.75,0a11.39,11.39,0,0,1,3,.57l5.66,2C150,280.76,150.09,281,149.34,281Z"/><path class="cls-25" d="M167.56,281.14l-9.75,0a11,11,0,0,1-3-.57l-5.66-2c-.89-.31-1-.56-.26-.56l9.75,0a11,11,0,0,1,3,.56l5.66,2C168.2,280.9,168.31,281.15,167.56,281.14Z"/><path class="cls-25" d="M184.83,281.26l-9.75,0a11,11,0,0,1-3-.57l-5.66-2c-.89-.31-1-.56-.26-.56l9.75,0a11,11,0,0,1,3,.56l5.66,2C185.47,281,185.58,281.27,184.83,281.26Z"/><path class="cls-25" d="M160.14,284.75l-9.75,0a10.92,10.92,0,0,1-3-.57l-5.66-2c-.89-.31-1-.56-.26-.56l9.75,0a10.89,10.89,0,0,1,3,.56l5.66,2C160.77,284.51,160.89,284.76,160.14,284.75Z"/><path class="cls-25" d="M178.36,284.9l-9.75,0a10.89,10.89,0,0,1-3-.56l-5.66-2c-.89-.31-1-.56-.26-.56l9.75,0a10.89,10.89,0,0,1,3,.56l5.66,2C179,284.65,179.11,284.9,178.36,284.9Z"/><path class="cls-25" d="M195.63,285l-9.75,0a10.89,10.89,0,0,1-3-.56l-5.66-2c-.89-.31-1-.56-.26-.55l9.75,0a11.28,11.28,0,0,1,3,.56l5.66,2C196.26,284.77,196.38,285,195.63,285Z"/><path class="cls-26" d="M170.94,288.51l-9.75,0a11,11,0,0,1-3-.56l-5.66-2c-.89-.31-1-.56-.25-.55l9.74,0a11,11,0,0,1,3,.57l5.66,2C171.57,288.26,171.68,288.51,170.94,288.51Z"/><path class="cls-25" d="M189.16,288.65l-9.75,0a11.39,11.39,0,0,1-3-.57l-5.66-2c-.89-.31-1-.56-.25-.55l9.75,0a11.4,11.4,0,0,1,3,.57l5.66,2C189.79,288.4,189.9,288.65,189.16,288.65Z"/><path class="cls-25" d="M206.43,288.77l-9.75,0a11.39,11.39,0,0,1-3-.57l-5.66-2c-.89-.31-1-.55-.25-.55l9.75,0a11.4,11.4,0,0,1,3,.57l5.66,2C207.06,288.53,207.17,288.77,206.43,288.77Z"/><path class="cls-25" d="M149.34,280.91l-9.75,0a11,11,0,0,1-3-.56l-5.66-2c-.89-.31-1-.56-.26-.56l9.75,0a11.35,11.35,0,0,1,3,.56l5.66,2C150,280.66,150.09,280.91,149.34,280.91Z"/><path class="cls-25" d="M167.56,281.05l-9.75,0a11,11,0,0,1-3-.56l-5.66-2c-.89-.31-1-.56-.26-.55l9.75,0a11,11,0,0,1,3,.57l5.66,2C168.2,280.8,168.31,281.05,167.56,281.05Z"/><path class="cls-25" d="M184.83,281.17l-9.75,0a11.4,11.4,0,0,1-3-.57l-5.66-2c-.89-.31-1-.56-.26-.55l9.75,0a11.39,11.39,0,0,1,3,.57l5.66,2C185.47,280.92,185.58,281.17,184.83,281.17Z"/><path class="cls-25" d="M160.14,284.66l-9.75,0a11.32,11.32,0,0,1-3-.57l-5.66-2c-.89-.31-1-.55-.26-.55l9.75,0a11.32,11.32,0,0,1,3,.57l5.66,2C160.77,284.42,160.89,284.66,160.14,284.66Z"/><path class="cls-25" d="M178.36,284.8l-9.75,0a11.32,11.32,0,0,1-3-.57l-5.66-2c-.89-.31-1-.56-.26-.56l9.75,0a10.89,10.89,0,0,1,3,.56l5.66,2C179,284.56,179.11,284.81,178.36,284.8Z"/><path class="cls-25" d="M195.63,284.92l-9.75,0a10.92,10.92,0,0,1-3-.57l-5.66-2c-.89-.31-1-.56-.26-.56l9.75,0a10.89,10.89,0,0,1,3,.56l5.66,2C196.26,284.68,196.38,284.93,195.63,284.92Z"/><path class="cls-26" d="M170.94,288.41l-9.75,0a11,11,0,0,1-3-.57l-5.66-2c-.89-.31-1-.56-.25-.56l9.74,0a11,11,0,0,1,3,.56l5.66,2C171.57,288.17,171.68,288.42,170.94,288.41Z"/><path class="cls-25" d="M189.16,288.56l-9.75,0a11,11,0,0,1-3-.56l-5.66-2c-.89-.31-1-.56-.25-.56l9.75,0a11,11,0,0,1,3,.56l5.66,2C189.79,288.31,189.9,288.56,189.16,288.56Z"/><path class="cls-25" d="M206.43,288.68l-9.75,0a11,11,0,0,1-3-.56l-5.66-2c-.89-.31-1-.56-.25-.56l9.75,0a11.36,11.36,0,0,1,3,.56l5.66,2C207.06,288.43,207.17,288.68,206.43,288.68Z"/><path class="cls-25" d="M149.34,280.81l-9.75,0a11,11,0,0,1-3-.57l-5.66-2c-.89-.31-1-.56-.26-.56l9.75,0a11,11,0,0,1,3,.56l5.66,2C150,280.57,150.09,280.82,149.34,280.81Z"/><path class="cls-25" d="M167.56,281l-9.75,0a11.36,11.36,0,0,1-3-.56l-5.66-2c-.89-.31-1-.56-.26-.56l9.75,0a11,11,0,0,1,3,.56l5.66,2C168.2,280.71,168.31,281,167.56,281Z"/><path class="cls-25" d="M184.83,281.08l-9.75,0a11,11,0,0,1-3-.56l-5.66-2c-.89-.31-1-.56-.26-.56l9.75,0a11,11,0,0,1,3,.56l5.66,2C185.47,280.83,185.58,281.08,184.83,281.08Z"/><path class="cls-25" d="M160.14,284.57l-9.75,0a10.89,10.89,0,0,1-3-.56l-5.66-2c-.89-.31-1-.56-.26-.56l9.75,0a10.89,10.89,0,0,1,3,.56l5.66,2C160.77,284.32,160.89,284.57,160.14,284.57Z"/><path class="cls-25" d="M178.36,284.71l-9.75,0a10.89,10.89,0,0,1-3-.56l-5.66-2c-.89-.31-1-.56-.26-.55l9.75,0a10.92,10.92,0,0,1,3,.57l5.66,2C179,284.46,179.11,284.71,178.36,284.71Z"/><path class="cls-25" d="M195.63,284.83l-9.75,0a10.89,10.89,0,0,1-3-.56l-5.66-2c-.89-.31-1-.56-.26-.55l9.75,0a10.92,10.92,0,0,1,3,.57l5.66,2C196.26,284.58,196.38,284.83,195.63,284.83Z"/><path class="cls-26" d="M170.94,288.32l-9.75,0a11,11,0,0,1-3-.56l-5.66-2c-.89-.31-1-.56-.25-.55l9.74,0a11.39,11.39,0,0,1,3,.57l5.66,2C171.57,288.07,171.68,288.32,170.94,288.32Z"/><path class="cls-25" d="M189.16,288.46l-9.75,0a11.39,11.39,0,0,1-3-.57l-5.66-2c-.89-.3-1-.55-.25-.55l9.75,0a11.4,11.4,0,0,1,3,.57l5.66,2C189.79,288.22,189.9,288.46,189.16,288.46Z"/><path class="cls-25" d="M206.43,288.58l-9.75,0a11.39,11.39,0,0,1-3-.57l-5.66-2c-.89-.31-1-.56-.25-.56l9.75,0a11,11,0,0,1,3,.56l5.66,2C207.06,288.34,207.17,288.59,206.43,288.58Z"/><path class="cls-25" d="M149.34,280.72l-9.75,0a11,11,0,0,1-3-.56l-5.66-2c-.89-.31-1-.56-.26-.55l9.75,0a11,11,0,0,1,3,.57l5.66,2C150,280.47,150.09,280.72,149.34,280.72Z"/><path class="cls-25" d="M167.56,280.86l-9.75,0a11.4,11.4,0,0,1-3-.57l-5.66-2c-.89-.31-1-.55-.26-.55l9.75,0a11.39,11.39,0,0,1,3,.57l5.66,2C168.2,280.62,168.31,280.86,167.56,280.86Z"/><path class="cls-25" d="M184.83,281l-9.75,0a11.4,11.4,0,0,1-3-.57l-5.66-2c-.89-.3-1-.55-.26-.55l9.75,0a11.39,11.39,0,0,1,3,.57l5.66,2C185.47,280.74,185.58,281,184.83,281Z"/><path class="cls-25" d="M160.14,284.47l-9.75,0a11.32,11.32,0,0,1-3-.57l-5.66-2c-.89-.31-1-.56-.26-.56l9.75,0a10.89,10.89,0,0,1,3,.56l5.66,2C160.77,284.23,160.89,284.48,160.14,284.47Z"/><path class="cls-25" d="M178.36,284.61l-9.75,0a10.92,10.92,0,0,1-3-.57l-5.66-2c-.89-.31-1-.56-.26-.56l9.75,0a10.89,10.89,0,0,1,3,.56l5.66,2C179,284.37,179.11,284.62,178.36,284.61Z"/><path class="cls-25" d="M195.63,284.74l-9.75,0a11.28,11.28,0,0,1-3-.56l-5.66-2c-.89-.31-1-.56-.26-.56l9.75,0a10.89,10.89,0,0,1,3,.56l5.66,2C196.26,284.49,196.38,284.74,195.63,284.74Z"/><path class="cls-26" d="M170.94,288.23l-9.75,0a11,11,0,0,1-3-.56l-5.66-2c-.89-.31-1-.56-.25-.56l9.74,0a11,11,0,0,1,3,.56l5.66,2C171.57,288,171.68,288.23,170.94,288.23Z"/><path class="cls-25" d="M189.16,288.37l-9.75,0a11,11,0,0,1-3-.56l-5.66-2c-.89-.31-1-.56-.25-.55l9.75,0a11,11,0,0,1,3,.57l5.66,2C189.79,288.12,189.9,288.37,189.16,288.37Z"/><path class="cls-25" d="M206.43,288.49l-9.75,0a11,11,0,0,1-3-.56l-5.66-2c-.89-.31-1-.56-.25-.55l9.75,0a11,11,0,0,1,3,.57l5.66,2C207.06,288.24,207.17,288.49,206.43,288.49Z"/><path class="cls-25" d="M149.34,280.62l-9.75,0a11.36,11.36,0,0,1-3-.56l-5.66-2c-.89-.31-1-.56-.26-.56l9.75,0a11,11,0,0,1,3,.56l5.66,2C150,280.38,150.09,280.63,149.34,280.62Z"/><path class="cls-25" d="M167.56,280.77l-9.75,0a11,11,0,0,1-3-.56l-5.66-2c-.89-.31-1-.56-.26-.56l9.75,0a11.35,11.35,0,0,1,3,.56l5.66,2C168.2,280.52,168.31,280.77,167.56,280.77Z"/><path class="cls-25" d="M184.83,280.89l-9.75,0a11,11,0,0,1-3-.56l-5.66-2c-.89-.31-1-.56-.26-.55l9.75,0a11,11,0,0,1,3,.57l5.66,2C185.47,280.64,185.58,280.89,184.83,280.89Z"/><path class="cls-25" d="M160.14,284.38l-9.75,0a10.89,10.89,0,0,1-3-.56l-5.66-2c-.89-.31-1-.56-.26-.55l9.75,0a10.92,10.92,0,0,1,3,.57l5.66,2C160.77,284.13,160.89,284.38,160.14,284.38Z"/><path class="cls-25" d="M178.36,284.52l-9.75,0a11.32,11.32,0,0,1-3-.57L160,282c-.89-.31-1-.55-.26-.55l9.75,0a11.32,11.32,0,0,1,3,.57l5.66,2C179,284.27,179.11,284.52,178.36,284.52Z"/><path class="cls-25" d="M195.63,284.64l-9.75,0a11.32,11.32,0,0,1-3-.57l-5.66-2c-.89-.31-1-.55-.26-.55l9.75,0a11.32,11.32,0,0,1,3,.57l5.66,2C196.26,284.4,196.38,284.64,195.63,284.64Z"/><path class="cls-26" d="M170.94,288.13l-9.75,0a11.39,11.39,0,0,1-3-.57l-5.66-2c-.89-.3-1-.55-.25-.55l9.74,0a11.39,11.39,0,0,1,3,.57l5.66,2C171.57,287.89,171.68,288.13,170.94,288.13Z"/><path class="cls-25" d="M189.16,288.27l-9.75,0a11,11,0,0,1-3-.57l-5.66-2c-.89-.31-1-.56-.25-.56l9.75,0a11,11,0,0,1,3,.56l5.66,2C189.79,288,189.9,288.28,189.16,288.27Z"/><path class="cls-25" d="M206.43,288.39l-9.75,0a11,11,0,0,1-3-.57l-5.66-2c-.89-.31-1-.56-.25-.56l9.75,0a11,11,0,0,1,3,.56l5.66,2C207.06,288.15,207.17,288.4,206.43,288.39Z"/><path class="cls-25" d="M149.34,280.53l-9.75,0a11.4,11.4,0,0,1-3-.57L131,278c-.89-.31-1-.55-.26-.55l9.75,0a11.39,11.39,0,0,1,3,.57l5.66,2C150,280.29,150.09,280.53,149.34,280.53Z"/><path class="cls-25" d="M167.56,280.67l-9.75,0a11,11,0,0,1-3-.57l-5.66-2c-.89-.31-1-.56-.26-.56l9.75,0a11,11,0,0,1,3,.56l5.66,2C168.2,280.43,168.31,280.68,167.56,280.67Z"/><path class="cls-25" d="M184.83,280.79l-9.75,0a11,11,0,0,1-3-.57l-5.66-2c-.89-.31-1-.56-.26-.56l9.75,0a11,11,0,0,1,3,.56l5.66,2C185.47,280.55,185.58,280.8,184.83,280.79Z"/><path class="cls-25" d="M160.14,284.28l-9.75,0a10.92,10.92,0,0,1-3-.57l-5.66-2c-.89-.31-1-.56-.26-.56l9.75,0a10.89,10.89,0,0,1,3,.56l5.66,2C160.77,284,160.89,284.29,160.14,284.28Z"/><path class="cls-25" d="M178.36,284.43l-9.75,0a10.89,10.89,0,0,1-3-.56l-5.66-2c-.89-.31-1-.56-.26-.56l9.75,0a10.89,10.89,0,0,1,3,.56l5.66,2C179,284.18,179.11,284.43,178.36,284.43Z"/><path class="cls-25" d="M195.63,284.55l-9.75,0a10.89,10.89,0,0,1-3-.56l-5.66-2c-.89-.31-1-.56-.26-.56l9.75,0a11.28,11.28,0,0,1,3,.56l5.66,2C196.26,284.3,196.38,284.55,195.63,284.55Z"/><path class="cls-26" d="M170.94,288l-9.75,0a11,11,0,0,1-3-.56l-5.66-2c-.89-.31-1-.56-.25-.56l9.74,0a11,11,0,0,1,3,.57l5.66,2C171.57,287.79,171.68,288,170.94,288Z"/><path class="cls-25" d="M189.16,288.18l-9.75,0a11,11,0,0,1-3-.56l-5.66-2c-.89-.31-1-.56-.25-.55l9.75,0a11,11,0,0,1,3,.57l5.66,2C189.79,287.93,189.9,288.18,189.16,288.18Z"/><path class="cls-25" d="M206.43,288.3l-9.75,0a11.39,11.39,0,0,1-3-.57l-5.66-2c-.89-.31-1-.55-.25-.55l9.75,0a11.4,11.4,0,0,1,3,.57l5.66,2C207.06,288.05,207.17,288.3,206.43,288.3Z"/><path class="cls-25" d="M149.34,280.44l-9.75,0a11,11,0,0,1-3-.56l-5.66-2c-.89-.31-1-.56-.26-.56l9.75,0a11,11,0,0,1,3,.56l5.66,2C150,280.19,150.09,280.44,149.34,280.44Z"/><path class="cls-25" d="M167.56,280.58l-9.75,0a11,11,0,0,1-3-.56l-5.66-2c-.89-.31-1-.56-.26-.55l9.75,0a11,11,0,0,1,3,.57l5.66,2C168.2,280.33,168.31,280.58,167.56,280.58Z"/><path class="cls-25" d="M184.83,280.7l-9.75,0a11,11,0,0,1-3-.56l-5.66-2c-.89-.31-1-.56-.26-.55l9.75,0a11,11,0,0,1,3,.57l5.66,2C185.47,280.45,185.58,280.7,184.83,280.7Z"/><path class="cls-25" d="M160.14,284.19l-9.75,0a11.32,11.32,0,0,1-3-.57l-5.66-2c-.89-.31-1-.56-.26-.55l9.75,0a11.32,11.32,0,0,1,3,.57l5.66,2C160.77,283.94,160.89,284.19,160.14,284.19Z"/><path class="cls-25" d="M178.36,284.33l-9.75,0a11.32,11.32,0,0,1-3-.57l-5.66-2c-.89-.3-1-.55-.26-.55l9.75,0a11.32,11.32,0,0,1,3,.57l5.66,2C179,284.09,179.11,284.33,178.36,284.33Z"/><path class="cls-25" d="M195.63,284.45l-9.75,0a10.92,10.92,0,0,1-3-.57l-5.66-2c-.89-.31-1-.56-.26-.56l9.75,0a10.89,10.89,0,0,1,3,.56l5.66,2C196.26,284.21,196.38,284.46,195.63,284.45Z"/><path class="cls-26" d="M170.94,287.94l-9.75,0a11,11,0,0,1-3-.57l-5.66-2c-.89-.31-1-.56-.25-.56l9.74,0a11,11,0,0,1,3,.56l5.66,2C171.57,287.7,171.68,288,170.94,287.94Z"/><path class="cls-25" d="M189.16,288.09l-9.75,0a11.35,11.35,0,0,1-3-.56l-5.66-2c-.89-.31-1-.56-.25-.56l9.75,0a11,11,0,0,1,3,.56l5.66,2C189.79,287.84,189.9,288.09,189.16,288.09Z"/><path class="cls-25" d="M206.43,288.21l-9.75,0a11,11,0,0,1-3-.56l-5.66-2c-.89-.31-1-.56-.25-.56l9.75,0a11,11,0,0,1,3,.56l5.66,2C207.06,288,207.17,288.21,206.43,288.21Z"/><path class="cls-25" d="M149.34,280.34l-9.75,0a11.4,11.4,0,0,1-3-.57l-5.66-2c-.89-.31-1-.56-.26-.56l9.75,0a11,11,0,0,1,3,.56l5.66,2C150,280.1,150.09,280.35,149.34,280.34Z"/><path class="cls-25" d="M167.56,280.48l-9.75,0a11,11,0,0,1-3-.57l-5.66-2c-.89-.31-1-.56-.26-.56l9.75,0a11,11,0,0,1,3,.56l5.66,2C168.2,280.24,168.31,280.49,167.56,280.48Z"/><path class="cls-25" d="M184.83,280.61l-9.75,0a11.36,11.36,0,0,1-3-.56l-5.66-2c-.89-.31-1-.56-.26-.56l9.75,0a11,11,0,0,1,3,.56l5.66,2C185.47,280.36,185.58,280.61,184.83,280.61Z"/><path class="cls-25" d="M160.14,284.1l-9.75,0a10.89,10.89,0,0,1-3-.56l-5.66-2c-.89-.31-1-.56-.26-.56l9.75,0a10.89,10.89,0,0,1,3,.56l5.66,2C160.77,283.85,160.89,284.1,160.14,284.1Z"/><path class="cls-25" d="M178.36,284.24l-9.75,0a10.89,10.89,0,0,1-3-.56l-5.66-2c-.89-.31-1-.56-.26-.55l9.75,0a10.92,10.92,0,0,1,3,.57l5.66,2C179,284,179.11,284.24,178.36,284.24Z"/><path class="cls-25" d="M195.63,284.36l-9.75,0a10.89,10.89,0,0,1-3-.56l-5.66-2c-.89-.31-1-.56-.26-.55l9.75,0a10.92,10.92,0,0,1,3,.57l5.66,2C196.26,284.11,196.38,284.36,195.63,284.36Z"/><path class="cls-26" d="M170.94,287.85l-9.75,0a11,11,0,0,1-3-.56l-5.66-2c-.89-.31-1-.56-.25-.55l9.74,0a11,11,0,0,1,3,.57l5.66,2C171.57,287.6,171.68,287.85,170.94,287.85Z"/><path class="cls-25" d="M189.16,288l-9.75,0a11.39,11.39,0,0,1-3-.57l-5.66-2c-.89-.31-1-.55-.25-.55l9.75,0a11.4,11.4,0,0,1,3,.57l5.66,2C189.79,287.75,189.9,288,189.16,288Z"/><path class="cls-25" d="M206.43,288.11l-9.75,0a11.39,11.39,0,0,1-3-.57l-5.66-2c-.89-.3-1-.55-.25-.55l9.75,0a11.4,11.4,0,0,1,3,.57l5.66,2C207.06,287.87,207.17,288.11,206.43,288.11Z"/><path class="cls-25" d="M149.34,280.25l-9.75,0a11,11,0,0,1-3-.56l-5.66-2c-.89-.31-1-.56-.26-.55l9.75,0a11,11,0,0,1,3,.57l5.66,2C150,280,150.09,280.25,149.34,280.25Z"/><path class="cls-25" d="M167.56,280.39l-9.75,0a11.4,11.4,0,0,1-3-.57l-5.66-2c-.89-.31-1-.55-.26-.55l9.75,0a11.39,11.39,0,0,1,3,.57l5.66,2C168.2,280.14,168.31,280.39,167.56,280.39Z"/><path class="cls-25" d="M184.83,280.51l-9.75,0a11.4,11.4,0,0,1-3-.57l-5.66-2c-.89-.31-1-.55-.26-.55l9.75,0a11.39,11.39,0,0,1,3,.57l5.66,2C185.47,280.27,185.58,280.51,184.83,280.51Z"/><path class="cls-25" d="M160.14,284l-9.75,0a11.32,11.32,0,0,1-3-.57l-5.66-2c-.89-.3-1-.55-.26-.55l9.75,0a11.32,11.32,0,0,1,3,.57l5.66,2C160.77,283.76,160.89,284,160.14,284Z"/><path class="cls-25" d="M178.36,284.14l-9.75,0a10.92,10.92,0,0,1-3-.57l-5.66-2c-.89-.31-1-.56-.26-.56l9.75,0a10.89,10.89,0,0,1,3,.56l5.66,2C179,283.9,179.11,284.15,178.36,284.14Z"/><path class="cls-25" d="M195.63,284.26l-9.75,0a10.92,10.92,0,0,1-3-.57l-5.66-2c-.89-.31-1-.56-.26-.56l9.75,0a10.89,10.89,0,0,1,3,.56l5.66,2C196.26,284,196.38,284.27,195.63,284.26Z"/><path class="cls-26" d="M170.94,287.76l-9.75,0a11.35,11.35,0,0,1-3-.56l-5.66-2c-.89-.31-1-.56-.25-.56l9.74,0a11,11,0,0,1,3,.56l5.66,2C171.57,287.51,171.68,287.76,170.94,287.76Z"/><path class="cls-25" d="M189.16,287.9l-9.75,0a11,11,0,0,1-3-.56l-5.66-2c-.89-.31-1-.56-.25-.56l9.75,0a11.36,11.36,0,0,1,3,.56l5.66,2C189.79,287.65,189.9,287.9,189.16,287.9Z"/><path class="cls-25" d="M206.43,288l-9.75,0a11,11,0,0,1-3-.56l-5.66-2c-.89-.31-1-.56-.25-.55l9.75,0a11,11,0,0,1,3,.57l5.66,2C207.06,287.77,207.17,288,206.43,288Z"/><path class="cls-25" d="M149.34,280.15l-9.75,0a11,11,0,0,1-3-.57l-5.66-2c-.89-.31-1-.56-.26-.56l9.75,0a11,11,0,0,1,3,.56l5.66,2C150,279.91,150.09,280.16,149.34,280.15Z"/><path class="cls-25" d="M167.56,280.3l-9.75,0a11,11,0,0,1-3-.56l-5.66-2c-.89-.31-1-.56-.26-.56l9.75,0a11,11,0,0,1,3,.56l5.66,2C168.2,280.05,168.31,280.3,167.56,280.3Z"/><path class="cls-25" d="M184.83,280.42l-9.75,0a11,11,0,0,1-3-.56l-5.66-2c-.89-.31-1-.56-.26-.56l9.75,0a11.35,11.35,0,0,1,3,.56l5.66,2C185.47,280.17,185.58,280.42,184.83,280.42Z"/><path class="cls-25" d="M160.14,283.91l-9.75,0a10.89,10.89,0,0,1-3-.56l-5.66-2c-.89-.31-1-.56-.26-.55l9.75,0a10.92,10.92,0,0,1,3,.57l5.66,2C160.77,283.66,160.89,283.91,160.14,283.91Z"/><path class="cls-25" d="M178.36,284.05l-9.75,0a10.89,10.89,0,0,1-3-.56l-5.66-2c-.89-.31-1-.56-.26-.55l9.75,0a10.92,10.92,0,0,1,3,.57l5.66,2C179,283.8,179.11,284.05,178.36,284.05Z"/><path class="cls-25" d="M195.63,284.17l-9.75,0a11.32,11.32,0,0,1-3-.57l-5.66-2c-.89-.31-1-.55-.26-.55l9.75,0a11.32,11.32,0,0,1,3,.57l5.66,2C196.26,283.92,196.38,284.17,195.63,284.17Z"/><path class="cls-26" d="M170.94,287.66l-9.75,0a11.39,11.39,0,0,1-3-.57l-5.66-2c-.89-.31-1-.55-.25-.55l9.74,0a11.39,11.39,0,0,1,3,.57l5.66,2C171.57,287.42,171.68,287.66,170.94,287.66Z"/><path class="cls-25" d="M189.16,287.8l-9.75,0a11,11,0,0,1-3-.57l-5.66-2c-.89-.31-1-.56-.25-.56l9.75,0a11,11,0,0,1,3,.56l5.66,2C189.79,287.56,189.9,287.81,189.16,287.8Z"/><path class="cls-25" d="M206.43,287.92l-9.75,0a11,11,0,0,1-3-.57l-5.66-2c-.89-.31-1-.56-.25-.56l9.75,0a11,11,0,0,1,3,.56l5.66,2C207.06,287.68,207.17,287.93,206.43,287.92Z"/><path class="cls-25" d="M149.34,280.06l-9.75,0a11.4,11.4,0,0,1-3-.57l-5.66-2c-.89-.31-1-.56-.26-.55l9.75,0a11.39,11.39,0,0,1,3,.57l5.66,2C150,279.81,150.09,280.06,149.34,280.06Z"/><path class="cls-25" d="M167.56,280.2l-9.75,0a11.4,11.4,0,0,1-3-.57l-5.66-2c-.89-.3-1-.55-.26-.55l9.75,0a11.39,11.39,0,0,1,3,.57l5.66,2C168.2,280,168.31,280.2,167.56,280.2Z"/><path class="cls-25" d="M184.83,280.32l-9.75,0a11,11,0,0,1-3-.57l-5.66-2c-.89-.31-1-.56-.26-.56l9.75,0a11,11,0,0,1,3,.56l5.66,2C185.47,280.08,185.58,280.33,184.83,280.32Z"/><path class="cls-25" d="M160.14,283.81l-9.75,0a10.92,10.92,0,0,1-3-.57l-5.66-2c-.89-.31-1-.56-.26-.56l9.75,0a10.89,10.89,0,0,1,3,.56l5.66,2C160.77,283.57,160.89,283.82,160.14,283.81Z"/><path class="cls-25" d="M178.36,284l-9.75,0a11.28,11.28,0,0,1-3-.56l-5.66-2c-.89-.31-1-.56-.26-.56l9.75,0a10.89,10.89,0,0,1,3,.56l5.66,2C179,283.71,179.11,284,178.36,284Z"/><path class="cls-25" d="M195.63,284.08l-9.75,0a10.89,10.89,0,0,1-3-.56l-5.66-2c-.89-.31-1-.56-.26-.56l9.75,0a10.89,10.89,0,0,1,3,.56l5.66,2C196.26,283.83,196.38,284.08,195.63,284.08Z"/><path class="cls-26" d="M170.94,287.57l-9.75,0a11,11,0,0,1-3-.56l-5.66-2c-.89-.31-1-.56-.25-.56l9.74,0a11.35,11.35,0,0,1,3,.56l5.66,2C171.57,287.32,171.68,287.57,170.94,287.57Z"/><path class="cls-25" d="M189.16,287.71l-9.75,0a11,11,0,0,1-3-.56l-5.66-2c-.89-.31-1-.56-.25-.55l9.75,0a11,11,0,0,1,3,.57l5.66,2C189.79,287.46,189.9,287.71,189.16,287.71Z"/><path class="cls-25" d="M206.43,287.83l-9.75,0a11,11,0,0,1-3-.56l-5.66-2c-.89-.31-1-.56-.25-.55l9.75,0a11.4,11.4,0,0,1,3,.57l5.66,2C207.06,287.58,207.17,287.83,206.43,287.83Z"/><path class="cls-25" d="M149.34,280l-9.75,0a11,11,0,0,1-3-.56l-5.66-2c-.89-.31-1-.56-.26-.56l9.75,0a11,11,0,0,1,3,.56l5.66,2C150,279.72,150.09,280,149.34,280Z"/><path class="cls-25" d="M167.56,280.11l-9.75,0a11,11,0,0,1-3-.56l-5.66-2c-.89-.31-1-.56-.26-.55l9.75,0a11,11,0,0,1,3,.57l5.66,2C168.2,279.86,168.31,280.11,167.56,280.11Z"/><path class="cls-25" d="M184.83,280.23l-9.75,0a11,11,0,0,1-3-.56l-5.66-2c-.89-.31-1-.56-.26-.55l9.75,0a11,11,0,0,1,3,.57l5.66,2C185.47,280,185.58,280.23,184.83,280.23Z"/><path class="cls-25" d="M160.14,283.72l-9.75,0a10.89,10.89,0,0,1-3-.56l-5.66-2c-.89-.31-1-.56-.26-.55l9.75,0a10.92,10.92,0,0,1,3,.57l5.66,2C160.77,283.47,160.89,283.72,160.14,283.72Z"/><path class="cls-25" d="M178.36,283.86l-9.75,0a11.32,11.32,0,0,1-3-.57l-5.66-2c-.89-.31-1-.55-.26-.55l9.75,0a11.32,11.32,0,0,1,3,.57l5.66,2C179,283.62,179.11,283.86,178.36,283.86Z"/><path class="cls-25" d="M195.63,284l-9.75,0a11.32,11.32,0,0,1-3-.57l-5.66-2c-.89-.3-1-.55-.26-.55l9.75,0a11.32,11.32,0,0,1,3,.57l5.66,2C196.26,283.74,196.38,284,195.63,284Z"/><path class="cls-26" d="M170.94,287.47l-9.75,0a11,11,0,0,1-3-.57l-5.66-2c-.89-.31-1-.56-.25-.56l9.74,0a11,11,0,0,1,3,.56l5.66,2C171.57,287.23,171.68,287.48,170.94,287.47Z"/><path class="cls-25" d="M189.16,287.61l-9.75,0a11,11,0,0,1-3-.57l-5.66-2c-.89-.31-1-.56-.25-.56l9.75,0a11,11,0,0,1,3,.56l5.66,2C189.79,287.37,189.9,287.62,189.16,287.61Z"/><path class="cls-25" d="M206.43,287.74l-9.75,0a11.35,11.35,0,0,1-3-.56l-5.66-2c-.89-.31-1-.56-.25-.56l9.75,0a11,11,0,0,1,3,.56l5.66,2C207.06,287.49,207.17,287.74,206.43,287.74Z"/><path class="cls-25" d="M149.34,279.87l-9.75,0a11.4,11.4,0,0,1-3-.57l-5.66-2c-.89-.3-1-.55-.26-.55l9.75,0a11.39,11.39,0,0,1,3,.57l5.66,2C150,279.63,150.09,279.87,149.34,279.87Z"/><path class="cls-25" d="M167.56,280l-9.75,0a11,11,0,0,1-3-.57l-5.66-2c-.89-.31-1-.56-.26-.56l9.75,0a11,11,0,0,1,3,.56l5.66,2C168.2,279.77,168.31,280,167.56,280Z"/><path class="cls-25" d="M184.83,280.13l-9.75,0a11,11,0,0,1-3-.57l-5.66-2c-.89-.31-1-.56-.26-.56l9.75,0a11,11,0,0,1,3,.56l5.66,2C185.47,279.89,185.58,280.14,184.83,280.13Z"/><path class="cls-25" d="M160.14,283.63l-9.75,0a11.28,11.28,0,0,1-3-.56l-5.66-2c-.89-.31-1-.56-.26-.56l9.75,0a10.89,10.89,0,0,1,3,.56l5.66,2C160.77,283.38,160.89,283.63,160.14,283.63Z"/><path class="cls-25" d="M178.36,283.77l-9.75,0a10.89,10.89,0,0,1-3-.56l-5.66-2c-.89-.31-1-.56-.26-.56l9.75,0a11.28,11.28,0,0,1,3,.56l5.66,2C179,283.52,179.11,283.77,178.36,283.77Z"/><path class="cls-25" d="M195.63,283.89l-9.75,0a10.89,10.89,0,0,1-3-.56l-5.66-2c-.89-.31-1-.56-.26-.55l9.75,0a10.92,10.92,0,0,1,3,.57l5.66,2C196.26,283.64,196.38,283.89,195.63,283.89Z"/><path class="cls-26" d="M170.94,287.38l-9.75,0a11,11,0,0,1-3-.56l-5.66-2c-.89-.31-1-.56-.25-.55l9.74,0a11,11,0,0,1,3,.57l5.66,2C171.57,287.13,171.68,287.38,170.94,287.38Z"/><path class="cls-25" d="M189.16,287.52l-9.75,0a11.39,11.39,0,0,1-3-.57l-5.66-2c-.89-.31-1-.55-.25-.55l9.75,0a11.4,11.4,0,0,1,3,.57l5.66,2C189.79,287.27,189.9,287.52,189.16,287.52Z"/><path class="cls-25" d="M206.43,287.64l-9.75,0a11.39,11.39,0,0,1-3-.57l-5.66-2c-.89-.31-1-.55-.25-.55l9.75,0a11.4,11.4,0,0,1,3,.57l5.66,2C207.06,287.4,207.17,287.64,206.43,287.64Z"/><path class="cls-25" d="M149.34,279.78l-9.75,0a11,11,0,0,1-3-.56l-5.66-2c-.89-.31-1-.56-.26-.55l9.75,0a11,11,0,0,1,3,.57l5.66,2C150,279.53,150.09,279.78,149.34,279.78Z"/><path class="cls-25" d="M167.56,279.92l-9.75,0a11,11,0,0,1-3-.56l-5.66-2c-.89-.31-1-.56-.26-.55l9.75,0a11.39,11.39,0,0,1,3,.57l5.66,2C168.2,279.67,168.31,279.92,167.56,279.92Z"/><path class="cls-25" d="M184.83,280l-9.75,0a11.4,11.4,0,0,1-3-.57l-5.66-2c-.89-.31-1-.55-.26-.55l9.75,0a11.39,11.39,0,0,1,3,.57l5.66,2C185.47,279.79,185.58,280,184.83,280Z"/><path class="cls-25" d="M160.14,283.53l-9.75,0a11.32,11.32,0,0,1-3-.57l-5.66-2c-.89-.31-1-.55-.26-.55l9.75,0a11.32,11.32,0,0,1,3,.57l5.66,2C160.77,283.29,160.89,283.53,160.14,283.53Z"/><path class="cls-25" d="M178.36,283.67l-9.75,0a10.92,10.92,0,0,1-3-.57l-5.66-2c-.89-.31-1-.56-.26-.56l9.75,0a10.89,10.89,0,0,1,3,.56l5.66,2C179,283.43,179.11,283.68,178.36,283.67Z"/><path class="cls-25" d="M195.63,283.79l-9.75,0a10.92,10.92,0,0,1-3-.57l-5.66-2c-.89-.31-1-.56-.26-.56l9.75,0a10.89,10.89,0,0,1,3,.56l5.66,2C196.26,283.55,196.38,283.8,195.63,283.79Z"/><path class="cls-26" d="M170.94,287.28l-9.75,0a11,11,0,0,1-3-.57l-5.66-2c-.89-.31-1-.56-.25-.56l9.74,0a11,11,0,0,1,3,.56l5.66,2C171.57,287,171.68,287.29,170.94,287.28Z"/><path class="cls-25" d="M189.16,287.43l-9.75,0a11,11,0,0,1-3-.56l-5.66-2c-.89-.31-1-.56-.25-.56l9.75,0a11,11,0,0,1,3,.56l5.66,2C189.79,287.18,189.9,287.43,189.16,287.43Z"/><path class="cls-25" d="M206.43,287.55l-9.75,0a11,11,0,0,1-3-.56l-5.66-2c-.89-.31-1-.56-.25-.56l9.75,0a11.36,11.36,0,0,1,3,.56l5.66,2C207.06,287.3,207.17,287.55,206.43,287.55Z"/><path class="cls-25" d="M149.34,279.68l-9.75,0a11,11,0,0,1-3-.57l-5.66-2c-.89-.31-1-.56-.26-.56l9.75,0a11,11,0,0,1,3,.56l5.66,2C150,279.44,150.09,279.69,149.34,279.68Z"/><path class="cls-25" d="M167.56,279.83l-9.75,0a11,11,0,0,1-3-.56l-5.66-2c-.89-.31-1-.56-.26-.56l9.75,0a11,11,0,0,1,3,.56l5.66,2C168.2,279.58,168.31,279.83,167.56,279.83Z"/><path class="cls-25" d="M184.83,280l-9.75,0a11,11,0,0,1-3-.56l-5.66-2c-.89-.31-1-.56-.26-.56l9.75,0a11,11,0,0,1,3,.56l5.66,2C185.47,279.7,185.58,280,184.83,280Z"/><path class="cls-25" d="M160.14,283.44l-9.75,0a10.89,10.89,0,0,1-3-.56l-5.66-2c-.89-.31-1-.56-.26-.56l9.75,0a11.28,11.28,0,0,1,3,.56l5.66,2C160.77,283.19,160.89,283.44,160.14,283.44Z"/><path class="cls-25" d="M178.36,283.58l-9.75,0a10.89,10.89,0,0,1-3-.56L160,281c-.89-.31-1-.56-.26-.55l9.75,0a10.92,10.92,0,0,1,3,.57l5.66,2C179,283.33,179.11,283.58,178.36,283.58Z"/><path class="cls-25" d="M195.63,283.7l-9.75,0a10.89,10.89,0,0,1-3-.56l-5.66-2c-.89-.31-1-.56-.26-.55l9.75,0a11.32,11.32,0,0,1,3,.57l5.66,2C196.26,283.45,196.38,283.7,195.63,283.7Z"/><path class="cls-26" d="M170.94,287.19l-9.75,0a11.39,11.39,0,0,1-3-.57l-5.66-2c-.89-.31-1-.55-.25-.55l9.74,0a11.39,11.39,0,0,1,3,.57l5.66,2C171.57,286.94,171.68,287.19,170.94,287.19Z"/><path class="cls-25" d="M189.16,287.33l-9.75,0a11.39,11.39,0,0,1-3-.57l-5.66-2c-.89-.3-1-.55-.25-.55l9.75,0a11,11,0,0,1,3,.56l5.66,2C189.79,287.09,189.9,287.34,189.16,287.33Z"/><path class="cls-25" d="M206.43,287.45l-9.75,0a11,11,0,0,1-3-.57l-5.66-2c-.89-.31-1-.56-.25-.56l9.75,0a11,11,0,0,1,3,.56l5.66,2C207.06,287.21,207.17,287.46,206.43,287.45Z"/><path class="cls-25" d="M149.34,279.59l-9.75,0a11,11,0,0,1-3-.56L131,277c-.89-.31-1-.56-.26-.55l9.75,0a11,11,0,0,1,3,.57l5.66,2C150,279.34,150.09,279.59,149.34,279.59Z"/><path class="cls-25" d="M167.56,279.73l-9.75,0a11.4,11.4,0,0,1-3-.57l-5.66-2c-.89-.31-1-.55-.26-.55l9.75,0a11.39,11.39,0,0,1,3,.57l5.66,2C168.2,279.49,168.31,279.73,167.56,279.73Z"/><path class="cls-25" d="M184.83,279.85l-9.75,0a11.4,11.4,0,0,1-3-.57l-5.66-2c-.89-.3-1-.55-.26-.55l9.75,0a11.39,11.39,0,0,1,3,.57l5.66,2C185.47,279.61,185.58,279.86,184.83,279.85Z"/><path class="cls-25" d="M160.14,283.34l-9.75,0a10.92,10.92,0,0,1-3-.57l-5.66-2c-.89-.31-1-.56-.26-.56l9.75,0a10.89,10.89,0,0,1,3,.56l5.66,2C160.77,283.1,160.89,283.35,160.14,283.34Z"/><path class="cls-25" d="M178.36,283.48l-9.75,0a10.92,10.92,0,0,1-3-.57l-5.66-2c-.89-.31-1-.56-.26-.56l9.75,0a10.89,10.89,0,0,1,3,.56l5.66,2C179,283.24,179.11,283.49,178.36,283.48Z"/><path class="cls-25" d="M195.63,283.61l-9.75,0a11.28,11.28,0,0,1-3-.56l-5.66-2c-.89-.31-1-.56-.26-.56l9.75,0a10.89,10.89,0,0,1,3,.56l5.66,2C196.26,283.36,196.38,283.61,195.63,283.61Z"/><path class="cls-26" d="M170.94,287.1l-9.75,0a11,11,0,0,1-3-.56l-5.66-2c-.89-.31-1-.56-.25-.56l9.74,0a11,11,0,0,1,3,.56l5.66,2C171.57,286.85,171.68,287.1,170.94,287.1Z"/><path class="cls-25" d="M189.16,287.24l-9.75,0a11,11,0,0,1-3-.56l-5.66-2c-.89-.31-1-.56-.25-.55l9.75,0a11,11,0,0,1,3,.57l5.66,2C189.79,287,189.9,287.24,189.16,287.24Z"/><path class="cls-25" d="M206.43,287.36l-9.75,0a11,11,0,0,1-3-.56l-5.66-2c-.89-.31-1-.56-.25-.55l9.75,0a11,11,0,0,1,3,.57l5.66,2C207.06,287.11,207.17,287.36,206.43,287.36Z"/><path class="cls-25" d="M149.34,279.5l-9.75,0a11.36,11.36,0,0,1-3-.56l-5.66-2c-.89-.31-1-.56-.26-.56l9.75,0a11,11,0,0,1,3,.56l5.66,2C150,279.25,150.09,279.5,149.34,279.5Z"/><path class="cls-25" d="M167.56,279.64l-9.75,0a11,11,0,0,1-3-.56l-5.66-2c-.89-.31-1-.56-.26-.56l9.75,0a11.35,11.35,0,0,1,3,.56l5.66,2C168.2,279.39,168.31,279.64,167.56,279.64Z"/><path class="cls-25" d="M184.83,279.76l-9.75,0a11,11,0,0,1-3-.56l-5.66-2c-.89-.31-1-.56-.26-.55l9.75,0a11,11,0,0,1,3,.57l5.66,2C185.47,279.51,185.58,279.76,184.83,279.76Z"/><path class="cls-25" d="M160.14,283.25l-9.75,0a10.89,10.89,0,0,1-3-.56l-5.66-2c-.89-.31-1-.56-.26-.55l9.75,0a10.92,10.92,0,0,1,3,.57l5.66,2C160.77,283,160.89,283.25,160.14,283.25Z"/><path class="cls-25" d="M178.36,283.39l-9.75,0a11.32,11.32,0,0,1-3-.57l-5.66-2c-.89-.31-1-.55-.26-.55l9.75,0a11.32,11.32,0,0,1,3,.57l5.66,2C179,283.15,179.11,283.39,178.36,283.39Z"/><path class="cls-25" d="M195.63,283.51l-9.75,0a11.32,11.32,0,0,1-3-.57l-5.66-2c-.89-.31-1-.55-.26-.55l9.75,0a11.32,11.32,0,0,1,3,.57l5.66,2C196.26,283.27,196.38,283.51,195.63,283.51Z"/><path class="cls-26" d="M170.94,287l-9.75,0a11.39,11.39,0,0,1-3-.57l-5.66-2c-.89-.3-1-.55-.25-.55l9.74,0a11.39,11.39,0,0,1,3,.57l5.66,2C171.57,286.76,171.68,287,170.94,287Z"/><path class="cls-25" d="M189.16,287.14l-9.75,0a11,11,0,0,1-3-.57l-5.66-2c-.89-.31-1-.56-.25-.56l9.75,0a11,11,0,0,1,3,.56l5.66,2C189.79,286.9,189.9,287.15,189.16,287.14Z"/><path class="cls-25" d="M206.43,287.26l-9.75,0a11.35,11.35,0,0,1-3-.56l-5.66-2c-.89-.31-1-.56-.25-.56l9.75,0a11,11,0,0,1,3,.56l5.66,2C207.06,287,207.17,287.27,206.43,287.26Z"/><path class="cls-25" d="M149.34,279.4l-9.75,0a11.4,11.4,0,0,1-3-.57l-5.66-2c-.89-.31-1-.55-.26-.55l9.75,0a11.39,11.39,0,0,1,3,.57l5.66,2C150,279.16,150.09,279.4,149.34,279.4Z"/><path class="cls-25" d="M167.56,279.54l-9.75,0a11,11,0,0,1-3-.57l-5.66-2c-.89-.31-1-.56-.26-.56l9.75,0a11,11,0,0,1,3,.56l5.66,2C168.2,279.3,168.31,279.55,167.56,279.54Z"/><path class="cls-25" d="M184.83,279.66l-9.75,0a11,11,0,0,1-3-.57l-5.66-2c-.89-.31-1-.56-.26-.56l9.75,0a11,11,0,0,1,3,.56l5.66,2C185.47,279.42,185.58,279.67,184.83,279.66Z"/><path class="cls-25" d="M160.14,283.15l-9.75,0a10.92,10.92,0,0,1-3-.57l-5.66-2c-.89-.31-1-.56-.26-.56l9.75,0a10.89,10.89,0,0,1,3,.56l5.66,2C160.77,282.91,160.89,283.16,160.14,283.15Z"/><path class="cls-25" d="M178.36,283.3l-9.75,0a10.89,10.89,0,0,1-3-.56l-5.66-2c-.89-.31-1-.56-.26-.56l9.75,0a10.89,10.89,0,0,1,3,.56l5.66,2C179,283.05,179.11,283.3,178.36,283.3Z"/><path class="cls-25" d="M195.63,283.42l-9.75,0a10.89,10.89,0,0,1-3-.56l-5.66-2c-.89-.31-1-.56-.26-.56l9.75,0a11.28,11.28,0,0,1,3,.56l5.66,2C196.26,283.17,196.38,283.42,195.63,283.42Z"/><path class="cls-26" d="M170.94,286.91l-9.75,0a11,11,0,0,1-3-.56l-5.66-2c-.89-.31-1-.56-.25-.55l9.74,0a11,11,0,0,1,3,.57l5.66,2C171.57,286.66,171.68,286.91,170.94,286.91Z"/><path class="cls-25" d="M189.16,287.05l-9.75,0a11,11,0,0,1-3-.56l-5.66-2c-.89-.31-1-.56-.25-.55l9.75,0a11.4,11.4,0,0,1,3,.57l5.66,2C189.79,286.8,189.9,287.05,189.16,287.05Z"/><path class="cls-25" d="M206.43,287.17l-9.75,0a11.39,11.39,0,0,1-3-.57l-5.66-2c-.89-.31-1-.55-.25-.55l9.75,0a11.4,11.4,0,0,1,3,.57l5.66,2C207.06,286.92,207.17,287.17,206.43,287.17Z"/><path class="cls-25" d="M149.34,279.31l-9.75,0a11,11,0,0,1-3-.56l-5.66-2c-.89-.31-1-.56-.26-.56l9.75,0a11.35,11.35,0,0,1,3,.56l5.66,2C150,279.06,150.09,279.31,149.34,279.31Z"/><path class="cls-25" d="M167.56,279.45l-9.75,0a11,11,0,0,1-3-.56l-5.66-2c-.89-.31-1-.56-.26-.55l9.75,0a11,11,0,0,1,3,.57l5.66,2C168.2,279.2,168.31,279.45,167.56,279.45Z"/><path class="cls-25" d="M184.83,279.57l-9.75,0a11,11,0,0,1-3-.56l-5.66-2c-.89-.31-1-.56-.26-.55l9.75,0a11.39,11.39,0,0,1,3,.57l5.66,2C185.47,279.32,185.58,279.57,184.83,279.57Z"/><path class="cls-25" d="M160.14,283.06l-9.75,0a11.32,11.32,0,0,1-3-.57l-5.66-2c-.89-.31-1-.55-.26-.55l9.75,0a11.32,11.32,0,0,1,3,.57l5.66,2C160.77,282.81,160.89,283.06,160.14,283.06Z"/><path class="cls-25" d="M178.36,283.2l-9.75,0a11.32,11.32,0,0,1-3-.57l-5.66-2c-.89-.31-1-.56-.26-.56l9.75,0a10.89,10.89,0,0,1,3,.56l5.66,2C179,283,179.11,283.21,178.36,283.2Z"/><path class="cls-25" d="M195.63,283.32l-9.75,0a10.92,10.92,0,0,1-3-.57l-5.66-2c-.89-.31-1-.56-.26-.56l9.75,0a10.89,10.89,0,0,1,3,.56l5.66,2C196.26,283.08,196.38,283.33,195.63,283.32Z"/><path class="cls-26" d="M170.94,286.81l-9.75,0a11,11,0,0,1-3-.57l-5.66-2c-.89-.31-1-.56-.25-.56l9.74,0a11,11,0,0,1,3,.56l5.66,2C171.57,286.57,171.68,286.82,170.94,286.81Z"/><path class="cls-25" d="M189.16,287l-9.75,0a11,11,0,0,1-3-.56l-5.66-2c-.89-.31-1-.56-.25-.56l9.75,0a11,11,0,0,1,3,.56l5.66,2C189.79,286.71,189.9,287,189.16,287Z"/><path class="cls-25" d="M206.43,287.08l-9.75,0a11,11,0,0,1-3-.56l-5.66-2c-.89-.31-1-.56-.25-.56l9.75,0a11,11,0,0,1,3,.56l5.66,2C207.06,286.83,207.17,287.08,206.43,287.08Z"/><path class="cls-25" d="M149.34,279.21l-9.75,0a11,11,0,0,1-3-.57l-5.66-2c-.89-.31-1-.56-.26-.56l9.75,0a11,11,0,0,1,3,.56l5.66,2C150,279,150.09,279.22,149.34,279.21Z"/><path class="cls-25" d="M167.56,279.36l-9.75,0a11.36,11.36,0,0,1-3-.56l-5.66-2c-.89-.31-1-.56-.26-.56l9.75,0a11,11,0,0,1,3,.56l5.66,2C168.2,279.11,168.31,279.36,167.56,279.36Z"/><path class="cls-25" d="M184.83,279.48l-9.75,0a11,11,0,0,1-3-.56l-5.66-2c-.89-.31-1-.56-.26-.56l9.75,0a11,11,0,0,1,3,.56l5.66,2C185.47,279.23,185.58,279.48,184.83,279.48Z"/><path class="cls-25" d="M160.14,283l-9.75,0a10.89,10.89,0,0,1-3-.56l-5.66-2c-.89-.31-1-.56-.26-.56l9.75,0a10.89,10.89,0,0,1,3,.56l5.66,2C160.77,282.72,160.89,283,160.14,283Z"/><path class="cls-25" d="M178.36,283.11l-9.75,0a10.89,10.89,0,0,1-3-.56l-5.66-2c-.89-.31-1-.56-.26-.55l9.75,0a10.92,10.92,0,0,1,3,.57l5.66,2C179,282.86,179.11,283.11,178.36,283.11Z"/><path class="cls-25" d="M195.63,283.23l-9.75,0a10.89,10.89,0,0,1-3-.56l-5.66-2c-.89-.31-1-.56-.26-.55l9.75,0a10.92,10.92,0,0,1,3,.57l5.66,2C196.26,283,196.38,283.23,195.63,283.23Z"/><path class="cls-26" d="M170.94,286.72l-9.75,0a11,11,0,0,1-3-.56l-5.66-2c-.89-.31-1-.56-.25-.55l9.74,0a11.39,11.39,0,0,1,3,.57l5.66,2C171.57,286.47,171.68,286.72,170.94,286.72Z"/><path class="cls-25" d="M189.16,286.86l-9.75,0a11.39,11.39,0,0,1-3-.57l-5.66-2c-.89-.31-1-.55-.25-.55l9.75,0a11.4,11.4,0,0,1,3,.57l5.66,2C189.79,286.62,189.9,286.86,189.16,286.86Z"/><path class="cls-25" d="M206.43,287l-9.75,0a11.39,11.39,0,0,1-3-.57l-5.66-2c-.89-.31-1-.56-.25-.56l9.75,0a11,11,0,0,1,3,.56l5.66,2C207.06,286.74,207.17,287,206.43,287Z"/><path class="cls-25" d="M149.34,279.12l-9.75,0a11,11,0,0,1-3-.56l-5.66-2c-.89-.31-1-.56-.26-.55l9.75,0a11,11,0,0,1,3,.57l5.66,2C150,278.87,150.09,279.12,149.34,279.12Z"/><path class="cls-25" d="M167.56,279.26l-9.75,0a11.4,11.4,0,0,1-3-.57l-5.66-2c-.89-.31-1-.55-.26-.55l9.75,0a11.39,11.39,0,0,1,3,.57l5.66,2C168.2,279,168.31,279.26,167.56,279.26Z"/><path class="cls-25" d="M184.83,279.38l-9.75,0a11.4,11.4,0,0,1-3-.57l-5.66-2c-.89-.31-1-.55-.26-.55l9.75,0a11.39,11.39,0,0,1,3,.57l5.66,2C185.47,279.14,185.58,279.38,184.83,279.38Z"/><path class="cls-25" d="M160.14,282.87l-9.75,0a11.32,11.32,0,0,1-3-.57l-5.66-2c-.89-.3-1-.55-.26-.55l9.75,0a11.32,11.32,0,0,1,3,.57l5.66,2C160.77,282.63,160.89,282.87,160.14,282.87Z"/><path class="cls-25" d="M178.36,283l-9.75,0a10.92,10.92,0,0,1-3-.57l-5.66-2c-.89-.31-1-.56-.26-.56l9.75,0a10.89,10.89,0,0,1,3,.56l5.66,2C179,282.77,179.11,283,178.36,283Z"/><path class="cls-25" d="M195.63,283.14l-9.75,0a11.28,11.28,0,0,1-3-.56l-5.66-2c-.89-.31-1-.56-.26-.56l9.75,0a10.89,10.89,0,0,1,3,.56l5.66,2C196.26,282.89,196.38,283.14,195.63,283.14Z"/><path class="cls-26" d="M170.94,286.63l-9.75,0a11,11,0,0,1-3-.56l-5.66-2c-.89-.31-1-.56-.25-.56l9.74,0a11,11,0,0,1,3,.56l5.66,2C171.57,286.38,171.68,286.63,170.94,286.63Z"/><path class="cls-25" d="M189.16,286.77l-9.75,0a11,11,0,0,1-3-.56l-5.66-2c-.89-.31-1-.56-.25-.55l9.75,0a11,11,0,0,1,3,.57l5.66,2C189.79,286.52,189.9,286.77,189.16,286.77Z"/><path class="cls-25" d="M206.43,286.89l-9.75,0a11,11,0,0,1-3-.56l-5.66-2c-.89-.31-1-.56-.25-.55l9.75,0a11,11,0,0,1,3,.57l5.66,2C207.06,286.64,207.17,286.89,206.43,286.89Z"/><path class="cls-25" d="M149.34,279l-9.75,0a11,11,0,0,1-3-.57l-5.66-2c-.89-.31-1-.56-.26-.56l9.75,0a11,11,0,0,1,3,.56l5.66,2C150,278.78,150.09,279,149.34,279Z"/><path class="cls-25" d="M167.56,279.17l-9.75,0a11,11,0,0,1-3-.56l-5.66-2c-.89-.31-1-.56-.26-.56l9.75,0a11,11,0,0,1,3,.56l5.66,2C168.2,278.92,168.31,279.17,167.56,279.17Z"/><path class="cls-25" d="M184.83,279.29l-9.75,0a11,11,0,0,1-3-.56l-5.66-2c-.89-.31-1-.56-.26-.55l9.75,0a11.35,11.35,0,0,1,3,.56l5.66,2C185.47,279,185.58,279.29,184.83,279.29Z"/><path class="cls-25" d="M160.14,282.78l-9.75,0a10.89,10.89,0,0,1-3-.56l-5.66-2c-.89-.31-1-.56-.26-.55l9.75,0a10.92,10.92,0,0,1,3,.57l5.66,2C160.77,282.53,160.89,282.78,160.14,282.78Z"/><path class="cls-25" d="M178.36,282.92l-9.75,0a11.32,11.32,0,0,1-3-.57l-5.66-2c-.89-.31-1-.56-.26-.55l9.75,0a11.32,11.32,0,0,1,3,.57l5.66,2C179,282.67,179.11,282.92,178.36,282.92Z"/><path class="cls-25" d="M195.63,283l-9.75,0a11.32,11.32,0,0,1-3-.57l-5.66-2c-.89-.31-1-.55-.26-.55l9.75,0a11.32,11.32,0,0,1,3,.57l5.66,2C196.26,282.8,196.38,283,195.63,283Z"/><path class="cls-26" d="M170.94,286.53l-9.75,0a11.39,11.39,0,0,1-3-.57l-5.66-2c-.89-.31-1-.55-.25-.55l9.74,0a11.39,11.39,0,0,1,3,.57l5.66,2C171.57,286.29,171.68,286.53,170.94,286.53Z"/><path class="cls-25" d="M189.16,286.67l-9.75,0a11,11,0,0,1-3-.57l-5.66-2c-.89-.31-1-.56-.25-.56l9.75,0a11,11,0,0,1,3,.56l5.66,2C189.79,286.43,189.9,286.68,189.16,286.67Z"/><path class="cls-25" d="M206.43,286.79l-9.75,0a11,11,0,0,1-3-.57l-5.66-2c-.89-.31-1-.56-.25-.56l9.75,0a11,11,0,0,1,3,.56l5.66,2C207.06,286.55,207.17,286.8,206.43,286.79Z"/><path class="cls-19" d="M149.34,279l-9.75,0a11.36,11.36,0,0,1-3-.56l-5.66-2c-.89-.31-1-.56-.26-.56l9.75,0a11,11,0,0,1,3,.56l5.66,2C150,278.78,150.09,279,149.34,279Z"/><path class="cls-19" d="M167.56,279.17l-9.75,0a11,11,0,0,1-3-.56l-5.66-2c-.89-.31-1-.56-.26-.56l9.75,0a11.35,11.35,0,0,1,3,.56l5.66,2C168.2,278.92,168.31,279.17,167.56,279.17Z"/><path class="cls-19" d="M184.83,279.29l-9.75,0a11,11,0,0,1-3-.56l-5.66-2c-.89-.31-1-.56-.26-.55l9.75,0a11,11,0,0,1,3,.57l5.66,2C185.47,279,185.58,279.29,184.83,279.29Z"/><path class="cls-19" d="M160.14,282.78l-9.75,0a10.89,10.89,0,0,1-3-.56l-5.66-2c-.89-.31-1-.56-.26-.55l9.75,0a10.92,10.92,0,0,1,3,.57l5.66,2C160.77,282.53,160.89,282.78,160.14,282.78Z"/><path class="cls-19" d="M178.36,282.92l-9.75,0a11.32,11.32,0,0,1-3-.57l-5.66-2c-.89-.31-1-.55-.26-.55l9.75,0a11.32,11.32,0,0,1,3,.57l5.66,2C179,282.67,179.11,282.92,178.36,282.92Z"/><path class="cls-19" d="M195.63,283l-9.75,0a11.32,11.32,0,0,1-3-.57l-5.66-2c-.89-.31-1-.55-.26-.55l9.75,0a11.32,11.32,0,0,1,3,.57l5.66,2C196.26,282.8,196.38,283,195.63,283Z"/><path class="cls-27" d="M170.94,286.46l-9.75,0a11,11,0,0,1-3-.56l-5.66-2c-.89-.31-1-.56-.25-.55l9.74,0a11,11,0,0,1,3,.57l5.66,2C171.57,286.21,171.68,286.46,170.94,286.46Z"/><path class="cls-19" d="M189.16,286.67l-9.75,0a11,11,0,0,1-3-.57l-5.66-2c-.89-.31-1-.56-.25-.56l9.75,0a11,11,0,0,1,3,.56l5.66,2C189.79,286.43,189.9,286.68,189.16,286.67Z"/><path class="cls-19" d="M206.43,286.79l-9.75,0a11,11,0,0,1-3-.57l-5.66-2c-.89-.31-1-.56-.25-.56l9.75,0a11,11,0,0,1,3,.56l5.66,2C207.06,286.55,207.17,286.8,206.43,286.79Z"/><polygon class="cls-28" points="149.48 289.03 151.47 289.16 147.01 287.21 143.78 286.79 149.48 289.03"/><path class="cls-28" d="M214.52,289.88h2.74a72.92,72.92,0,0,0-7.09-4.91h-3.25A88.42,88.42,0,0,1,214.52,289.88Z"/><g class="cls-29"><path class="cls-30" d="M357.06,91.25s24.33,33.59,27,53.9l4-.48S370.4,102.31,360.3,86.78Z"/><path class="cls-30" d="M355.09,149.79s6.28-31.25-8.81-55.41l5.39-2c0,.08,10.17,23.49,12.28,56.36Z"/><path class="cls-31" d="M213,79.35s32,24.62,28,70.37C241,149.72,218.46,135.86,213,79.35Z"/><path class="cls-32" d="M371.21,88.58c-.75.66-10.56,1.24-10.56,1.24l-2.77,9.42L324.79,105l-1.71,2.12L295.19,109l1.07,9.23-21.43-1.06a157.67,157.67,0,0,1-25.75-29.71L228.7,131.62s-11.35-28.6-14.52-42l27-32.26s79.65,1,118.91-10.09c1.05-.3,2.06.5,3,2.08C368.21,57.74,371.84,88,371.21,88.58Z"/><path class="cls-33" d="M213,79.35s-27.33,48.27-62.71,70l-4.78-8-6.6,9.3s-56.58-47-103.48-99.16l-4.91,125.1,23.2-11.85s50.88,54.32,94.67,76.35c0,0,60.41-45,92.63-91.4C241,149.72,218.67,109.46,213,79.35Z"/><path class="cls-34" d="M15.11,27.76,16,61.18,68.75,114s-4.26,35.23-15.08,50.82c0,0,34,31.6,61.4,55.12,0,0-19.38-60.17-16.2-104.58C98.87,115.31,34.46,54.62,15.11,27.76Z"/><path class="cls-35" d="M150.24,149.34s-13.89,13.31-10.79,51c0,0-8.68-30.72,6-59Z"/><path class="cls-36" d="M241,149.72s-77.26,53.65-92.63,91.4C148.34,241.12,213.86,191.64,241,149.72Z"/><path class="cls-37" d="M223.6,78.11l17.49,26.67-10.78,23.65s-12.17-26.57-15.21-39.9Z"/><path class="cls-38" d="M371.21,88.58c-.75.66-10.56,1.24-10.56,1.24l-2.77,9.42L324.79,105l-1.71,2.12c-2.35-17.83-15.31-41.63-15.31-41.63s9.45-1.37,13-1.52,7.65-3.38,12.19-4.43,18.84-5.51,18.84-5.51l11.33-4.68C368.21,57.74,371.84,88,371.21,88.58Z"/><polygon class="cls-37" points="300.89 96.23 306.99 93.91 306.51 89.89 297.05 85.31 280.72 96.31 286.2 97.95 296.17 86.09 303.97 89.31 300.89 96.23"/><path class="cls-37" d="M360.65,89.82s-.79-26.94-2.67-36c0,0,5,22.7,4.37,35.86Z"/><path class="cls-37" d="M351,100.44s-2.25-25.33-5.59-38A112.05,112.05,0,0,1,351,100.44Z"/><path class="cls-37" d="M337,102.89s-2.66-23.73-7.6-40.46c0,0,8.53,22.75,8.43,40.36Z"/><path class="cls-39" d="M292.24,118s19.88,3.29,29.06,11.29c0,0,11.63-6.31,1.8-22.2l-31.63,1.34Z"/><path class="cls-30" d="M295.81,157.42s-18.73-31.93-10.08-57.18L296.17,86.1,304,89.31l-9.71,11.84s-7.76,14.43,6.43,54.77Z"/><path class="cls-30" d="M304,89.31A62.14,62.14,0,0,0,297.78,97c-14.09,23.18,28.48,56.22,28.48,56.22l-8.21,1s-37.68-34.14-25.41-58c3.18-6.16,3.53-10.13,3.53-10.13Z"/></g><path class="cls-40" d="M298.23,156.2s82.14-9.27,119.62-18.16c0,0,9.54,103,4.95,139.81L321.3,296.64Z"/><path class="cls-41" d="M298.23,156.2s-11.74,3.79-50,13.09l31.91,124.42s25,4.57,41.16,2.93Z"/><path class="cls-42" d="M248.23,169.29S291.75,243.76,295,242s3.21-85.76,3.21-85.76S276.25,162.27,248.23,169.29Z"/><path class="cls-43" d="M321.3,296.64s50.56-19.27,67.78-21.16,33.72,2.37,33.72,2.37Z"/></g></g></svg>