<svg xmlns="http://www.w3.org/2000/svg" xmlns:xlink="http://www.w3.org/1999/xlink" viewBox="0 0 651.53 595.28"><defs><style>.cls-1{isolation:isolate;}.cls-2{fill:url(#Новый_образец_градиента_2);}.cls-3{fill:url(#Новый_образец_градиента_2-2);}.cls-4{fill:url(#Новый_образец_градиента_2-3);}.cls-5{fill:#2ba14c;}.cls-6{fill:#352e73;}.cls-7{fill:#7271b3;}.cls-8{fill:#fc008b;}.cls-14,.cls-9{fill:#ff7a03;}.cls-10{fill:#fcc13f;}.cls-11{fill:#8cd334;}.cls-12{fill:#fee2bf;}.cls-13{fill:#fae0b2;}.cls-14{opacity:0.68;}.cls-15{fill:#f3ffff;}.cls-16{fill:#d6007e;}.cls-17{fill:#ffa42f;}.cls-18{fill:#7f1ca0;}.cls-19{fill:#adeff7;}.cls-20{fill:#2d2861;}.cls-21{fill:#f7a491;}.cls-22,.cls-25{fill:#f47458;}.cls-22{opacity:0.5;mix-blend-mode:multiply;}.cls-23{fill:#f48c7f;}.cls-24{fill:#f79c8d;}</style><linearGradient id="Новый_образец_градиента_2" x1="272.12" y1="98.63" x2="269.91" y2="342.6" gradientUnits="userSpaceOnUse"><stop offset="0" stop-color="#8bf9fd"/><stop offset="0.99" stop-color="#fafee5"/></linearGradient><linearGradient id="Новый_образец_градиента_2-2" x1="191.37" y1="97.9" x2="189.16" y2="341.87" xlink:href="#Новый_образец_градиента_2"/><linearGradient id="Новый_образец_градиента_2-3" x1="456.84" y1="100.31" x2="454.63" y2="344.27" xlink:href="#Новый_образец_градиента_2"/></defs><title>main1</title><g class="cls-1"><g id="katman_1" data-name="katman 1"><path class="cls-2" d="M368.13,360.64H171.86a28.1,28.1,0,0,1-28.1-28.1h0a28.1,28.1,0,0,1,28.1-28.1H368.13a28.1,28.1,0,0,1,28.1,28.1h0A28.1,28.1,0,0,1,368.13,360.64Z"/><path class="cls-3" d="M319.3,177.15h0c15.8,0,28.61-13.22,28.61-29.53h0c0-16.31-12.81-29.52-28.61-29.52H118.46c-14.2,0-25.71,11.87-25.71,26.52h0c0,17.56-13.79,31.79-30.8,31.79H56.78C39.34,176.41,25.2,191,25.2,209h0c0,18,14.14,32.58,31.58,32.58h0c17,0,30.8,14.24,30.8,31.79v6.06c0,14.65,11.51,26.53,25.7,26.53H323.36c17.44,0,31.58-14.59,31.58-32.59v0c0-18-14.13-32.55-31.55-32.55h0C306.36,240.79,304.53,177.15,319.3,177.15Z"/><path class="cls-4" d="M356.35,244.45v-4.4c0-15.9-11.55-28.78-25.8-28.78h0c-15.25,0-27.61-13.78-27.61-30.78h0c0-17,12.36-30.78,27.61-30.78H524.33c13.69,0,24.8,12.38,24.8,27.66h0c0,18.3,13.3,33.14,29.72,33.14h5c16.82,0,30.46,15.21,30.46,34h0c0,18.76-13.64,34-30.46,34h0c-16.42,0-29.72,14.84-29.72,33.14v6.32c0,15.27-11.11,27.65-24.8,27.65H326.63c-16.82,0-30.47-15.21-30.47-34v0c0-18.75,13.63-33.94,30.44-33.94h0C343,277.62,356.35,262.77,356.35,244.45Z"/><path class="cls-5" d="M68.37,165.27c-5.41-5.69-14.46-5.52-14.52-5.54A16.69,16.69,0,0,0,43.73,163a12.14,12.14,0,0,0-2.34,2.24l2.06,1.38a9.79,9.79,0,0,1,4.16-3.94,13.64,13.64,0,0,1,6.45-1.57c4.19-.07,9.45,1.62,12.52,4.81A6.35,6.35,0,0,0,68.37,165.27Z"/><path class="cls-6" d="M15.72,232.86c10.66,4.75,23.26-.27,28.13-11.21a21.7,21.7,0,0,0-3.18-22.93c6.39-16.74,6.23-31.93-.77-35.05-3.27-1.45-6.7.09-9,1.48a37.89,37.89,0,0,0-10.42,10A117.1,117.1,0,0,0,11,189.73a88.48,88.48,0,0,0-7,15.18,26.17,26.17,0,0,0-1,13.45A18.85,18.85,0,0,0,9.42,229,26.9,26.9,0,0,0,15.72,232.86Z"/><path class="cls-7" d="M40.42,174.32s-7.67,23.56-7.67,26.15,6.5,4.83,4.93,14.2-7.39,12.9-13.42,11.43-7.94-9.46-3.22-10,9.32.79,10.7-4.44-2.27-11.3-2.27-11.3Z"/><path class="cls-5" d="M40.71,176.16l-.3-1.94a.52.52,0,0,0-.64-.36l-1.77.56a.49.49,0,0,1-.64-.42l0-1.72a.49.49,0,0,0-.68-.4l-2.62,1.22-.11.05-.65-3.2a.52.52,0,0,0-.65-.34l-2.31.81a.52.52,0,0,1-.65-.38l-.26-2.65a.5.5,0,0,0-.37-.39l-1.54-.4c-.3-.08-.46-.38-.32-.58,4.61-6.44,12.19-5,12.68-4.85h0a15,15,0,0,1,2.73,1.13c7.45,4,5.09,12.7,3.93,15.85-.13.34-.74.23-.84-.14l-.12-.45a.5.5,0,0,0-.76-.25h0a.49.49,0,0,1-.75-.2l-.43-1a.51.51,0,0,0-.64-.27l-1.72.7A.52.52,0,0,1,40.71,176.16Z"/><path class="cls-8" d="M139.78,140.4l-47-38.64a30.41,30.41,0,0,0,47,38.64Z"/><path class="cls-9" d="M117,144.78l-3.22-19.43-12,14.54A23.44,23.44,0,0,0,117,144.78Z"/><path class="cls-9" d="M117.23,125.63l3.11,18.81a23.71,23.71,0,0,0,12.27-6.15Z"/><path class="cls-9" d="M111.53,122.78c-6.81.11-12.78.28-18.79.82a23.45,23.45,0,0,0,6.57,14Z"/><path class="cls-9" d="M92.62,120.24c5.53-.5,11-.68,17.09-.79L96.27,108.38A23.8,23.8,0,0,0,92.62,120.24Z"/><path class="cls-10" d="M121.47,134a1.42,1.42,0,0,0,.81-1.82c-.24-.79-1.77-2.67-2.44-2.41s-.29,2.36,0,3.16A1.43,1.43,0,0,0,121.47,134Z"/><path class="cls-10" d="M128.48,138.78a1.42,1.42,0,0,0-.06-2c-.56-.61-2.75-1.64-3.24-1.12s.77,2.26,1.33,2.87A1.42,1.42,0,0,0,128.48,138.78Z"/><path class="cls-10" d="M111.68,144.17a1.4,1.4,0,0,0,1.34-1.46c0-.83-.82-3.09-1.54-3.06s-1,2.15-1,3A1.42,1.42,0,0,0,111.68,144.17Z"/><path class="cls-10" d="M108.55,137.94a1.41,1.41,0,0,0,2-.25c.56-.61,1.37-2.89.81-3.33s-2.17,1-2.73,1.6A1.4,1.4,0,0,0,108.55,137.94Z"/><path class="cls-10" d="M99.69,132.74a1.42,1.42,0,0,0,2-.25c.56-.62,1.37-2.9.81-3.34s-2.17,1-2.73,1.6A1.42,1.42,0,0,0,99.69,132.74Z"/><path class="cls-10" d="M103.42,127a1.42,1.42,0,0,0,1.77.92c.81-.19,2.77-1.6,2.55-2.29s-2.34-.43-3.15-.24A1.42,1.42,0,0,0,103.42,127Z"/><path class="cls-10" d="M95.54,117.32a1.41,1.41,0,0,0,1.29,1.52c.82.13,3.17-.42,3.23-1.14s-2-1.29-2.82-1.42A1.42,1.42,0,0,0,95.54,117.32Z"/><path class="cls-10" d="M100.32,115.43a1.41,1.41,0,0,0,.44,1.93c.67.5,3,1.08,3.4.48s-1.19-2.07-1.86-2.56A1.4,1.4,0,0,0,100.32,115.43Z"/><path class="cls-5" d="M152.83,293.59c3.24,1,4.72,5,3.29,8.73s-5.2,6-8.44,5-4.72-4.94-3.29-8.72S149.59,292.56,152.83,293.59Z"/><path class="cls-11" d="M152.1,294.23a1.63,1.63,0,1,1-1.85,1.54A1.71,1.71,0,0,1,152.1,294.23Z"/><path class="cls-5" d="M146.31,83.83l.32-.17a2.11,2.11,0,0,1,2.18.08,0,0,0,0,0,0,0,2.1,2.1,0,0,0,1.91.27l.33-.11a2.18,2.18,0,0,0,1.35-1.38s0,0,0,0a2.07,2.07,0,0,1,1.68-1.39l.36-.06a2,2,0,0,1,2,.82v0a2.19,2.19,0,0,0,1.71.91h.36A2.15,2.15,0,0,0,160.3,82s0,0,0,0a2.07,2.07,0,0,1,2-.76l.36.07a2.08,2.08,0,0,1,1.61,1.47l0,0a2.18,2.18,0,0,0,1.29,1.44l.32.12a2.14,2.14,0,0,0,1.92-.2h0a2.1,2.1,0,0,1,2.19,0l.3.18a2,2,0,0,1,1,1.93s0,0,0,0a2.13,2.13,0,0,0,.72,1.78l.28.24a2.17,2.17,0,0,0,1.87.47h0a2.09,2.09,0,0,1,2.06.76l.22.27a2.11,2.11,0,0,1,.3,2.17v0a2.18,2.18,0,0,0,.05,1.93l.19.31a2.15,2.15,0,0,0,1.6,1.09h0a2.08,2.08,0,0,1,1.68,1.42l.12.33a2.13,2.13,0,0,1-.46,2.14l0,0a2.14,2.14,0,0,0-.58,1.83l.05.35a2.14,2.14,0,0,0,1.13,1.57h0a2.09,2.09,0,0,1,1.09,1.89v.36a2.07,2.07,0,0,1-1.16,1.85l0,0a2.18,2.18,0,0,0-1.18,1.52l-.07.35a2.12,2.12,0,0,0,.53,1.86h0a2.09,2.09,0,0,1,.39,2.16l-.13.33a2.08,2.08,0,0,1-1.74,1.35h0a2.09,2.09,0,0,0-1.64,1l-.19.3a2.13,2.13,0,0,0-.14,1.92l0,0a2.1,2.1,0,0,1-.38,2.16l-.23.27a2.11,2.11,0,0,1-2.1.67h0a2.14,2.14,0,0,0-1.88.41l-.28.22a2.14,2.14,0,0,0-.79,1.76v0a2.1,2.1,0,0,1-1.09,1.9l-.32.17a2.14,2.14,0,0,1-1.13.26l-1.88-3.54L148.84,89.35,146,84A1.48,1.48,0,0,1,146.31,83.83Z"/><path class="cls-11" d="M148.84,89.35a17.65,17.65,0,0,1,16.59,31.14Z"/><path class="cls-12" d="M168.72,113.82a1.73,1.73,0,0,1-2.53,2.37c-.66-.69-2.3-3.84-1.6-4.5S168.06,113.12,168.72,113.82Z"/><path class="cls-12" d="M170,105.73a1.74,1.74,0,0,1,.28,3.46c-1,.08-4.44-.61-4.51-1.56S169,105.81,170,105.73Z"/><path class="cls-12" d="M167.08,97.75a1.73,1.73,0,1,1,2.28,2.61c-.72.63-3.93,2.15-4.56,1.43S166.36,98.38,167.08,97.75Z"/><path class="cls-12" d="M160.19,93a1.74,1.74,0,0,1,3.15,1.46c-.4.87-2.72,3.56-3.59,3.16S159.79,93.91,160.19,93Z"/><path class="cls-12" d="M152.5,92a1.74,1.74,0,0,1,3.46-.29c.08,1-.58,4.44-1.54,4.52S152.59,93,152.5,92Z"/><path class="cls-8" d="M561.79,103.74a25,25,0,0,0-35.62.6,25.68,25.68,0,0,0,.59,36,25,25,0,0,0,35.62-.59A25.67,25.67,0,0,0,561.79,103.74Zm-24.24,25.34a9.85,9.85,0,0,1-.22-13.83A9.58,9.58,0,0,1,551,115a9.86,9.86,0,0,1,.23,13.83A9.61,9.61,0,0,1,537.55,129.08Z"/><path class="cls-13" d="M542,106.5h0a1.3,1.3,0,0,1,0-1.82l1.78-1.85a1.25,1.25,0,0,1,1.8,0h0a1.29,1.29,0,0,1,0,1.82l-1.77,1.85A1.27,1.27,0,0,1,542,106.5Z"/><path class="cls-13" d="M558.46,132h0a1.26,1.26,0,0,1-1.78-.28l-1.5-2.08a1.29,1.29,0,0,1,.28-1.8h0a1.26,1.26,0,0,1,1.78.28l1.5,2.08A1.29,1.29,0,0,1,558.46,132Z"/><path class="cls-13" d="M535.36,110.12l0,.23a1.16,1.16,0,0,1-1.37.92l-1.79-.36a1.18,1.18,0,0,1-.92-1.38l0-.22a1.16,1.16,0,0,1,1.36-.93l1.8.36A1.17,1.17,0,0,1,535.36,110.12Z"/><path class="cls-13" d="M548.71,138.63l0,.23a1.17,1.17,0,0,1-1.37.92l-1.8-.36a1.17,1.17,0,0,1-.91-1.38l0-.23a1.17,1.17,0,0,1,1.37-.92l1.8.36A1.17,1.17,0,0,1,548.71,138.63Z"/><path class="cls-13" d="M554.74,110.45l-.18.15a1.15,1.15,0,0,1-1.63-.19L551.79,109a1.18,1.18,0,0,1,.18-1.65l.18-.14a1.15,1.15,0,0,1,1.63.18l1.15,1.45A1.18,1.18,0,0,1,554.74,110.45Z"/><path class="cls-13" d="M540,139.34h0a1.25,1.25,0,0,1-1.79-.2l-1-1.27a1.3,1.3,0,0,1,.2-1.81h0a1.25,1.25,0,0,1,1.79.2l1,1.27A1.3,1.3,0,0,1,540,139.34Z"/><path class="cls-13" d="M562.59,119.09v.23a1.16,1.16,0,0,1-1.09,1.24l-1.83.11a1.17,1.17,0,0,1-1.23-1.11v-.23a1.17,1.17,0,0,1,1.09-1.24l1.83-.1A1.17,1.17,0,0,1,562.59,119.09Z"/><path class="cls-13" d="M531.53,130.34v.23a1.16,1.16,0,0,1-1.09,1.24l-1.83.11a1.17,1.17,0,0,1-1.23-1.11v-.23a1.17,1.17,0,0,1,1.09-1.24l1.83-.1A1.17,1.17,0,0,1,531.53,130.34Z"/><path class="cls-13" d="M529.69,121.29h0a1.26,1.26,0,0,1-1.77-.34l-1.43-2.13a1.29,1.29,0,0,1,.33-1.79h0a1.26,1.26,0,0,1,1.77.34L530,119.5A1.29,1.29,0,0,1,529.69,121.29Z"/><polygon class="cls-10" points="563.24 213.75 515.83 246.92 514.64 243.81 502.17 211.18 535.09 188.15 563.24 213.75"/><polygon class="cls-14" points="535.09 233.44 520.92 243.35 507.05 207.77 512.64 203.86 535.09 233.44"/><polygon class="cls-14" points="553.42 220.62 542.6 228.19 519.87 198.8 525.54 194.83 553.42 220.62"/><path class="cls-15" d="M520.47,195.27s-6.39,3.52-10.81,5.37-11.79,5.61-11.57,9.74,4.28,7.29,6.24,6.3a7.72,7.72,0,0,0,3.8-4.56,6.92,6.92,0,0,0,0-4.69s-.17-1.35,1.77.34,3.73,10.73,6.47,13.95,6.46-.05,4.9-3c-1.22-2.32-10.94-9.78-10.41-12.15s2.56-3.06,4-1.58,2.4,7.05,4.47,9,4.72-1,3.22-3.3-7.27-5.84-6.54-7.11,4.32.67,8.18.35,4.77-5.72,4.63-8.1,2.06-7.53,6.86-4.61,8.82,15.45,11.38,18,8.08,0,5.94-4.44c-1.8-3.74-11-10.38-14.66-13.78a2.69,2.69,0,0,1-1.05-2.57,3.9,3.9,0,0,0-1.71-4.27c-2.86-2.19-7.72-1.22-10.66,2.74A35.49,35.49,0,0,0,520.47,195.27Z"/><path class="cls-15" d="M526.47,190.78s-4.34,2.09-4.6,2.27-6.8,1.71-9.71,4.22a62.92,62.92,0,0,0-6.45,7s15.61-6.83,15.8-7S526.47,190.78,526.47,190.78Z"/><path class="cls-9" d="M514.42,177.14c2.25.31,4.7,1.5,5.72,3.54,1.66,3.25-.36,7.32-1.45,9.38-.23.42-.59.68-.68.92,1.13-2.56,2.62-5.34,2.26-8.13-.36-3-3-4.58-6-4.89Z"/><path class="cls-8" d="M523.16,192.42c.46,2.23-1.49,4.52-4.37,5.12s-5.59-.72-6-2.95,1.49-4.52,4.36-5.12S522.69,190.19,523.16,192.42Z"/><path class="cls-16" d="M519.44,189.4c2.85,2.2,1.1,6.3-3,7.17a6.62,6.62,0,0,1-2.34.06,5.84,5.84,0,0,0,4.73.91c2.88-.6,4.83-2.89,4.37-5.12A4.21,4.21,0,0,0,519.44,189.4Z"/><path class="cls-5" d="M558,157.06l.15.34c.33.71.66,1.42,1,2.13l.27.59L581,154.77l12.42-9.11-1.28-3.58-1.17.37-.61,1.23-1.37,0-.64,1.21H587l-.67,1.19-1.37,0-.69,1.19-1.37-.05-.72,1.16-1.37-.08-.74,1.15-1.37-.11-.77,1.13-1.36-.14-.81,1.11-1.35-.18-.84,1.08-1.35-.22-.87,1.06L570,153l-.9,1-1.34-.32-.94,1-1.32-.37-1,1-1.3-.43-1,.9-1.28-.51-1.08.84-1.24-.58-1.15.41Z"/><path class="cls-11" d="M559.3,159.82c-.29,0,6.93,13.24,8,17.09S573.12,194,573.12,194l35-13.67s-9.21-17.65-11.31-23.49-3-11.21-3.32-11.18S568.72,158.79,559.3,159.82Z"/><path class="cls-9" d="M587.17,192.47s4.45,6.92,15.71,4.23c10.38-2.47,9.38-13.68,3.89-14.09s-11.25.69-14.5-.36C586.3,180.3,584,189.23,587.17,192.47Z"/><path class="cls-10" d="M600.38,178.31a7.72,7.72,0,0,0-.37,3.41,8.52,8.52,0,0,0,4.25,6.44c5.9,3.47,18.9.08,16.22-6.69s-8.59-.89-12.2-2.59c-1.61-.77-2.67-2.3-4.45-2.59A3.51,3.51,0,0,0,600.38,178.31Z"/><path class="cls-10" d="M608.93,154.81a7.77,7.77,0,0,0,2.74,2.06,8.51,8.51,0,0,0,7.7-.38c6-3.3,9.72-16.22,2.53-17.36s-5.15,6.94-8.46,9.17c-1.48,1-3.33,1.13-4.49,2.51A3.52,3.52,0,0,0,608.93,154.81Z"/><path class="cls-10" d="M586.41,186.09a10.64,10.64,0,0,1-7.38,1c-1.85-.43-6.08-.67-8.42,1.57-4.23,4.06-2.17,10.2,3.9,12.61,5.33,2.11,20.45.72,20.42-10.24C594.91,183.37,590.29,184.05,586.41,186.09Z"/><path class="cls-12" d="M597.79,164.75c1.53,4.32-3.55,10.07-11.35,12.86s-15.39,1.54-16.93-2.78,3.55-10.07,11.35-12.86S596.25,160.43,597.79,164.75Z"/><path class="cls-9" d="M572.73,197.17a9,9,0,0,0,2.08-3.18,14,14,0,0,0,1.42-3.86c.07-.37-.42-.46-.59-.18-.68,1.15-1.25,2.39-1.83,3.59a14.88,14.88,0,0,0-1.59,3.32.33.33,0,0,0,.51.31Z"/><path class="cls-9" d="M576.38,198.26c1.83-.75,3.26-5.4,3.69-7.35.11-.48-.68-.72-.82-.25a25.06,25.06,0,0,1-1.59,3.86c-.52,1-1.59,2.26-1.67,3.43a.29.29,0,0,0,.39.31Z"/><path class="cls-9" d="M581.83,197.36a7.1,7.1,0,0,0,.57-2.37c.14-.9.39-1.77.53-2.67a.71.71,0,0,0-1.35-.4c-.61,1.48-1.2,3.9-.53,5.43a.43.43,0,0,0,.78,0Z"/><path class="cls-9" d="M585.76,196.33a5.44,5.44,0,0,0-.3-3.5c-.43-.7-1.51.9-.36,3.57a.35.35,0,0,0,.66-.07Z"/><path class="cls-9" d="M587,192.83c.52,2.49,1.77,1.81,1.66,1.2a3.23,3.23,0,0,0-1-1.57.42.42,0,0,0-.67.37Z"/><path class="cls-9" d="M604.08,179.74a7,7,0,0,0-1.05,2.34,2.91,2.91,0,0,0-.06,2.33.42.42,0,0,0,.58.09,3.26,3.26,0,0,0,.68-1.94c.18-.85.39-1.66.52-2.52,0-.35-.45-.62-.67-.3Z"/><path class="cls-9" d="M606.15,180.86c-.38,1-1.08,3.92-.75,5a.45.45,0,0,0,.82,0,6.74,6.74,0,0,0,.36-2.29c.1-.84.24-1.68.29-2.53,0-.39-.55-.64-.72-.21Z"/><path class="cls-9" d="M609,181.16a20.59,20.59,0,0,0,0,5c.11.32.68.37.78,0,.46-1.48.1-3.45-.08-5-.05-.4-.69-.44-.73,0Z"/><path class="cls-9" d="M611.6,181.52a5.9,5.9,0,0,0,0,1.78c.13,1.39.14,2.14.72,2.19a.62.62,0,0,0,.72-.69,14,14,0,0,0-.63-3.37.43.43,0,0,0-.82.09Z"/><path class="cls-9" d="M614.52,181.62c-.46,1-.34,2.37.38,2.45a.57.57,0,0,0,.65-.3c.31-.59-.41-1.05-.32-1.94a.37.37,0,0,0-.71-.21Z"/><path class="cls-9" d="M612.69,152.44c.5,1,1.12.94,1.65,3,.17.64,1.22.37,1.12-.28-.18-1.2-1.07-3-2.44-3.13-.21,0-.45.2-.33.42Z"/><path class="cls-9" d="M614.25,151.1c2.92,2.59,2.48,3.51,3.54,4a.38.38,0,0,0,.54-.29c.19-.91-.73-1.89-1.29-2.51a7.12,7.12,0,0,0-2.44-1.77.33.33,0,0,0-.35.56Z"/><path class="cls-9" d="M616.3,148.72c3.29,2.27,3.38,3.66,4.39,3.56a.38.38,0,0,0,.3-.22c.29-.88-.89-1.69-1.47-2.21a10.17,10.17,0,0,0-2.86-1.73c-.35-.15-.71.36-.36.6Z"/><path class="cls-9" d="M618.07,146c1.17.83,2.45,1.48,3.55,2.39a.72.72,0,0,0,.91-1.12,7.86,7.86,0,0,0-4.15-2c-.36,0-.65.45-.31.69Z"/><path class="cls-9" d="M621.7,144.14a.61.61,0,0,0,.68.2h0a.35.35,0,0,0,.28-.2l0,0a.61.61,0,0,0-.09-.82,2.82,2.82,0,0,0-2.44-.66c-.35.07-.43.65,0,.68A2.55,2.55,0,0,1,621.7,144.14Z"/><path class="cls-10" d="M617.48,165.21a9.78,9.78,0,0,0,2.51,4.14,15.66,15.66,0,0,0,11.66,4.23c11.34-.3,26.51-13.54,16.74-19.29s-12.8,5.19-19.36,5.86c-2.94.3-5.77-.68-8.53.28A4.52,4.52,0,0,0,617.48,165.21Z"/><path class="cls-9" d="M625.19,163.12c-.5.6-.06,1.55,0,2.22s-.36,1.83.11,2.55a.38.38,0,0,0,.52.1c.83-.61.65-1.79.56-2.62s-.11-2-1.05-2.27a.13.13,0,0,0-.12,0Z"/><path class="cls-9" d="M628.68,162.63a26.54,26.54,0,0,0,.49,3.3c.14,1.08-.08,2.28.42,3.29a.43.43,0,0,0,.7,0c.55-1,.27-2.22.13-3.25a7.57,7.57,0,0,0-1.12-3.41c-.14-.2-.62-.21-.62.08Z"/><path class="cls-9" d="M632.88,161.66c1.47,5,1,6.14,1.92,7.24.57.65,2.37,0-1.31-7.39-.13-.27-.7-.14-.61.15Z"/><path class="cls-9" d="M636.21,160.16c-.2,1.08.88,2.46,1.41,3.42a17.64,17.64,0,0,0,2.22,3.52c.31.35,1,.07.93-.34a17.5,17.5,0,0,0-1.75-3.69c-.54-1-1.09-2.53-2.21-3.13a.41.41,0,0,0-.6.22Z"/><path class="cls-9" d="M639.54,157.84c1.4,1.84,2.59,3.81,4.06,5.6.65.78,2,0,1.64-.82a12.22,12.22,0,0,0-5.23-5.18c-.34-.19-.66.15-.47.4Z"/><path class="cls-9" d="M643.18,156.44c.56.79,1.71,2.61,2.85,2.58.41,0,.79-.19.83-.56.1-1-2.1-2-3-2.49-.36-.19-1,.11-.71.47Z"/><path class="cls-17" d="M475.2,149.65a33.6,33.6,0,0,1-10.55,2.55,21.26,21.26,0,0,1-19-9c-4.36-6-5.8-13.71-3.58-19.14,2.61-6.36,9.86-9.72,15.68-9.75a14,14,0,0,1,5.58,1.07,14,14,0,0,1,7.13-7.24c4.1-1.72,9.78-1.09,14.47,1.59a18,18,0,0,1,9,13.46c.74,5.49-1.2,11.41-5.47,16.66A34.16,34.16,0,0,1,475.2,149.65Zm-21.57-27a8.45,8.45,0,0,0-4.67,4.23c-1,2.54-.44,7.6,2.72,12a13.83,13.83,0,0,0,12.44,6,27.14,27.14,0,0,0,18.55-9.64c3-3.64,4.33-7.54,3.87-11a10.47,10.47,0,0,0-5.31-8c-2.94-1.69-6.26-1.88-7.89-1.19a6.93,6.93,0,0,0-3.67,4.85,3.19,3.19,0,0,0,.33,2.62,3.71,3.71,0,0,1-.08,5.26,3.61,3.61,0,0,1-1.48.89,17.47,17.47,0,0,1-.9,1.61,3.72,3.72,0,1,1-6.31-4c.93-1.48,1-2.24.9-2.39-.79-1.87-3.06-2.14-4.35-2.13A11.27,11.27,0,0,0,453.63,122.62Z"/><path class="cls-9" d="M490.51,121.28a32.18,32.18,0,0,1-4,2.44c0,.15,0,.29.07.44.46,3.43-.91,7.32-3.86,11a31,31,0,0,0,5.22-1.7,39.71,39.71,0,0,0,5.46-2.81,18.52,18.52,0,0,0,.56-7.44,20.8,20.8,0,0,0-.48-2.4A3.37,3.37,0,0,0,490.51,121.28Z"/><path class="cls-9" d="M458,143.87a14.7,14.7,0,0,1-6.34-5.07c-.25-.34-.48-.69-.69-1-2.22,1.9-4.36,3.52-5.89,4.61.18.27.36.54.55.8a22.46,22.46,0,0,0,6.14,5.83C453.5,147.72,455.73,145.94,458,143.87Z"/><path class="cls-17" d="M486.8,129.53c-6.44,2.7-15.72,4.72-22.14-1.9a3.72,3.72,0,0,1,5.34-5.18c6.09,6.27,19.82-2.91,19.95-3a3.72,3.72,0,1,1,4.23,6.13A43.85,43.85,0,0,1,486.8,129.53Z"/><path class="cls-17" d="M448.63,146.65a3.72,3.72,0,0,1-3.4-6.59h0c3.35-2.09,12.76-8.64,16-13.81a3.72,3.72,0,0,1,6.31,4c-4.82,7.69-17.83,15.83-18.38,16.17A2.65,2.65,0,0,1,448.63,146.65Z"/><path class="cls-11" d="M139.11,173.73a5.69,5.69,0,0,0,2.12,6c3.2,2.24,11.22-3.6,13.92-4.82s3.72-.25,3.72-.25-6.1-12.38-15.53-10.46C137.72,165.38,137.44,169.43,139.11,173.73Z"/><path class="cls-5" d="M151.9,174.5a12.32,12.32,0,0,1-4.14-1.34,83.33,83.33,0,0,1,8.86.57c-1.46-.34-3.35-.7-5.38-1,.16-1.25,2.6-1.68,2.62-1.69a.13.13,0,1,0,0-.25c-.11,0-2.65.47-2.83,1.9-.92-.12-1.87-.22-2.81-.3.3-2.23,3.7-3.35,3.73-3.36a.13.13,0,1,0-.07-.25c-.16.05-3.62,1.19-3.92,3.59-1-.07-2-.12-3-.13,0-2.85,4-4.91,4-4.93a.13.13,0,0,0-.12-.23c-.17.09-4.14,2.16-4.13,5.16a24.33,24.33,0,0,0-3.41.22c-.42-2.87,2.61-5.57,2.64-5.6a.13.13,0,1,0-.17-.19c-.14.12-3.18,2.83-2.73,5.83a11.87,11.87,0,0,0-1.27.26c-4.41,1.22-5.43-1.91-5.69-2.22a.51.51,0,0,0-.62-.27c-1.06.33.54,2.55,1.73,3.32,2,1.25,3.64.67,5.77.17a6.35,6.35,0,0,0,4.28,3.7h0a.12.12,0,0,0,.12-.11.13.13,0,0,0-.1-.15,6,6,0,0,1-4.08-3.5,17.22,17.22,0,0,1,2.56-.39c1,1.86,4.61,2.41,4.77,2.44h0a.14.14,0,0,0,.13-.11.13.13,0,0,0-.11-.15S145,175,144,173.31c1.08-.09,2.21-.14,3.35-.14.92,1,4.32,1.55,4.47,1.58a.13.13,0,0,0,.15-.11A.12.12,0,0,0,151.9,174.5Z"/><path class="cls-15" d="M96.84,169.71s-16.08-3.59-21.56,11.47-2.56,28.73,7.36,31,12-5.48,22.58-6.33,18.13-20.36,9.58-28.91S96.84,169.71,96.84,169.71Z"/><path class="cls-10" d="M103.51,190.94a11.12,11.12,0,1,1-11.12-11.12A11.12,11.12,0,0,1,103.51,190.94Z"/><path class="cls-17" d="M92.39,179.82a11.52,11.52,0,0,0-1.45.09,11.12,11.12,0,0,1,0,22.05,9.9,9.9,0,0,0,1.45.1,11.12,11.12,0,0,0,0-22.24Z"/><path class="cls-17" d="M108.06,238.93a5.6,5.6,0,0,1,.25-6.39c3.48-4.86,11.32-7,18.25-8,23.63-3.42,51.84,9.75,53.65,24.63s-14.55,27.55-27.67,27.55-25.16-17.45-27.33-21.39c-2-3.66-6-6-9.59-8.8C112.87,244.38,109.59,241.77,108.06,238.93Z"/><path class="cls-9" d="M180.21,249.17c-1.81-14.88-30-28-53.65-24.63-6.93,1-14.77,3.14-18.25,8a.44.44,0,0,0-.08.11,47,47,0,0,1,11.1-2.83c23.64-3.42,51.85,9.75,53.66,24.63.86,7.14-2.44,13.76-7.56,18.72C174.27,268.39,181.44,259.3,180.21,249.17Z"/><path class="cls-12" d="M159.85,258.16c0,3.87-4.3,7-9.6,7s-9.59-3.14-9.59-7,4.29-7,9.59-7S159.85,254.28,159.85,258.16Z"/><path class="cls-9" d="M156.1,258.16c0,2.36-2.62,4.27-5.85,4.27s-5.84-1.91-5.84-4.27,2.62-4.28,5.84-4.28S156.1,255.8,156.1,258.16Z"/><path class="cls-12" d="M159.09,264.29a2.28,2.28,0,1,1-2.24-1.86A2.08,2.08,0,0,1,159.09,264.29Z"/><path class="cls-12" d="M138.26,235.23s-15.21,3.17-16.85,11.46C121.41,246.69,129.72,237.54,138.26,235.23Z"/><path class="cls-12" d="M147.08,238.31s-20.91,5.78-18.88,15C128.2,253.28,136,242.42,147.08,238.31Z"/><path class="cls-17" d="M66.34,260.29s9-9-2.23-13.1-13.88,6.59-13.88,6.59-17.73-10.42-20.45,5.55S40,271.28,40,271.28s-8,14.79,4.66,14.79S56.43,276,56.43,276s12.38,11.1,17.67-1.34S66.34,260.29,66.34,260.29Zm3.36,12.63C65.48,282.84,55.61,274,55.61,274s.68,8.05-9.38,8.05-3.72-11.8-3.72-11.8-10.32,3.22-8.15-9.52,16.3-4.43,16.3-4.43,2.15-8.57,11.07-5.26,1.78,10.44,1.78,10.44S73.93,263,69.7,272.92Z"/><path class="cls-5" d="M185,177.28S182,163.19,174,164.5s-5.88,7.5-3.34,7.5,1.86-4.49,6.05-3.11,6.62,8.39,6.62,8.39Z"/><path class="cls-8" d="M176,182.85s-6.59-2-10.44,4,.81,19.57,11.15,28,17.13,12.27,20,10.95,2.33-3.14,2.33-3.14,9.93,4.36,10.64-5.17c0,0,7.4,4.46,8.52-5.68s-5.78-44.6-19-42.78a8.2,8.2,0,0,0-8,6.69S178.13,168.36,176,182.85Z"/><path class="cls-10" d="M174.17,186.1c-1.68-1.14-6.61-1.42-5.84,5.67s22.27,31.32,25.92,30.31S182.72,191.85,174.17,186.1Z"/><path class="cls-10" d="M188.54,179.1c-1.37-1.44-6.36-3.65-7.78,1.62s20,43.08,23.12,38.93S196,187,188.54,179.1Z"/><path class="cls-10" d="M202.56,174.24c-1-1.3-4.62-3.14-6.59-.82-4.26,5,13.38,45.82,15.91,41.36S209.08,182.34,202.56,174.24Z"/><path class="cls-5" d="M115.32,278.65s-1.2,3.25-16.26,8.55c-16.78,5.91-24.63,7-29.59,23.1a116,116,0,0,1,16.25-2.57C101.76,306.45,113.65,292.89,115.32,278.65Z"/><path class="cls-5" d="M115.32,278.43s1.5,2.23,3.67,16c3.51,22.33-12.57,31.22-24.37,26.94,0,0,12.74-6.58,14.72-16.93C111.11,295.19,115.32,278.43,115.32,278.43Z"/><path class="cls-12" d="M99.41,296.44a5.22,5.22,0,1,1-5.22-5.22A5.22,5.22,0,0,1,99.41,296.44Z"/><path class="cls-12" d="M89.48,300.29a3.59,3.59,0,1,1-3.59-3.59A3.59,3.59,0,0,1,89.48,300.29Z"/><path class="cls-12" d="M82.19,303.37a3.59,3.59,0,1,1-3.59-3.6A3.59,3.59,0,0,1,82.19,303.37Z"/><circle class="cls-12" cx="103" cy="291.82" r="3.59"/><path class="cls-11" d="M95.73,291.82c7.29-1.07,15.15-8.52,18.24-11.72-1.78,1.44-5.81,3.9-14.91,7.1-16.78,5.91-24.63,7-29.59,23.1C69.47,310.3,86.4,293.19,95.73,291.82Z"/><path class="cls-11" d="M115.21,279.43c-1.68,6.84-23.74,21.72-31.55,23.67a39,39,0,0,0-14.19,7.2,116,116,0,0,1,16.25-2.57C101.47,306.47,113.21,293.38,115.21,279.43Z"/><path class="cls-7" d="M115.29,278.35s-6-.17-4.75,1.66,3.65-.1,3.65-.1-1.9,1.09-1.62,2.65,2,.83,2.44,0a3,3,0,0,0,.28-1.65s0,2.35,1.14,2.57,0-2.82,0-2.82.93,1.3,1.51.72S115.29,278.35,115.29,278.35Z"/><path class="cls-7" d="M115,279.59a9.9,9.9,0,0,0,.64-3.85c0-3.51-.87-4.3,0-4.48a.51.51,0,0,1,.6.41C116.42,272.28,116.51,277.06,115,279.59Z"/><path class="cls-11" d="M111,313a6.22,6.22,0,0,1-.84,4.5c-1.51,2.1-5.55,2.31-7.2,1.18a6.28,6.28,0,0,0,3,.27c3.06-.44,4-1.43,4.55-3A9.33,9.33,0,0,0,111,313Z"/><path class="cls-11" d="M114.63,302.34A5.93,5.93,0,0,1,111,313C116.55,311.78,118,306.22,114.63,302.34Z"/><path class="cls-11" d="M115.32,292.46a6,6,0,0,1,3,5.64,4.35,4.35,0,0,1-.13.8,5.11,5.11,0,0,1-3.6,3.44C119.13,299.84,118.57,295.4,115.32,292.46Z"/><path class="cls-7" d="M461.28,158.19c-2.21-.95-5.1.83-6.45,4s-.66,6.47,1.55,7.42,5.09-.83,6.45-4S463.49,159.14,461.28,158.19Zm-.69,1.61c1.18.51,1.89,1.52,1.57,2.24s-1.52.91-2.71.4-1.89-1.51-1.58-2.24S459.4,159.29,460.59,159.8Zm-3.29,7.65c-1.68-.72-2.64-2.21-2.16-3.34s2.23-1.45,3.91-.73,2.63,2.21,2.15,3.34S459,168.17,457.3,167.45Z"/><path class="cls-18" d="M446.81,166.9a15,15,0,0,0-3.76,5.24l-17.94,41.71a5,5,0,0,0,2.64,6.55l23.86,10.26a5,5,0,0,0,6.57-2.58l17.95-41.72a15.05,15.05,0,0,0,1.21-6.32Z"/><path class="cls-18" d="M446.81,166.9a15,15,0,0,0-3.76,5.24l-17.94,41.71a5,5,0,0,0,2.64,6.55l23.86,10.26a5,5,0,0,0,6.57-2.58l17.95-41.72a15.05,15.05,0,0,0,1.21-6.32Z"/><path class="cls-8" d="M476.13,186.36l-17.95,41.72a5,5,0,0,1-6.57,2.58L427.76,220.4a5,5,0,0,1-2.65-6.54l17.95-41.72a14.77,14.77,0,0,1,3.75-5.23L477.34,180A15.05,15.05,0,0,1,476.13,186.36Z"/><path class="cls-10" d="M431.43,216.58l17.95-41.72a15.15,15.15,0,0,1,3.75-5.24l-6.32-2.72a15,15,0,0,0-3.76,5.24l-17.94,41.71a5,5,0,0,0,2.64,6.55l6.33,2.72A5,5,0,0,1,431.43,216.58Z"/><path class="cls-16" d="M476.13,186.36l-17.95,41.72a5,5,0,0,1-6.57,2.58l-9.75-4.19a5,5,0,0,0,6.62-2.56l17.95-41.72a15.05,15.05,0,0,0,1.19-6.33l9.72,4.18A15.05,15.05,0,0,1,476.13,186.36Z"/><path class="cls-6" d="M477.34,180,446.81,166.9h0a2.64,2.64,0,0,1,3.48-1.36l25.65,11a2.64,2.64,0,0,1,1.4,3.47Z"/><rect class="cls-6" x="441.25" y="197.32" width="5.64" height="36" transform="translate(70.8 538.17) rotate(-66.72)"/><rect class="cls-19" x="447.31" y="265.59" width="18.82" height="42.75" transform="translate(-80.21 338.46) rotate(-37.62)"/><polygon class="cls-6" points="448.5 257.5 447.02 257.59 446.88 258.4 445.89 258.46 445.75 259.27 444.76 259.33 444.62 260.14 443.63 260.2 443.49 261.02 442.5 261.07 442.36 261.89 441.38 261.95 441.23 262.76 440.25 262.82 440.1 263.63 439.12 263.69 438.97 264.5 437.99 264.56 437.84 265.37 436.86 265.43 436.71 266.24 435.73 266.3 435.58 267.11 434.6 267.17 434.45 267.98 433.46 268.04 433.32 268.85 432.34 268.91 432.19 269.72 431.21 269.78 431.06 270.6 430.08 270.65 429.84 271.97 429.78 272.01 429.83 272.02 429.82 272.06 429.94 272.05 434.26 273.23 436.22 275.78 451.13 264.29 449.17 261.74 448.54 257.55 448.48 257.6 448.5 257.5"/><polygon class="cls-6" points="483.06 302.34 479.06 300.54 477.23 298.15 462.32 309.64 464.16 312.03 464.29 316.63 464.26 316.75 464.3 316.75 464.3 316.8 464.35 316.75 465.71 316.89 466 315.94 466.84 316.02 467.13 315.06 467.97 315.15 468.26 314.19 469.1 314.28 469.39 313.32 470.23 313.41 470.52 312.45 471.36 312.54 471.65 311.58 472.49 311.66 472.78 310.71 473.62 310.79 473.91 309.84 474.75 309.92 475.04 308.97 475.88 309.05 476.17 308.1 477.01 308.18 477.3 307.23 478.14 307.31 478.43 306.36 479.27 306.44 479.56 305.49 480.4 305.57 480.69 304.61 481.53 304.7 481.82 303.74 482.66 303.83 483.1 302.39 483 302.38 483.06 302.34"/><rect class="cls-12" x="451.26" y="270.33" width="10.87" height="33.19" transform="translate(-80.19 338.45) rotate(-37.62)"/><polygon class="cls-7" points="436.22 275.78 442.26 277.1 450.86 270.46 451.13 264.29 436.22 275.78"/><polygon class="cls-7" points="462.32 309.64 462.52 303.39 471.13 296.75 477.23 298.15 462.32 309.64"/><path class="cls-8" d="M389.51,63.31c.94-3.7,2.05-7.37,5.93-9,3.36-1.37,7.36.06,9.57,2.82,6.41,8-6.5,22.72-14.36,29.4-2.22,1.89-5.38,3.39-6.52,6.14l.71-1.21-1,1.17c-1.47,1.66-.09,4.58,2.26,3.89,3-.9,3.16-.6,8.28-4.79a68.49,68.49,0,0,0,6.74-6.34c4.25-4.58,8.24-9.77,10.56-15.62,5.87-14.75-7.12-25.43-17.84-21.57-5.69,2.05-11.34,8.71-9.42,15.08.73,2.45,4.45,2.61,5.11,0Z"/><path class="cls-8" d="M385.64,114.24c4.1,0,4.11-6.38,0-6.38s-4.12,6.38,0,6.38Z"/><path class="cls-8" d="M345.31,28.81c-2.42-6.5-.65-14.78,5.3-18.81s14.11-2.69,18.93,2.24c6.25,6.39,5.19,17.85,2.66,25.64a36,36,0,0,1-6.45,11.79c-3.15,3.76-7,6.88-10.56,10.18-7.45,6.82-15.93,17.7-10.85,28.27,1.3,2.68,5.06.69,4.55-1.92-3.09-16,15.58-23.36,24.26-36.4a43,43,0,0,0,6-14c2.21-9.69,1.72-22.15-6.43-29.06C366,1,355.48-.53,347.86,4.45c-8.46,5.52-12.1,17.3-7.32,26.37,1.35,2.57,5.81.79,4.77-2Z"/><path class="cls-8" d="M357.81,104.35a5.7,5.7,0,1,1-5.7-5.7A5.7,5.7,0,0,1,357.81,104.35Z"/><path class="cls-8" d="M512.09,309.67c-2,3-5,4.51-6.57,3.42s-1.29-4.39.73-7.37,5-4.52,6.57-3.43S514.11,306.68,512.09,309.67Z"/><path class="cls-10" d="M545.57,318.37a5.52,5.52,0,1,1-5.52-5.52A5.52,5.52,0,0,1,545.57,318.37Z"/><path class="cls-11" d="M574.73,311.12a5.52,5.52,0,1,1-5.52-5.53A5.52,5.52,0,0,1,574.73,311.12Z"/><path class="cls-7" d="M520.91,326.2c-1,1.44-4,1.13-6.67-.7s-4.11-4.48-3.13-5.92,4-1.13,6.66.7S521.88,324.76,520.91,326.2Z"/><path class="cls-11" d="M532.19,302.65a4.23,4.23,0,1,1-4.23-4.22A4.22,4.22,0,0,1,532.19,302.65Z"/><path class="cls-8" d="M507.68,260c0,1.35-2.52,2.45-5.62,2.45s-5.62-1.1-5.62-2.45,2.51-2.45,5.62-2.45S507.68,258.6,507.68,260Z"/><ellipse class="cls-10" cx="480.43" cy="237.85" rx="5.99" ry="2.75"/><path class="cls-20" d="M390.6,146.56c-7.5-12.06-20.72-21.11-35.39-21.13-26.45-.06-42.17,12.56-50.86,26.81-.28.45-.56.92-.85,1.38-20.05,33-31,56.37-66.33,70.83-82.8,33.92-64,125.14-12.5,158.43,81.7,52.81,133.54.72,161.7-62C430,223.79,395.91,155.11,390.6,146.56Z"/><path class="cls-8" d="M299.9,445.68s-19.71,33.4-27.41,63.38c-5.31,20.71-8,83.16-8,83.16H432.35s-18.73-124.88-53.92-140.87S299.9,445.68,299.9,445.68Z"/><path class="cls-10" d="M398.5,273.37c-24.37-2.28-90.39,3.69-120.33,8.53-4.28.69,20.75,149.23,13.91,175.35l-13.94,28.54s83.94,18,126.13-4.78l-23.58-36C384.89,425.78,417.19,275.13,398.5,273.37Z"/><path class="cls-21" d="M319,234.82s-3.64,88.65,17.42,90.47,21.56-52.2,21.83-58.83l1.46-36.12Z"/><path class="cls-22" d="M318.76,253.67c13.44,15.73,32.94,13.29,39.86,3l1.07-26.35L319,234.82S318.66,242.64,318.76,253.67Z"/><path class="cls-21" d="M400.17,466.21c10.4-3.36,48.67-180.56-4.41-193,0,0,1.22,3.9-.61,36.54-2.14,38.07-13.38,121.93-13.38,121.93s-47.89-11.93-85.61-7.69l-31.67,18.43L259.66,463s11.47,11.46,13.86,11.46-3.94-10.1-3.94-10.1,5.91,5.91,7.36,4.45-2.66-9.41-2.66-9.41l22.85-12.14S389.77,469.57,400.17,466.21Z"/><path class="cls-17" d="M395.69,273.16s-1.56.35-1.95,36.58c-.21,19.49-3.28,50.92-6.34,77a226.39,226.39,0,0,1,39.81,1.59C436,333.91,431.1,274.34,395.69,273.16Z"/><path class="cls-23" d="M251.45,319.66c-.45,37,4.11,93.21,27.71,125.09,6.17,8.33,18-15.54,18-15.54s-9.13-148.85-19-147.3C269.08,283.32,251.82,289.23,251.45,319.66Z"/><path class="cls-17" d="M294.77,395.59c-3.34-43.81-9.81-114.75-16.64-113.68-9.05,1.41-29.64,7.32-30,37.75-.3,24.42,1.62,58.55,9.75,87.23,7.36-4.23,18.28-9.42,26.94-10A78.62,78.62,0,0,0,294.77,395.59Z"/><path class="cls-23" d="M320.63,243.69a55.54,55.54,0,0,0-1.89,7.61c-.77,4.36.94,8.64-2.39,12.91s8.88,29.86,8.88,29.86,2.58-9.41,1.47-17.54.3-28.18,2-29.85S320.63,243.69,320.63,243.69Z"/><path class="cls-24" d="M308.91,225.35l-9,9.76-6.39,8.81s1.54,16,.69,18.81-.43,4.79.59,8.47,7.7,21.81,8.13,28.74c0,0-12.27,38-15.1,44.69s-15.05,53-17.57,65.31c-1.69,8.24,5.46,35.78,13.36,39.2,7.71,3.33,16.85,4.45,24.36-39.2,1.89-11,14.62-97.25,14.62-100.85s3.58-7.53,3.85-15c.32-8.84-8.47-18.85-8.47-18.85l5.78-9.36,5.13-.65s5.58,5.59,7.18,4-2.95-6.8-2.95-6.8,1.8,2.14,3.3.64-6.89-11-6.89-11l-12.7-5.9-2.57.38-11,10.27-.58-12.06,4.62-8.6S315.88,227.07,308.91,225.35Z"/><path class="cls-25" d="M332.09,261.88c-.41-.17-.81-.36-1.2-.55s-.79-.38-1.18-.57-.78-.4-1.16-.6-.78-.4-1.16-.62l.25.07c-.78.05-1.57.09-2.35.11s-1.57,0-2.35,0l.39-.14q-2.47,2-5.06,3.95c-.87.63-1.74,1.26-2.63,1.86s-1.78,1.19-2.71,1.74c.73-.79,1.51-1.54,2.28-2.28s1.58-1.45,2.38-2.16q2.43-2.12,5-4.09l.18-.14h.22l2.35.05c.78,0,1.57.06,2.35.11h.16l.09.06c.36.24.71.49,1.07.75l1.06.77c.34.27.7.52,1,.79S331.75,261.59,332.09,261.88Z"/><path class="cls-25" d="M332.09,260.42c-.39-.45-.77-.91-1.14-1.37l-1.11-1.39-1.07-1.42-1-1.43.28.21c-.72-.19-1.43-.4-2.14-.6s-1.42-.41-2.13-.62c-1.42-.43-2.83-.87-4.23-1.34l.54-.09-2.14,1.42-2.16,1.39c-.73.44-1.45.9-2.19,1.33s-1.49.86-2.25,1.26q1-.87,1.95-1.68c.65-.56,1.33-1.08,2-1.62l2-1.57,2.06-1.53.23-.18.31.09c1.42.42,2.83.86,4.24,1.31l2.1.7,2.1.73.2.07.08.14.91,1.52.9,1.54.86,1.55C331.54,259.37,331.82,259.89,332.09,260.42Z"/><path class="cls-21" d="M311.27,159s-5.55,12.48-5.55,38.48S312,238.38,324.09,247s26.12,4.81,32.93,0c12.3-8.67,24.27-40.9,20.8-63.78S364,115.33,311.27,159Z"/><path class="cls-20" d="M329.64,132.83c-1.21,0-17.16,6.24-24.78,22.53s0,38.48,0,38.48,5.79-14.56,10.69-15.77,23.62,4.85,31.07-2.6,16.64-22.88,16.64-22.88-1.82,19.67-7.45,25.3,17,8.84,22.44,1.91,8.06,21.66,8.06,21.66,2.78-36.74-14.73-55.63S329.64,132.83,329.64,132.83Z"/><path class="cls-5" d="M252.47,89.47s14.73,12.94,6.48,29.87-36,32.29-41.06,31.85c-4.1-.35-6.85-2.73-9.54-5.62-2.33-2.49-.27-1.82,4.12-13.24s8-10.11,10.5-22.71S242.22,81.09,252.47,89.47Z"/><path class="cls-11" d="M217.5,145.28a9.69,9.69,0,0,1-7.39,1h0c-3.3-.84-6-3.74-1.66-15.16s7.07-12.16,9.55-24.75,24.17-25.52,34.42-17.15a9,9,0,0,1,1.33,1.52,26.75,26.75,0,0,1-1.44,23C245.85,126,230.23,137.84,217.5,145.28Z"/><path class="cls-12" d="M253.19,95.22a8.35,8.35,0,0,0-6.62-6.39c-10-1.79-24.9,8.24-26.8,17.86a51.05,51.05,0,0,1-5.44,15.73c-2.14,4.24-11.48,20.8-2.9,22.79,4.63,1.07,10.07-4.47,13.56-6.85s6.75-4.81,9.92-7.47,7.31-5.73,9.53-9.24C246,119.14,256.44,109.35,253.19,95.22Z"/><path class="cls-9" d="M225.71,106.81c-4.38,7.11-4,15.34.93,18.36s12.4-.29,16.78-7.41,4-15.34-.94-18.36S230.08,99.69,225.71,106.81Z"/><path class="cls-5" d="M238.42,180.91c-1.39,5.14-7.4,7.73-13.42,5.78s-9.78-7.72-8.39-12.86,7.4-7.74,13.42-5.78S239.81,175.76,238.42,180.91Z"/><path class="cls-11" d="M237.37,179.81a2.55,2.55,0,1,1-2.54-2.79A2.67,2.67,0,0,1,237.37,179.81Z"/><path class="cls-11" d="M260.53,155.12s2.54,4.92,7.92,4.21,7.84-14.26,9.38-18.05,3.5-3.77,3.5-3.77-18-7-25.68,3.86C251.1,147.85,254.72,152.27,260.53,155.12Z"/><path class="cls-5" d="M274.13,143.88c-1.09.73-3.9,2.39-5.45,2.52a112.37,112.37,0,0,1,9.46-7.76c-1.8,1-4,2.44-6.34,4.07-1-1.44,1-4.18,1-4.21.14-.18-.15-.4-.29-.22s-2.21,3-1,4.63c-1,.74-2.09,1.52-3.12,2.34-1.84-2.58.5-6.94.53-7a.19.19,0,0,0-.08-.25.17.17,0,0,0-.24.07c-.1.2-2.49,4.63-.49,7.38-1.08.86-2.13,1.75-3.11,2.66-2.74-2.93-.75-8.77-.73-8.83a.18.18,0,0,0-.34-.12c-.09.26-2.08,6.11.81,9.19a33.88,33.88,0,0,0-3.23,3.43c-3.17-2.55-2.72-8.17-2.72-8.23a.18.18,0,0,0-.16-.2.17.17,0,0,0-.19.16c0,.25-.48,5.9,2.85,8.55q-.57.75-1,1.47c-3.26,5.42-7.3,3.15-7.86,3.08a.7.7,0,0,0-.89.3c-.75,1.34,3,2.12,5,1.79,3.24-.64,4.29-2.74,6-5.26a8.73,8.73,0,0,0,7.86-.23l0,0a.18.18,0,0,0,0-.23.18.18,0,0,0-.24,0,8.43,8.43,0,0,1-7.48.24,25.29,25.29,0,0,1,2.19-2.81c2.8,1,7-1.86,7.16-2l0,0a.18.18,0,0,0,0-.23.19.19,0,0,0-.25-.05s-4.05,2.77-6.69,2c1-1.11,2.09-2.22,3.24-3.3,1.88.16,5.84-2.46,6-2.58a.18.18,0,0,0-.2-.3Z"/><path class="cls-17" d="M585.78,232.28c-4.47,3.79-7.39,9-11.26,13.38a25.93,25.93,0,0,1-3.31,3.15c-5.11,4-13.56,7.17-16.41,12.22,0,0-5.51,8,7.09,13.43s45.28-24.26,40.94-39.89c-.59-2.13-1.65-4.34-3.65-5.46-4.56-2.54-9.79.11-13.37,3.14Z"/><path class="cls-8" d="M562.61,282.24a6.28,6.28,0,0,1-7.56-8.27c.22-.57,5.4-14,22.88-21.51,12.67-5.44,18.44-17.88,19.13-22.72a6.27,6.27,0,0,1,12.41,1.76c-1.24,8.67-9.55,25.16-26.6,32.47-12.33,5.29-16,14.08-16.1,14.45A6.21,6.21,0,0,1,562.61,282.24Z"/><path class="cls-12" d="M559.71,273.64c-.21-1.53-.94-6,.79-6.95,1.14-.6,1.4,1.79,2.44,2.4,2.26,1.31,4.09-1.17,4.45-3.08.31-1.68-.26-4.2.66-5.65,2.4-3.75,3.21-.17,5.39.27,3,.6,3.38-2.65,3.89-4.71,1-4.15,3.07-1.89,3.78-1.65a3.4,3.4,0,0,0,3.07-.28c1.51-1,1.28-2.47,1.85-4,1.6-4.21,7.67-1,8.75-8.23.36-2.46-.3-1.34,1.34-2,1.15-.45,2.09-.31,2.94-1.43s.16-4.46.85-4.91a1.64,1.64,0,0,0-1.69-2.82,4,4,0,0,0-2.31,3.15c-.14,1.49.94,1.78-.5,2.85-.82.6-2.49-.59-3.61,3.17-.55,1.83-.59,3.34-2.43,4.24-1,.47-2.15.51-3.14,1-4.25,1.93-2.68,5.19-3.58,5.92s-1.16,0-2.08-.19c-2.87-.59-4.5.17-5.67,3.17-.28.75-.31,1.72-.66,2.43-.89,1.76-1.64.8-3,.59-1-.17-1.61-.64-2.71,0-3.21,1.75-2.3,9.24-3.88,9.69-1.28.36-2-2.19-3.09-2.58-3.53-1.28-6.78,4.84-4.9,10.06.55,1.5,3.28,1.41,3-.42Z"/><path class="cls-10" d="M598.57,239c-5,4.32-8.25,10.3-12.58,15.25a27.9,27.9,0,0,1-3.7,3.59c-5.71,4.56-15.18,8.12-18.35,13.89,0,0-6.14,9.17,8,15.43s50.74-27.5,45.75-45.43c-.68-2.43-1.88-5-4.14-6.27-5.14-2.94-11,.06-15,3.51Z"/><path class="cls-12" d="M559.29,594.23H143.76a2,2,0,0,1,0-4H559.29a2,2,0,0,1,0,4Z"/></g></g></svg>