<svg xmlns="http://www.w3.org/2000/svg" xmlns:xlink="http://www.w3.org/1999/xlink" viewBox="0 0 709.26 595.28"><defs><style>.cls-1{fill:none;}.cls-2{isolation:isolate;}.cls-3{clip-path:url(#clip-path);}.cls-4{fill:#a21c40;}.cls-5{fill:#83254e;}.cls-6{fill:#903d5d;}.cls-7{fill:#9e536e;}.cls-8{fill:#ad6981;}.cls-9{fill:#bd8096;}.cls-10{fill:#ce99ae;}.cls-11{fill:#e4b7cc;}.cls-12{fill:#913e5d;}.cls-13{fill:#9f546e;}.cls-14{fill:#ae6b82;}.cls-15{fill:#bf8298;}.cls-16{fill:#d09cb1;}.cls-17{fill:#e7bcd0;}.cls-18{fill:#eac3d5;}.cls-19{fill:#ecc9d9;}.cls-20{fill:#efcfdd;}.cls-21{fill:#f2d6e1;}.cls-22{fill:#f5dce5;}.cls-23{fill:#f9e3ea;}.cls-24,.cls-25,.cls-26{fill:#b15262;}.cls-24,.cls-86{mix-blend-mode:multiply;}.cls-25{mix-blend-mode:screen;}.cls-27{fill:#944c68;}.cls-28{fill:#9f5c75;}.cls-29{fill:#ab6b82;}.cls-30{fill:#b77c92;}.cls-31{fill:#c48da2;}.cls-32{fill:#d2a0b5;}.cls-33{fill:#e3b7cc;}.cls-34{fill:#e6bed0;}.cls-35{fill:#eac5d5;}.cls-36{fill:#edcdda;}.cls-37{fill:#f1d4df;}.cls-38{fill:#f4dbe4;}.cls-39{fill:#e7c2d2;}.cls-40{fill:#ebccd9;}.cls-41{fill:#efd7e0;}.cls-42{fill:#f3e2e7;}.cls-43{fill:#f8edef;}.cls-44{fill:#fff9f7;}.cls-45{fill:#ac6984;}.cls-46{fill:#b4748e;}.cls-47{fill:#bd8099;}.cls-48{fill:#c68ca4;}.cls-49{fill:#cf9ab0;}.cls-50{fill:#d9a8bd;}.cls-51,.cls-52,.cls-53,.cls-54,.cls-55,.cls-56,.cls-57,.cls-58,.cls-59,.cls-60,.cls-61,.cls-62{fill:#fefef6;}.cls-51{opacity:0;}.cls-52{opacity:0.09;}.cls-53{opacity:0.18;}.cls-54{opacity:0.27;}.cls-55{opacity:0.36;}.cls-56{opacity:0.45;}.cls-57{opacity:0.55;}.cls-58{opacity:0.64;}.cls-59{opacity:0.73;}.cls-60{opacity:0.82;}.cls-61{opacity:0.91;}.cls-63{fill:#fdf8ec;}.cls-64{fill:#fcf4e4;}.cls-65{fill:#fbf0dc;}.cls-66{fill:#fbecd4;}.cls-67{fill:#fae9cc;}.cls-68{fill:#f9e5c4;}.cls-69{fill:#f9e2bd;}.cls-70{fill:#f8dfb5;}.cls-71{fill:#f7dbae;}.cls-72{fill:#f7d8a6;}.cls-73{fill:#f6d59f;}.cls-74{fill:#f4d19e;}.cls-75{fill:#f2cc9d;}.cls-76{fill:#f0c89c;}.cls-77{fill:#eec49c;}.cls-78{fill:#ecc09b;}.cls-79{fill:#eabc9a;}.cls-80{fill:#e8b899;}.cls-81{fill:#e7b498;}.cls-82{fill:#e5b097;}.cls-83{fill:#e3ac96;}.cls-84{fill:#e1a895;}.cls-85{opacity:0.5;mix-blend-mode:overlay;fill:url(#linear-gradient);}.cls-86{opacity:0.8;fill:url(#linear-gradient-2);}.cls-87{fill:#cc536c;opacity:0.6;}</style><clipPath id="clip-path"><path class="cls-1" d="M611.2,395.05c-26,105.33-116.76,125.52-232.51,125-27.83-.12-37.12,23.48-98.43,11.25-18.67-3.73-40-28-59.62-40.21C144.17,443.38,74,355,98.13,272.93,125.66,179.16,225.81,129.28,333.5,125.3c28.85-1.07,48.8-31.9,71.31-46.12C423,67.7,443.21,55.72,464.46,58.7a274.13,274.13,0,0,0,4.6,61.6c.83,4.33-3.25,7.65-7.5,6.52a22.77,22.77,0,0,0-8.77-.58c-9.25,1.2,10.23,32.37,15.1,34.8C561.83,208,635.74,295.78,611.2,395.05Z"/></clipPath><linearGradient id="linear-gradient" x1="426.82" y1="67.89" x2="302.88" y2="523.94" gradientUnits="userSpaceOnUse"><stop offset="0" stop-color="#af5064"/><stop offset="0.83" stop-color="#faf9e1"/></linearGradient><linearGradient id="linear-gradient-2" x1="426.82" y1="67.89" x2="302.88" y2="523.94" gradientUnits="userSpaceOnUse"><stop offset="0" stop-color="#941a4e"/><stop offset="0.03" stop-color="#a13761"/><stop offset="0.11" stop-color="#bc7188"/><stop offset="0.18" stop-color="#d2a2a8"/><stop offset="0.25" stop-color="#e3c8c0"/><stop offset="0.31" stop-color="#f0e3d2"/><stop offset="0.37" stop-color="#f7f3dd"/><stop offset="0.41" stop-color="#faf9e1"/></linearGradient></defs><title>urun_sogan2</title><g class="cls-2"><g id="katman_1" data-name="katman 1"><g class="cls-3"><path class="cls-4" d="M611.2,395.05c-26,105.33-116.76,125.52-232.51,125-27.83-.12-37.12,23.48-98.43,11.25-18.67-3.73-40-28-59.62-40.21C144.17,443.38,74,355,98.13,272.93,125.66,179.16,225.81,129.28,333.5,125.3c28.85-1.07,48.8-31.9,71.31-46.12C423,67.7,443.21,55.72,464.46,58.7a272.55,272.55,0,0,0,7.22,73.8,23.11,23.11,0,0,0-18.89-6.26c-9.25,1.2,10.23,32.37,15.1,34.8C561.83,208,635.74,295.78,611.2,395.05Z"/><path class="cls-5" d="M612.26,390.5C586.62,494.13,496,513.73,380.35,512.81c-27.82-.23-37,23-98.33,10.75-18.66-3.73-40.07-27.71-59.69-39.83-76.59-47.23-147-134.55-123.17-215.27,15.13-51.34,54.71-90.41,102.8-113.88,26-12.67,54.16-21,82.76-25.85,33.89-5.73,60.42-2,90.52-20.09a151.45,151.45,0,0,1,29.34-13.59c2.88-1,5.88-1.87,8.9-1.54,4.25.46,7.84,3.28,10.74,6.35,8.33,8.84,12.92,20.33,18.53,31.05,13.52,25.83,39.71,34.76,63.12,50.13,24.4,16,46.93,35.11,65.53,57.46C607,281.24,625.79,335.8,612.26,390.5Z"/><path class="cls-6" d="M608.7,389.39C583.42,491.55,494.09,510.88,380.06,510c-27.43-.23-36.49,22.66-96.94,10.6-18.4-3.68-39.51-27.32-58.85-39.27C148.76,434.74,79.38,348.65,102.84,269.06c14.91-50.62,53.93-89.14,101.34-112.27,25.66-12.5,53.4-20.72,81.6-25.49,33.41-5.65,59.57-2,89.24-19.81A150.16,150.16,0,0,1,404,98.09c2.84-1,5.8-1.84,8.78-1.52,4.19.46,7.72,3.24,10.58,6.27,8.22,8.71,12.74,20,18.28,30.6,13.32,25.48,39.14,34.28,62.22,49.43,24.06,15.8,46.28,34.62,64.61,56.65C603.51,281.66,622.05,335.45,608.7,389.39Z"/><path class="cls-7" d="M605.15,388.27C580.22,489,492.18,508,379.77,507.13c-27-.22-36,22.33-95.55,10.45-18.15-3.63-39-26.94-58-38.71C151.78,433,83.39,348.12,106.51,269.67c14.7-49.9,53.16-87.87,99.9-110.67,25.29-12.33,52.63-20.43,80.43-25.13,32.93-5.57,58.72-2,88-19.53a147.67,147.67,0,0,1,28.52-13.2c2.79-.94,5.71-1.81,8.64-1.5,4.13.45,7.61,3.19,10.43,6.18,8.11,8.58,12.57,19.75,18,30.16,13.14,25.11,38.59,33.79,61.33,48.72,23.72,15.57,45.62,34.13,63.7,55.85C600,282.08,618.3,335.1,605.15,388.27Z"/><path class="cls-8" d="M601.59,387.15C577,486.4,490.26,505.17,379.48,504.28c-26.64-.2-35.44,22-94.16,10.31C267.43,511,246.94,488,228.14,476.43c-73.35-45.23-140.75-128.85-118-206.16,14.49-49.18,52.4-86.6,98.46-109.06,24.92-12.15,51.87-20.13,79.26-24.77,32.46-5.49,57.86-1.94,86.69-19.24a144.94,144.94,0,0,1,28.11-13c2.75-.92,5.62-1.78,8.52-1.47,4.07.44,7.5,3.14,10.27,6.08,8,8.46,12.39,19.47,17.76,29.73,12.95,24.75,38,33.3,60.45,48,23.37,15.34,45,33.63,62.77,55C596.54,282.51,614.56,334.75,601.59,387.15Z"/><path class="cls-9" d="M598,386c-24.2,97.79-109.69,116.29-218.84,115.41-26.25-.19-34.92,21.7-92.77,10.16-17.63-3.54-37.82-26.16-56.34-37.6C157.81,429.44,91.4,347.05,113.85,270.87c14.28-48.45,51.63-85.32,97-107.46,24.56-12,51.11-19.83,78.09-24.4,32-5.41,57-1.92,85.42-19a143.28,143.28,0,0,1,27.7-12.82c2.7-.92,5.54-1.76,8.39-1.45,4,.44,7.39,3.1,10.12,6,7.88,8.34,12.21,19.18,17.51,29.29,12.75,24.39,37.46,32.81,59.55,47.31,23,15.12,44.3,33.15,61.85,54.22C593.05,282.93,610.81,334.41,598,386Z"/><path class="cls-10" d="M594.47,384.91c-23.84,96.34-108,114.56-215.56,113.69-25.86-.19-34.4,21.37-91.4,10-17.36-3.49-37.25-25.77-55.49-37-71.19-43.9-136.61-125-114.5-200.1,14.07-47.73,50.86-84.05,95.57-105.85,24.19-11.8,50.34-19.54,76.92-24,31.51-5.33,56.17-1.89,84.15-18.68a140.75,140.75,0,0,1,27.28-12.63c2.66-.9,5.46-1.73,8.27-1.43,4,.44,7.27,3.06,10,5.91,7.75,8.21,12,18.9,17.24,28.85,12.57,24,36.91,32.32,58.66,46.6,22.7,14.9,43.65,32.66,60.94,53.42C589.57,283.35,607.06,334.06,594.47,384.91Z"/><path class="cls-11" d="M590.91,383.8c-23.48,94.87-106.4,112.82-212.29,112-25.47-.18-33.88,21-90,9.86-17.1-3.44-36.68-25.38-54.66-36.48C163.85,425.9,99.42,346,121.19,272.08c13.86-47,50.09-82.78,94.12-104.25,23.82-11.62,49.59-19.25,75.76-23.67,31-5.26,55.31-1.87,82.87-18.41a138.82,138.82,0,0,1,26.87-12.43c2.62-.89,5.38-1.71,8.14-1.41,3.9.43,7.17,3,9.82,5.82,7.64,8.08,11.84,18.61,17,28.41C448.13,169.8,472.1,178,493.52,192c22.36,14.67,43,32.16,60,52.6C586.09,283.77,603.32,333.71,590.91,383.8Z"/><path class="cls-5" d="M572.14,381.5C546.7,485.19,468.83,507.63,370.33,510.56c-23.69.71-32.33,24.05-84.13,13.92C270.42,521.4,253,498.33,236.72,487c-63.6-44.32-120.55-128.61-97.48-209.51C153.91,226,189,185.92,230.78,161.05a251.51,251.51,0,0,1,71.4-28.41c29.06-6.81,51.53-4,77.81-22.94a133.9,133.9,0,0,1,25.47-14.46c2.49-1,5.08-2,7.64-1.82,3.6.32,6.56,3,8.91,6,6.8,8.48,10.32,19.74,14.72,30.17,10.63,25.2,32.63,33.18,52,47.65A241.47,241.47,0,0,1,542.62,232C571.43,273.26,585.55,326.77,572.14,381.5Z"/><path class="cls-6" d="M569.15,380.51c-25.08,102.22-101.86,124.35-199,127.24-23.36.7-31.87,23.71-82.94,13.73-15.56-3-32.71-25.79-48.78-37-62.71-43.71-118.85-126.81-96.11-206.56,14.46-50.73,49.06-90.24,90.25-114.76a248,248,0,0,1,70.39-28c28.65-6.71,50.81-4,76.72-22.61a130.4,130.4,0,0,1,25.11-14.26c2.45-1,5-2,7.53-1.79,3.55.32,6.46,3,8.79,5.86,6.7,8.37,10.17,19.46,14.51,29.75,10.48,24.85,32.17,32.71,51.3,47A237.59,237.59,0,0,1,540,233.16C568.45,273.79,582.37,326.55,569.15,380.51Z"/><path class="cls-7" d="M566.16,379.53C541.43,480.28,465.76,502.09,370,505c-23,.69-31.41,23.36-81.75,13.53-15.34-3-32.25-25.43-48.09-36.47C178.38,438.93,123,357,145.46,278.4c14.26-50,48.35-88.95,89-113.12a244.52,244.52,0,0,1,69.38-27.61c28.25-6.62,50.09-3.9,75.63-22.29a129.59,129.59,0,0,1,24.74-14c2.42-1,4.94-2,7.43-1.77,3.5.31,6.37,2.9,8.66,5.78,6.61,8.24,10,19.18,14.31,29.33,10.33,24.48,31.71,32.24,50.57,46.3a234.44,234.44,0,0,1,52.32,53.3C565.47,274.33,579.2,326.33,566.16,379.53Z"/><path class="cls-8" d="M563.17,378.54c-24.37,99.29-98.95,120.78-193.29,123.6-22.68.68-30.95,23-80.56,13.34-15.12-3-31.78-25.07-47.39-36C181,437.08,126.48,356.36,148.57,278.88c14.05-49.28,47.65-87.66,87.67-111.49a241,241,0,0,1,68.38-27.2c27.83-6.52,49.36-3.85,74.52-22a128.14,128.14,0,0,1,24.39-13.85c2.38-1,4.87-2,7.32-1.74,3.45.3,6.28,2.86,8.54,5.69,6.51,8.13,9.88,18.91,14.1,28.91,10.17,24.13,31.24,31.77,49.83,45.63a231,231,0,0,1,51.57,52.53C562.49,274.87,576,326.12,563.17,378.54Z"/><path class="cls-9" d="M560.18,377.55c-24,97.82-97.49,119-190.45,121.78-22.34.67-30.49,22.68-79.37,13.15-14.9-2.92-31.32-24.71-46.7-35.43-60-41.82-113.75-121.36-92-197.69,13.84-48.55,46.95-86.38,86.38-109.85a237.16,237.16,0,0,1,67.37-26.8c27.43-6.43,48.64-3.8,73.43-21.66a125.91,125.91,0,0,1,24-13.63c2.34-1,4.79-1.94,7.21-1.72,3.4.3,6.18,2.82,8.42,5.6,6.41,8,9.72,18.63,13.88,28.49,10,23.78,30.79,31.3,49.1,45a227.28,227.28,0,0,1,50.81,51.75C559.5,275.4,572.84,325.9,560.18,377.55Z"/><path class="cls-10" d="M557.18,376.56c-23.65,96.36-96,117.23-187.59,120-22,.66-30,22.34-78.2,13-14.67-2.89-30.84-24.35-46-34.9-59.13-41.2-112-119.55-90.61-194.75C168.42,232,201,194.74,239.88,171.62a233.91,233.91,0,0,1,66.37-26.4c27-6.33,47.91-3.74,72.33-21.33a124.4,124.4,0,0,1,23.67-13.43c2.3-1,4.72-1.91,7.1-1.69,3.35.3,6.09,2.78,8.29,5.52,6.32,7.89,9.58,18.35,13.68,28.06,9.88,23.42,30.33,30.84,48.37,44.29a224,224,0,0,1,50.05,51C556.52,275.94,569.66,325.68,557.18,376.56Z"/><path class="cls-11" d="M554.19,375.57c-23.3,94.9-94.57,115.45-184.75,118.14-21.68.65-29.58,22-77,12.76-14.45-2.84-30.38-24-45.3-34.37C188.9,431.53,136.78,354.36,157.9,280.31c13.43-47.1,45.54-83.8,83.8-106.57a230.12,230.12,0,0,1,65.36-26c26.61-6.23,47.19-3.69,71.23-21a122.06,122.06,0,0,1,23.32-13.22c2.26-1,4.65-1.9,7-1.67,3.3.28,6,2.73,8.17,5.43,6.22,7.77,9.43,18.08,13.47,27.64,9.73,23.07,29.87,30.37,47.63,43.62a220.71,220.71,0,0,1,49.29,50.2C553.54,276.47,566.48,325.46,554.19,375.57Z"/><path class="cls-5" d="M585.55,381.65C558.28,485.33,474.84,507.78,369.24,510.71c-25.37.71-34.64,24.05-90.16,13.92-16.91-3.08-35.56-26.15-53-37.52C157.87,442.78,96.85,358.5,121.58,277.6c15.72-51.44,53.31-91.53,98.1-116.4a281.12,281.12,0,0,1,76.53-28.4c31.15-6.81,55.24-4,83.4-23a147.31,147.31,0,0,1,27.3-14.45c2.66-1.06,5.43-2.06,8.19-1.82,3.85.31,7,3,9.55,5.94,7.3,8.48,11.06,19.75,15.78,30.19,11.39,25.19,35,33.18,55.77,47.64,21.69,15.09,41.56,33.3,57.73,54.84C584.81,273.41,599.94,326.93,585.55,381.65Z"/><path class="cls-12" d="M582.63,381.41C555.56,485,473.12,507.54,368.83,510.6c-25.06.74-34.24,24.06-89.06,14-16.69-3.05-35.09-26.07-52.32-37.41C160.17,443,100,358.9,124.56,278.06c15.6-51.4,52.77-91.49,97-116.39a276.38,276.38,0,0,1,75.62-28.46c30.78-6.85,54.56-4.09,82.39-23a145.2,145.2,0,0,1,27-14.47c2.63-1.06,5.37-2,8.08-1.83,3.81.32,6.93,3,9.43,5.92,7.19,8.47,10.89,19.71,15.54,30.13,11.21,25.16,34.49,33.1,55,47.53,21.4,15,41,33.2,56.93,54.7C582.05,273.29,596.92,326.74,582.63,381.41Z"/><path class="cls-13" d="M579.71,381.17C552.83,484.69,471.4,507.3,368.43,510.48c-24.76.77-33.86,24.08-88,14.12-16.48-3-34.61-26-51.61-37.3-66.37-44.05-125.65-128-101.31-208.77,15.47-51.36,52.24-91.46,96-116.39a271.72,271.72,0,0,1,74.71-28.53c30.4-6.87,53.88-4.15,81.39-23.1A143.27,143.27,0,0,1,406.28,96c2.6-1.07,5.31-2.06,8-1.84,3.76.31,6.84,3,9.3,5.91,7.09,8.44,10.73,19.67,15.31,30.07,11,25.11,34,33,54.26,47.4,21.11,15,40.44,33.12,56.14,54.57C579.28,273.18,593.89,326.54,579.71,381.17Z"/><path class="cls-14" d="M576.79,380.93C550.11,484.37,469.68,507.05,368,510.37c-24.45.8-33.46,24.09-86.88,14.21-16.26-3-34.13-25.92-50.9-37.19C164.78,443.48,106.38,359.7,130.52,279c15.35-51.32,51.7-91.42,94.93-116.38A267.22,267.22,0,0,1,299.24,134c30-6.91,53.2-4.22,80.38-23.18A141.22,141.22,0,0,1,406,96.33c2.57-1.07,5.24-2.06,7.89-1.85,3.71.31,6.75,3,9.17,5.89,7,8.43,10.57,19.64,15.07,30,10.86,25.07,33.53,32.93,53.5,47.27,20.82,15,39.88,33,55.35,54.44C576.52,273.06,590.87,326.35,576.79,380.93Z"/><path class="cls-15" d="M573.87,380.69C547.38,484.05,468,506.81,367.61,510.26c-24.14.82-33.06,24.1-85.78,14.31-16.05-3-33.65-25.85-50.19-37.08-64.55-43.78-122.08-127.38-98.14-208,15.22-51.28,51.16-91.38,93.87-116.37a262.28,262.28,0,0,1,72.89-28.65c29.64-6.94,52.51-4.28,79.37-23.27a139.64,139.64,0,0,1,26-14.52c2.53-1.07,5.17-2.07,7.79-1.85,3.66.29,6.66,2.94,9.05,5.86,6.88,8.42,10.39,19.61,14.82,30,10.69,25,33.06,32.85,52.75,47.15,20.53,14.91,39.32,32.94,54.56,54.3C573.76,272.94,587.84,326.15,573.87,380.69Z"/><path class="cls-16" d="M571,380.45C544.66,483.73,466.25,506.57,367.2,510.14c-23.82.86-32.66,24.12-84.68,14.41-15.83-2.95-33.18-25.77-49.48-37-63.65-43.64-120.31-127.07-96.56-207.66,15.1-51.25,50.63-91.36,92.81-116.37a257.88,257.88,0,0,1,72-28.71c29.26-7,51.83-4.35,78.36-23.35A137.32,137.32,0,0,1,405.34,97c2.51-1.07,5.12-2.08,7.7-1.86,3.61.28,6.57,2.92,8.92,5.85,6.78,8.39,10.23,19.56,14.58,29.9,10.51,25,32.58,32.77,52,47,20.23,14.88,38.76,32.85,53.77,54.17C571,272.83,584.82,326,571,380.45Z"/><path class="cls-17" d="M568,380.22C541.94,483.41,464.53,506.33,366.79,510c-23.51.89-32.26,24.13-83.58,14.51-15.62-2.93-32.71-25.7-48.77-36.87-62.74-43.49-118.53-126.76-95-207.29,15-51.21,50.09-91.32,91.75-116.35a253.49,253.49,0,0,1,71.07-28.79c28.89-7,51.15-4.41,77.36-23.42A136.13,136.13,0,0,1,405,97.25c2.47-1.06,5.05-2.07,7.6-1.86,3.56.28,6.48,2.91,8.79,5.83,6.68,8.38,10.07,19.53,14.35,29.85C446.1,156,467.87,163.76,487,178a234.48,234.48,0,0,1,53,54C568.23,272.71,581.79,325.76,568,380.22Z"/><path class="cls-18" d="M566.09,378.32C541,480.88,464.47,504.11,367.83,508.42c-23.25,1-31.77,24.15-82.57,14.93-15.46-2.8-32.49-25.28-48.44-36.25-62.3-42.76-117.95-125-95.12-205,14.51-50.91,49-90.93,90.06-116a250.08,250.08,0,0,1,70.12-29c28.52-7.14,50.56-4.71,76.37-23.75a134.38,134.38,0,0,1,25-14.61c2.43-1.08,5-2.09,7.49-1.9,3.54.25,6.43,2.85,8.73,5.73,6.66,8.27,10.07,19.31,14.37,29.52,10.36,24.68,31.93,32.22,50.94,46.2a232,232,0,0,1,52.7,53.27C565.67,271.64,579.38,324.06,566.09,378.32Z"/><path class="cls-19" d="M564.16,376.43C540,478.36,464.41,501.9,368.87,506.81c-23,1.18-31.27,24.17-81.56,15.36C272,519.5,255,497.3,239.19,486.52c-61.85-42-117.36-123.24-95.26-202.8,14-50.61,47.93-90.54,88.38-115.72a247.29,247.29,0,0,1,69.16-29.25c28.17-7.27,50-5,75.38-24.06A133.72,133.72,0,0,1,401.52,100c2.4-1.08,4.91-2.11,7.4-1.93,3.5.23,6.37,2.78,8.67,5.62,6.63,8.17,10.07,19.09,14.38,29.2,10.39,24.42,31.76,31.76,50.64,45.5A229.31,229.31,0,0,1,535,230.91C563.12,270.57,577,322.35,564.16,376.43Z"/><path class="cls-20" d="M562.23,374.53C539,475.83,464.35,499.68,369.91,505.2c-22.71,1.32-30.77,24.19-80.55,15.78-15.15-2.54-32.06-24.45-47.79-35-61.41-41.26-116.79-121.47-95.41-200.55C159.75,235.08,193,195.24,232.87,170a244,244,0,0,1,68.2-29.49c27.81-7.4,49.39-5.31,74.39-24.38a131.12,131.12,0,0,1,24.31-14.71c2.36-1.09,4.84-2.13,7.3-2,3.46.2,6.32,2.72,8.6,5.52,6.61,8.05,10.08,18.87,14.4,28.87,10.42,24.15,31.59,31.29,50.34,44.8a227.24,227.24,0,0,1,52.15,51.73C560.56,269.5,574.57,320.65,562.23,374.53Z"/><path class="cls-21" d="M560.3,372.64c-22.25,100.66-96,124.83-189.35,131-22.44,1.46-30.27,24.22-79.54,16.21-15-2.42-31.85-24-47.46-34.44-61-40.51-116.21-119.7-95.55-198.31,13.13-50,45.78-89.75,85-115.08a241.28,241.28,0,0,1,67.25-29.72c27.45-7.54,48.79-5.6,73.4-24.69A130.1,130.1,0,0,1,398,102.79c2.34-1.09,4.77-2.14,7.21-2,3.42.18,6.26,2.66,8.54,5.42,6.58,7.94,10.08,18.65,14.41,28.54,10.45,23.89,31.42,30.83,50,44.1a224.52,224.52,0,0,1,51.87,51C558,268.43,572.16,318.94,560.3,372.64Z"/><path class="cls-22" d="M558.37,370.74C537.07,470.77,464.22,495.25,372,502c-22.17,1.6-29.78,24.23-78.53,16.63-14.84-2.29-31.63-23.63-47.14-33.83C185.8,445,130.7,366.84,150.63,288.72,163.3,239,195.34,199.36,234,174a238.22,238.22,0,0,1,66.3-30c27.08-7.67,48.2-5.9,72.41-25a128.41,128.41,0,0,1,23.58-14.81c2.3-1.11,4.7-2.16,7.11-2,3.38.15,6.2,2.59,8.47,5.31,6.56,7.84,10.08,18.43,14.43,28.22C436.75,159.3,457.53,166,476,179.07a222.25,222.25,0,0,1,51.6,50.19C555.45,267.36,569.75,317.24,558.37,370.74Z"/><path class="cls-23" d="M556.44,368.84C536.1,468.25,464.16,493,373,500.38c-21.91,1.74-29.28,24.25-77.52,17-14.68-2.16-31.42-23.21-46.81-33.22-60.08-39-115-116.18-95.84-193.82,12.22-49.39,43.63-89,81.66-114.45a235.11,235.11,0,0,1,65.35-30.18c26.72-7.81,47.61-6.21,71.42-25.34a128.12,128.12,0,0,1,23.21-14.86c2.27-1.11,4.64-2.18,7-2.07,3.35.13,6.14,2.53,8.41,5.21,6.53,7.73,10.08,18.21,14.44,27.89,10.51,23.36,31.09,29.89,49.44,42.7a219.34,219.34,0,0,1,51.32,49.42C552.89,266.29,567.34,315.53,556.44,368.84Z"/><path class="cls-24" d="M440.05,75.09c-3.06-1.13-7.78-.82-11.88-1s-8.65-1.91-6.31-3.29c14.76-.75,30,3.73,32.77,9.64,1,2.09.58,4.25,1.52,6.34s3.78,4.24,8.74,4.94c6.14-3.12-.49-7.61-6.93-10.63-4.19-2-8.37-3.92-12.54-5.89-1.85-.86-3.76-1.79-4.25-2.92s1.11-2.47,3.91-2.62a12.9,12.9,0,0,1,6.31,1.5c17.27,8.23,29.3,18.25,34.55,28.85a62.75,62.75,0,0,1-15.19.88c.15-2.76-4.9-5.42-11.53-6.09-2.08,2.67.26,5.8,5.65,7.57-6.24,2-14.09,3.76-21.89,3.06s-13.39-4.94-7.93-7.31c-4.72-1.41-11.26-.89-17.12-1.09s-12.72-2.18-10.5-4.39L386,91.2a63.33,63.33,0,0,0-8-.18c-10,.61-14.46,5.48-14.55,9.56-3.82-1.33-5.67-3.52-4.66-5.52,2.46-1.45,3.54-3.27,3-5,1.63,1,6.32-.19,4.87-1.21,4.07-.56,7.53-1.81,9.39-3.38a79.45,79.45,0,0,1,17.11,1.87A27.59,27.59,0,0,0,400,88.39c5.19-.08,8.38-2.89,13.57-2.8s6.9,2.72,8.1,4.73,6,4.39,10.28,3.26c5.34-.43,6.84-3.54,3.86-5.37s-8.45-2.71-13.58-3.45l-9.77-1.42A22.52,22.52,0,0,1,406.7,82c-4.32-2,2.21-5.41,8.8-5.14a24,24,0,0,1,14.28,5.05c3,2.4,5.07,5.08,9.9,6.9A35.09,35.09,0,0,1,445.12,91c4.06,2.58-1.43,6.37,2.76,8.91,10.33-3.12,7-10.94-5.35-12.46-2.18-1.57-3-3.45-2.29-5.23C441.21,79.72,444.61,76.76,440.05,75.09Z"/><path class="cls-25" d="M440.05,65.61c-3.06-1.73-7.78-1.24-11.88-1.57s-8.65-2.94-6.31-5.05c14.76-1.16,30,5.74,32.77,14.83,1,3.19.58,6.52,1.52,9.74a11.29,11.29,0,0,0,8.74,7.61c6.14-4.81-.49-11.7-6.93-16.36q-6.29-4.53-12.54-9c-1.85-1.33-3.76-2.75-4.25-4.49s1.11-3.81,3.91-4c2.53-.2,4.66,1.1,6.31,2.3,17.27,12.67,29.3,28.1,34.55,44.39a41.1,41.1,0,0,1-15.19,1.36c.15-4.25-4.9-8.35-11.53-9.38-2.08,4.11.26,8.93,5.65,11.64-6.24,3.11-14.09,5.78-21.89,4.73s-13.39-7.63-7.93-11.26c-4.72-2.17-11.26-1.37-17.12-1.65s-12.72-3.38-10.5-6.77L386,90.4a40.73,40.73,0,0,0-8-.28c-10,.95-14.46,8.44-14.55,14.71-3.82-2-5.67-5.42-4.66-8.48,2.46-2.24,3.54-5,3-7.73,1.63,1.51,6.32-.3,4.87-1.88,4.07-.84,7.53-2.77,9.39-5.18a53.39,53.39,0,0,1,17.11,2.87c2.16.76,4.37,1.71,6.86,1.64,5.19-.11,8.38-4.45,13.57-4.3s6.9,4.17,8.1,7.28,6,6.74,10.28,5c5.34-.66,6.84-5.44,3.86-8.27s-8.45-4.16-13.58-5.31l-9.77-2.18c-2.08-.46-4.28-1-5.73-2-4.32-3.13,2.21-8.31,8.8-7.91a19.79,19.79,0,0,1,14.28,7.78c3,3.68,5.07,7.78,9.9,10.6,1.84,1.08,4.08,1.93,5.44,3.27,4.06,4-1.43,9.8,2.76,13.71,10.33-4.8,7-16.84-5.35-19.18a8.64,8.64,0,0,1-2.29-8C441.21,72.75,444.61,68.19,440.05,65.61Z"/><path class="cls-26" d="M440.05,71.82c-3.06-1.73-7.78-1.25-11.88-1.57s-8.65-3-6.31-5c14.76-1.17,30,5.73,32.77,14.82,1,3.21.58,6.53,1.52,9.74a11.29,11.29,0,0,0,8.74,7.61C471,92.56,464.4,85.67,458,81c-4.19-3-8.37-6-12.54-9-1.85-1.34-3.76-2.76-4.25-4.49s1.11-3.82,3.91-4c2.53-.19,4.66,1.09,6.31,2.29,17.27,12.68,29.3,28.1,34.55,44.39a40.89,40.89,0,0,1-15.19,1.36c.15-4.25-4.9-8.35-11.53-9.37-2.08,4.1.26,8.93,5.65,11.64-6.24,3.1-14.09,5.77-21.89,4.72s-13.39-7.63-7.93-11.25c-4.72-2.18-11.26-1.38-17.12-1.66s-12.72-3.38-10.5-6.77L386,96.62a40.74,40.74,0,0,0-8-.3c-10,1-14.46,8.44-14.55,14.72-3.82-2.05-5.67-5.42-4.66-8.49,2.46-2.23,3.54-5,3-7.72,1.63,1.52,6.32-.29,4.87-1.88,4.07-.85,7.53-2.76,9.39-5.17a52.84,52.84,0,0,1,17.11,2.86c2.16.77,4.37,1.7,6.86,1.64,5.19-.12,8.38-4.46,13.57-4.31s6.9,4.19,8.1,7.28,6,6.76,10.28,5c5.34-.65,6.84-5.43,3.86-8.26s-8.45-4.16-13.58-5.3l-9.77-2.2a16,16,0,0,1-5.73-2c-4.32-3.11,2.21-8.3,8.8-7.9a19.78,19.78,0,0,1,14.28,7.77c3,3.68,5.07,7.79,9.9,10.6,1.84,1.08,4.08,1.94,5.44,3.27,4.06,4-1.43,9.8,2.76,13.71,10.33-4.8,7-16.83-5.35-19.17a8.66,8.66,0,0,1-2.29-8C441.21,79,444.61,74.39,440.05,71.82Z"/><path class="cls-27" d="M290.64,496.59s128,21.94,185.78-26.77,90.36-137,40.73-215.7c-29.64-47-53-109.79-92.3-149C404.73,85,385.38,96.62,364,109c-26.84,15.55-52.74,33-81.1,45.58C228.58,178.64,155.82,235.85,151,297.07,141.26,421.37,256.44,492.8,290.64,496.59Z"/><path class="cls-28" d="M291.19,496.65S417.91,518.48,475.12,470s89.46-136.34,40.32-214.65c-29.34-46.73-52.51-109.24-91.37-148.3C404.15,87,385,98.63,363.81,111c-26.58,15.47-52.21,32.81-80.3,45.34-53.76,24-125.8,80.89-130.56,141.81C143.29,421.8,257.33,492.88,291.19,496.65Z"/><path class="cls-29" d="M291.74,496.7s125.45,21.73,182.09-26.5,88.56-135.68,39.91-213.6c-29-46.49-52-108.7-90.46-147.57-19.72-19.93-38.68-8.39-59.65,3.87-26.31,15.4-51.69,32.65-79.49,45.12-53.23,23.85-124.54,80.5-129.25,141.12C145.33,422.22,258.22,493,291.74,496.7Z"/><path class="cls-30" d="M292.29,496.76s124.18,21.62,180.24-26.37,87.66-135,39.5-212.54C483.29,211.58,460.58,149.68,422.5,111c-19.52-19.83-38.3-8.34-59,3.86-26,15.31-51.17,32.49-78.69,44.89-52.69,23.73-123.28,80.1-127.94,140.42C147.36,422.65,259.11,493,292.29,496.76Z"/><path class="cls-31" d="M292.84,496.82s122.9,21.51,178.39-26.23,86.77-134.35,39.1-211.5c-28.45-46-50.93-107.63-88.62-146.12-19.32-19.73-37.9-8.3-58.43,3.84-25.79,15.24-50.65,32.33-77.89,44.67-52.14,23.61-122,79.71-126.62,139.72C149.4,423.07,260,493.11,292.84,496.82Z"/><path class="cls-32" d="M293.39,496.88s121.63,21.4,176.54-26.1S555.8,337.1,508.62,260.34c-28.14-45.81-50.39-107.1-87.69-145.4-19.12-19.63-37.51-8.26-57.83,3.83C337.58,133.93,313,150.93,286,163.21c-51.61,23.5-120.74,79.31-125.31,139C151.43,423.5,260.9,493.19,293.39,496.88Z"/><path class="cls-33" d="M293.94,496.94s120.36,21.29,174.69-26,85-133,38.29-209.39C479.07,216,457.06,155,420.15,116.91c-18.93-19.53-37.12-8.21-57.23,3.81-25.26,15.09-49.59,32-76.27,44.22-51.07,23.38-119.48,78.92-124,138.33C153.47,423.92,261.79,493.27,293.94,496.94Z"/><path class="cls-34" d="M294.82,494.93S413.15,516,466.56,469.21,550.1,337.5,504.21,261.86c-27.38-45.13-49-105.52-85.32-143.25-18.6-19.34-36.49-8.14-56.25,3.76-24.84,14.94-48.76,31.7-75,43.8-50.21,23.15-117.47,78.14-121.91,137C156.72,422.63,263.21,491.3,294.82,494.93Z"/><path class="cls-35" d="M295.7,492.92S412,513.81,464.49,467.46s82.1-130.42,37-205.31c-26.91-44.69-48.19-104.49-83.85-141.85-18.28-19.15-35.86-8.06-55.29,3.73-24.4,14.79-47.92,31.38-73.7,43.36C239.31,190.32,173.2,244.76,168.84,303,160,421.33,264.62,489.32,295.7,492.92Z"/><path class="cls-36" d="M296.58,490.92S410.84,511.6,462.42,465.7s80.67-129.12,36.36-203.27C472.33,218.18,451.43,159,416.39,122c-18-19-35.24-8-54.33,3.69-24,14.65-47.08,31.08-72.41,42.94-48.48,22.69-113.43,76.6-117.72,134.29C163.21,420,266,487.35,296.58,490.92Z"/><path class="cls-37" d="M297.46,488.91s112.23,20.48,162.89-25,79.24-127.82,35.71-201.23c-26-43.8-46.51-102.41-80.92-139-17.64-18.77-34.62-7.9-53.36,3.65-23.55,14.51-46.25,30.77-71.13,42.51C243,192.31,179.24,245.67,175,302.79,166.46,418.75,267.46,485.37,297.46,488.91Z"/><path class="cls-38" d="M298.34,486.9s110.2,20.28,159.94-24.71S536.08,335.66,493.35,263c-25.51-43.37-45.67-101.37-79.46-137.63-17.32-18.58-34-7.81-52.4,3.62-23.12,14.36-45.41,30.45-69.84,42.07-46.75,22.24-109.4,75.07-113.53,131.61C169.71,417.45,268.88,483.4,298.34,486.9Z"/><path class="cls-23" d="M299.21,484.89s108.17,20.07,157-24.46,76.37-125.22,34.42-197.15c-25-42.92-44.83-100.33-78-136.22-17-18.39-33.37-7.73-51.43,3.58-22.7,14.21-44.58,30.14-68.56,41.65-45.89,22-107.38,74.29-111.44,130.26C173,416.16,270.3,481.43,299.21,484.89Z"/><path class="cls-27" d="M354.47,504.14s199.69-26.45,120.8-257.5C440.82,145.73,436,145.81,439.05,121S427,93.08,413.37,100.84s-50.61,52.25-93.65,72.9c-139,66.62-158.61,186.59-113.29,249.94s45.14,64.94,67.88,74.24S317.68,521.7,354.47,504.14Z"/><path class="cls-28" d="M320.21,174.76c-50.56,25.35-88.71,59.8-109,94C180.28,320.87,178.55,381,208.69,424c44.61,63.17,44.43,64.73,66.82,74s42.69,23.71,78.91,6.2c0,0,83.26-16,117.12-77.92,20.87-38.14,31.12-91.76,1.79-178.79-33.95-100.6-38.62-100.52-35.65-125.27s-11.89-27.83-25.28-20.1S362.24,153.49,320.21,174.76Z"/><path class="cls-29" d="M320.7,175.79c-47.76,25.3-88.42,60.67-107.75,94.09-27.65,47.82-34.43,107.63-2,154.35,43.77,63.07,43.73,64.54,65.76,73.78s42,23.63,77.66,6.18c0,0,86.2-21.56,115.38-78.65,19.34-37.85,31.41-87.86,1.65-177.29C438,148,433.39,148,436.31,123.37s-11.7-27.75-24.88-20S361.79,154,320.7,175.79Z"/><path class="cls-30" d="M321.19,176.82c-45,25.11-88.16,61.53-106.48,94.17-24.43,43.52-36.13,102.94-1.51,153.51,43.06,62.88,43,64.34,64.71,73.55s41.34,23.56,76.4,6.16c0,0,89-27.15,113.65-79.38,17.74-37.6,31.69-83.95,1.51-175.77-33-99.95-37.41-99.91-34.52-124.51s-11.52-27.65-24.49-20S361.28,154.46,321.19,176.82Z"/><path class="cls-31" d="M321.68,177.84c-42.32,24.9-87.93,62.38-105.22,94.26-21.24,39.2-37.71,98.17-1,152.67,42.49,62.6,42.32,64.15,63.65,73.33s40.66,23.48,75.15,6.14c0,0,91.65-32.84,111.91-80.12,16-37.41,32-80.05,1.37-174.25-32.46-99.63-36.8-99.6-34-124.13s-11.33-27.57-24.08-19.91S360.75,154.86,321.68,177.84Z"/><path class="cls-32" d="M322.18,178.87c-39.64,24.65-87.75,63.19-104,94.35-18.12,34.83-39.4,93.46-.5,151.82,41.78,62.4,41.61,63.95,62.59,73.1s40,23.41,73.9,6.12c0,0,94.11-38.59,110.17-80.85,14.17-37.27,32.26-76.14,1.23-172.74-32-99.31-36.19-99.29-33.4-123.74s-11.14-27.49-23.68-19.85S360.21,155.22,322.18,178.87Z"/><path class="cls-33" d="M354.16,504.29s96.37-44.39,108.43-81.58,32.55-72.24,1.08-171.23-35.57-99-32.83-123.36-10.95-27.4-23.28-19.79-47.92,47.21-84.89,71.57S235,243.87,220,274.33s-41.09,88.77,0,151,40.9,63.75,61.53,72.87S320.81,521.52,354.16,504.29Z"/><path class="cls-34" d="M353.92,501.83S448.73,458,460.6,421.27s32-71.33,1.07-169.07-35-97.75-32.31-121.82-10.77-27.06-22.9-19.54-47.16,46.62-83.53,70.67-86.22,63.17-101,93.24-40.43,87.66,0,149.1,40.24,62.95,60.54,72S321.11,518.85,353.92,501.83Z"/><path class="cls-35" d="M353.68,499.37s93.25-43.27,104.93-79.53,31.5-70.42,1.05-166.93-34.43-96.51-31.78-120.26-10.59-26.72-22.52-19.3-46.39,46-82.16,69.77-84.81,62.37-99.38,92.06-39.76,86.55,0,147.2,39.59,62.15,59.55,71.05S321.41,516.18,353.68,499.37Z"/><path class="cls-36" d="M353.43,496.91s91.71-42.71,103.19-78.51,31-69.51,1-164.77-33.86-95.27-31.25-118.72-10.42-26.38-22.15-19-45.61,45.43-80.78,68.88-83.4,61.56-97.73,90.87-39.1,85.43,0,145.3,38.93,61.36,58.56,70.14S321.7,513.51,353.43,496.91Z"/><path class="cls-37" d="M353.19,494.46S443.34,452.3,454.63,417s30.45-68.59,1-162.62-33.28-94-30.72-117.17-10.24-26-21.77-18.8-44.84,44.84-79.42,68-82,60.76-96.08,89.68-38.43,84.33,0,143.42,38.28,60.55,57.58,69.22S322,510.84,353.19,494.46Z"/><path class="cls-38" d="M353,492s88.59-41.6,99.69-76.47,29.92-67.69,1-160.47-32.7-92.79-30.18-115.62-10.07-25.69-21.4-18.56S358,165.13,324,188s-80.58,59.95-94.43,88.49-37.76,83.21,0,141.52,37.62,59.76,56.59,68.31S322.3,508.17,353,492Z"/><path class="cls-23" d="M352.71,489.54s87-41,97.94-75.45,29.4-66.77,1-158.31S419.49,164.23,422,141.7s-9.89-25.35-21-18.31-43.29,43.66-76.67,66.19-79.17,59.15-92.78,87.31-37.1,82.09,0,139.63,37,59,55.6,67.39S322.59,505.5,352.71,489.54Z"/><path class="cls-27" d="M322.92,484.5s162.74,12.56,135.41-154.89c-5.88-36-18.38-70.36-26-105.93-6.49-30.28,5.47-68.61-12.14-95.56-9.42-14.39-16.66-8.7-28.83,1.08-22,17.7-36.34,43.5-58.11,61.15-97.44,78.9-131.79,168.4-110.33,219.86C248.36,471.18,292.76,474.08,322.92,484.5Z"/><path class="cls-28" d="M333.44,192.6c-33.39,28.51-63.78,60-82,88.84-29.26,46.24-41.48,94.1-26.89,129.29,25.14,60.51,66.07,62.78,95.87,73.13,0,0,62.9,8.39,104.15-30.08,28.09-26.21,43.23-62.63,32.51-122.95-6.32-35.07-17.77-68.82-25-103.6-6.15-29.81,3.24-66.36-12-93.5-8.14-14.46-15.22-12.22-27.73-3.66a81.76,81.76,0,0,0-7.51,5.79C366.21,152,352.2,176.58,333.44,192.6Z"/><path class="cls-29" d="M333.61,194.84c-30.73,27.74-64,60-81.39,88.1-26,42-41.8,90.34-26.13,128.32,24.85,60.05,62.31,61.68,91.74,72,0,0,62.75,11.81,104.31-28.39,31.23-30.21,44.72-65.42,33.61-122.78-6.76-34.18-17.16-67.29-23.91-101.26-5.81-29.35,1-64.13-11.86-91.45-6.87-14.53-13.79-15.75-26.63-8.4a61.09,61.09,0,0,0-8,5.41C366.36,151.61,351.75,178.47,333.61,194.84Z"/><path class="cls-30" d="M333.78,197.09c-28.1,26.91-64.3,60.09-80.74,87.35-22.81,37.83-42.13,86.57-25.37,127.34,24.57,59.59,58.55,60.58,87.62,70.8,0,0,62.52,15.16,104.46-26.7,34.31-34.25,46.34-68.24,34.71-122.61-7.12-33.3-16.56-65.75-22.87-98.92-5.48-28.88-1.26-61.89-11.73-89.4-5.58-14.6-12.36-19.27-25.53-13.14a47.48,47.48,0,0,0-8.42,5C366.55,151.23,351.27,180.33,333.78,197.09Z"/><path class="cls-31" d="M334,199.33c-25.52,26-64.6,60.13-80.09,86.61-19.64,33.58-42.46,82.8-24.62,126.36,24.29,59.14,54.79,59.49,83.51,69.64,0,0,62.25,18.47,104.61-25,37.36-38.35,47.81-71.05,35.82-122.45-7.57-32.41-16-64.22-21.84-96.58-5.15-28.42-3.5-59.65-11.59-87.35-4.31-14.67-10.93-22.79-24.44-17.88a39.16,39.16,0,0,0-8.87,4.66C366.77,150.88,350.78,182.16,334,199.33Z"/><path class="cls-32" d="M334.12,201.58c-23,25.12-64.94,60.13-79.43,85.86-16.53,29.32-42.8,79-23.87,125.39,24,58.67,51,58.39,79.39,68.47,0,0,61.94,21.74,104.76-23.31,40.36-42.47,49.19-73.81,36.92-122.27-8.08-31.51-15.35-62.69-20.8-94.26-4.82-28-5.75-57.4-11.45-85.29-3-14.74-9.5-26.31-23.34-22.62a33.24,33.24,0,0,0-9.33,4.28C367,150.58,350.24,184,334.12,201.58Z"/><path class="cls-33" d="M307.67,480.66s61.59,25,104.91-21.62,50.68-76.61,38-122.1c-16.14-58-24-115.66-31.08-175.16-2.11-17.86-10.85-36-32-23.46-20.22,12-37.84,47.41-53.21,65.5C313.77,228,269,263.93,255.51,288.94S212.38,364.2,232.4,413.35C256.12,471.57,279.67,470.65,307.67,480.66Z"/><path class="cls-39" d="M308.63,479.78s60,24.7,102.07-21.2S460,383.11,447.58,338.26C432.32,283,422,224.71,417.75,172.19c-1.43-17.7-7.5-41.52-28.22-30.38-19.94,10.67-39.61,46.37-55.27,65.11-19.94,23.8-63.52,59.19-76.58,83.82s-41.89,74.15-22.36,122.62C258.46,470.77,281.38,469.89,308.63,479.78Z"/><path class="cls-40" d="M309.6,478.9s58.33,24.41,99.23-20.79,47.81-74.32,35.73-118.54C430.17,287,417.76,228.05,416,182.6c-.69-17.58-4.14-47-24.42-37.3-19.64,9.34-41.37,45.34-57.31,64.72-19.37,23.43-61.7,58.27-74.38,82.53s-40.65,73-21.62,120.81C260.81,470,283.09,469.13,309.6,478.9Z"/><path class="cls-41" d="M310.57,478s56.7,24.12,96.38-20.37,46.37-73.18,34.6-116.76C428,291.06,413.94,231.33,414.19,193c.12-17.48-.79-52.52-20.61-44.23-19.35,8-43.15,44.31-59.36,64.34-18.8,23.07-59.89,57.34-72.18,81.24s-39.42,71.91-20.87,119C263.15,469.17,284.8,468.37,310.57,478Z"/><path class="cls-42" d="M311.54,477.14s55.07,23.83,93.54-20,44.93-72,33.45-115c-12.64-47.11-28-107.62-26.11-138.78,1.06-17.41,2.56-58-16.82-51.16-19.06,6.69-44.91,43.27-61.41,63.95-18.22,22.7-58.07,56.42-70,79.94S226,367,244.09,413.37C265.49,468.37,286.51,467.61,311.54,477.14Z"/><path class="cls-43" d="M312.51,476.26s53.43,23.54,90.69-19.54,43.5-70.89,32.31-113.19c-11.77-44.4-28-105.66-24.87-129.69,2.26-17.31,5.92-63.54-13-58.08C378.86,161.12,351,198,334.17,219.32c-17.65,22.34-56.26,55.5-67.78,78.65S229.44,367.65,247,413.37C267.84,467.57,288.22,466.85,312.51,476.26Z"/><path class="cls-44" d="M313.47,475.39s51.81,23.24,87.86-19.13,42.06-69.75,31.16-111.41-27.59-103.53-23.62-120.6,9.26-69.05-9.22-65-48.44,41.21-65.51,63.18S279.7,277,268.57,299.78s-35.71,68.56-18.63,113.6C270.18,466.77,289.93,466.09,313.47,475.39Z"/><path class="cls-27" d="M332.41,486.87c12,.95,83.68-8.05,81.1-96.51s-10.94-122.24-11.46-160.23,16.13-105.7-5-87.26S319,233.8,304.72,251.94s-81.46,100.69-70.06,151.19S263.59,481.43,332.41,486.87Z"/><path class="cls-28" d="M332.43,486.36c11.79.95,82.25-7.93,79.68-95.5s-10.82-121-11.35-158.62,15.8-104.62-4.93-86.39-76.72,90-90.73,107.93-80,99.64-68.79,149.63S264.78,480.93,332.43,486.36Z"/><path class="cls-29" d="M332.46,485.85c11.58.94,80.82-7.81,78.24-94.5s-10.69-119.78-11.23-157,15.47-103.54-4.89-85.51-75.35,89-89.1,106.79S226.9,354.2,238,403.7,266,480.44,332.46,485.85Z"/><path class="cls-30" d="M332.48,485.33c11.38.95,79.39-7.68,76.81-93.48s-10.56-118.55-11.11-155.4,15.14-102.47-4.85-84.64-74,88.08-87.47,105.65S228.71,355,239.6,404,267.17,479.94,332.48,485.33Z"/><path class="cls-31" d="M332.51,484.82c11.17.95,77.95-7.56,75.38-92.47s-10.44-117.33-11-153.8,14.81-101.39-4.81-83.76-72.6,87.13-85.85,104.5-75.7,96.48-65,145S268.36,479.45,332.51,484.82Z"/><path class="cls-32" d="M332.53,484.31c11,.94,76.53-7.44,74-91.46s-10.31-116.1-10.88-152.19,14.48-100.32-4.76-82.89-71.23,86.17-84.23,103.36-74.27,95.43-63.72,143.41S269.55,479,332.53,484.31Z"/><path class="cls-33" d="M332.56,483.79c10.76.95,75.09-7.31,72.52-90.44s-10.19-114.88-10.77-150.59,14.16-99.24-4.72-82S319.74,246,307,263s-72.83,94.37-62.45,141.85S270.74,478.46,332.56,483.79Z"/><path class="cls-39" d="M332.32,479.59c10.56.93,73.71-7.17,71.21-88.47s-10-112.34-10.53-147.26,13.92-97.05-4.62-80.19-68.59,83.35-81.11,100S235.76,356,245.93,402.39,271.64,474.4,332.32,479.59Z"/><path class="cls-40" d="M332.07,475.39c10.37.9,72.34-7,69.91-86.49S392.22,279.1,391.68,245s13.69-94.88-4.5-78.39-67.34,81.49-79.62,97.75S237.36,354.57,247.33,400,272.54,470.34,332.07,475.39Z"/><path class="cls-41" d="M331.83,471.19c10.16.88,71-6.88,68.6-84.51s-9.55-107.27-10.07-140.61,13.46-92.69-4.39-76.58S319.9,249.12,307.85,265,239,353.19,248.73,397.52,273.43,466.28,331.83,471.19Z"/><path class="cls-42" d="M331.59,467c10,.85,69.57-6.74,67.29-82.54s-9.33-104.73-9.83-137.28,13.23-90.5-4.28-74.77S320,250.17,308.13,265.69s-67.58,86.11-58,129.4S274.33,462.22,331.59,467Z"/><path class="cls-43" d="M331.35,462.79c9.76.83,68.19-6.59,66-80.56s-9.12-102.19-9.6-134,13-88.33-4.16-73S320,251.22,308.42,266.36s-66.27,84.06-56.9,126.3S275.22,458.16,331.35,462.79Z"/><path class="cls-44" d="M331.11,458.59c9.56.8,66.81-6.45,64.67-78.58s-8.9-99.66-9.36-130.63,12.76-86.14-4.06-71.15-62.3,74-73.66,88.81-64.95,82-55.78,123.18S276.12,454.09,331.11,458.59Z"/><path class="cls-45" d="M315.09,493.65c8.18,1.25,58.3-6.27,63.84-96.19,5.44-88.18,2.45-123.56,5.24-163,2.72-38.63,19.79-107,3.73-88.78s-61.32,90.6-72.64,108.69-64.43,100.44-60.73,152S268.06,486.55,315.09,493.65Z"/><path class="cls-46" d="M315.15,493.14c8,1.23,57.31-6.19,62.77-95.2,5.38-87.57,2.44-122.46,5.19-161.4,2.69-38.24,19.48-105.92,3.68-87.89s-60.29,89.66-71.42,107.57S252,355.62,255.64,406.68,268.93,486.07,315.15,493.14Z"/><path class="cls-47" d="M315.21,492.62c7.9,1.22,56.32-6.09,61.7-94.21,5.31-87,2.43-121.36,5.14-159.76,2.65-37.85,19.16-104.84,3.64-87s-59.27,88.71-70.21,106.43S253.2,356.46,256.76,407,269.79,485.6,315.21,492.62Z"/><path class="cls-48" d="M315.26,492.1c7.77,1.21,55.35-6,60.64-93.22,5.25-86.34,2.42-120.25,5.08-158.12,2.62-37.46,18.85-103.75,3.6-86.1s-58.24,87.77-69,105.31-61.2,97.33-57.72,147.35S270.66,485.13,315.26,492.1Z"/><path class="cls-49" d="M315.32,491.58c7.63,1.21,54.36-5.9,59.57-92.22,5.18-85.73,2.41-119.15,5-156.49,2.59-37.07,18.54-102.67,3.56-85.21S326.26,244.5,315.7,261.85,255.58,358.13,259,407.65,271.52,484.65,315.32,491.58Z"/><path class="cls-50" d="M315.38,491.06c7.49,1.2,53.37-5.8,58.5-91.23,5.12-85.12,2.4-118,5-154.85s18.22-101.59,3.51-84.31-56.19,85.89-66.56,103.06S256.76,359,260.1,408,272.38,484.18,315.38,491.06Z"/><path class="cls-33" d="M315.44,490.55c7.35,1.18,52.38-5.72,57.43-90.24s2.39-116.94,4.93-153.22,17.9-100.51,3.47-83.42-55.17,85-65.36,101.94-58,94.2-54.7,142.68S273.25,483.71,315.44,490.55Z"/><path class="cls-39" d="M315.62,486.27c7.21,1.16,51.42-5.6,56.36-88.26s2.33-114.35,4.82-149.84,17.57-98.28,3.4-81.57-54.14,83.09-64.14,99.7-56.89,92.14-53.69,139.55S274.2,479.59,315.62,486.27Z"/><path class="cls-40" d="M315.79,482c7.08,1.12,50.46-5.49,55.3-86.28s2.28-111.77,4.72-146.46,17.22-96.07,3.32-79.73S326,250.76,316.2,267s-55.82,90.07-52.67,136.41S275.15,475.48,315.79,482Z"/><path class="cls-41" d="M316,477.73c6.94,1.09,49.5-5.38,54.24-84.31s2.21-109.18,4.6-143.07,16.88-93.86,3.24-77.89S326,251.83,316.34,267.69,261.6,355.7,264.7,401,276.1,471.37,316,477.73Z"/><path class="cls-42" d="M316.14,473.45c6.81,1.07,48.54-5.26,53.18-82.32s2.15-106.6,4.49-139.69,16.54-91.65,3.17-76.05-51.07,77.51-60.5,93-53.66,85.94-50.62,130.14S277.05,467.26,316.14,473.45Z"/><path class="cls-43" d="M316.32,469.18c6.68,1,47.58-5.15,52.11-80.35s2.1-104,4.39-136.3,16.19-89.44,3.09-74.21-50,75.65-59.29,90.77S264,353,267,396.09,278,463.15,316.32,469.18Z"/><path class="cls-44" d="M316.49,464.9c6.55,1,46.63-5,51.05-78.36s2-101.43,4.28-132.93,15.86-87.22,3-72.36-49,73.79-58.08,88.53-51.51,81.81-48.58,123.86S279,459,316.49,464.9Z"/><path class="cls-51" d="M455.29,466.27c7.17-45.34-49.94-92-127.53-104.25s-146.28,14.55-153.44,59.86,49.94,92,127.53,104.23S448.14,511.57,455.29,466.27Z"/><path class="cls-52" d="M449.19,469.07c6.21-45.72-54.52-88.66-127.82-99.42C248.57,358.83,184,384.53,178.8,428.33c-5.08,43.21,50,86.29,122.43,97.73C376.11,537.89,443.31,512.39,449.19,469.07Z"/><path class="cls-53" d="M443.09,471.88C448.3,425.75,384,386.55,315,377.27c-68-9.39-128.56,15.19-131.69,57.51-3,41.1,50,80.6,117.34,91.24C372.78,537.42,438.41,513.18,443.09,471.88Z"/><path class="cls-54" d="M437,474.69c4.19-46.55-63.7-81.83-128.4-89.79-63.27-7.78-119.75,15.47-120.82,56.33-1,39,50.06,74.92,112.24,84.74C369.45,537,433.45,514,437,474.69Z"/><path class="cls-55" d="M430.88,477.5c3.1-47-68.29-78.45-128.69-85-58.5-6.31-111,15.73-109.95,55.16.95,36.82,50.1,69.23,107.14,78.23C366.12,536.47,428.42,514.73,430.88,477.5Z"/><path class="cls-56" d="M424.77,480.3c2-47.45-72.87-75.08-129-80.14-53.72-4.85-102.23,16-99.07,54,2.87,34.66,50.13,63.54,102,71.74C362.79,536,423.32,515.48,424.77,480.3Z"/><path class="cls-57" d="M418.67,483.11c.75-47.92-77.45-71.72-129.26-75.33-48.94-3.4-93.54,16.22-88.2,52.81,4.74,32.49,50.17,57.86,96.94,65.24C359.46,535.52,418.15,516.23,418.67,483.11Z"/><path class="cls-58" d="M412.57,485.92c-.56-48.39-82-68.39-129.55-70.51-44.16-2-84.93,16.46-77.33,51.63,6.55,30.33,50.21,52.18,91.85,58.75C356.13,535.05,412.92,517,412.57,485.92Z"/><path class="cls-59" d="M406.46,488.73c-2-48.85-86.59-65.08-129.84-65.69-39.37-.56-76.38,16.72-66.45,50.46,8.3,28.17,50.25,46.49,86.75,52.24C352.79,534.58,407.63,517.73,406.46,488.73Z"/><path class="cls-60" d="M400.36,491.53c-3.52-49.29-91.17-61.79-130.13-60.86-34.58.82-67.92,17-55.58,49.28,10,26.06,50.29,40.8,81.65,45.75C349.46,534.1,402.28,518.49,400.36,491.53Z"/><path class="cls-61" d="M394.25,494.34c-5.22-49.71-95.74-58.56-130.41-56-29.8,2.16-59.55,17.4-44.7,48.11,11.6,24,50.32,35.12,76.55,39.25C346.13,533.63,396.87,519.26,394.25,494.34Z"/><path class="cls-62" d="M388.15,497.15c-7.13-50.07-100.33-55.4-130.7-51.23-25,3.44-51.24,17.86-33.83,46.93,13.19,22,50.37,29.44,71.45,32.75C342.8,533.15,391.41,520.07,388.15,497.15Z"/><path class="cls-63" d="M383.69,498.11c-6.11-46.7-92.89-52.7-123-49.37-25.24,2.79-51.14,16.4-35.59,44C237,513.9,272.58,522,294.23,525.36,340.11,532.62,386.56,520.09,383.69,498.11Z"/><path class="cls-64" d="M379.23,499.07c-5.11-43.33-85.46-50-115.29-47.52-25.45,2.13-51,15-37.34,41.16,10.57,20.24,44.58,28.91,66.8,32.41C337.43,532.08,381.71,520.12,379.23,499.07Z"/><path class="cls-65" d="M374.76,500c-4.13-39.94-78-47.36-107.57-45.67-25.66,1.47-50.94,13.53-39.11,38.28,9.27,19.38,41.69,28.65,64.49,32.24C334.74,531.55,376.84,520.15,374.76,500Z"/><path class="cls-66" d="M370.3,501c-3.18-36.55-70.59-44.71-99.86-43.82-25.88.79-50.86,12.12-40.87,35.4,8,18.52,38.79,28.38,62.16,32.07C332.05,531,372,520.18,370.3,501Z"/><path class="cls-67" d="M365.84,502c-2.27-33.15-63.16-42.07-92.15-42-26.1.09-50.8,10.71-42.63,32.51,6.62,17.67,35.9,28.12,59.84,31.89C329.37,530.48,367.09,520.22,365.84,502Z"/><path class="cls-68" d="M361.38,502.91c-1.41-29.75-55.73-39.44-84.45-40.11-26.3-.61-50.75,9.33-44.38,29.63,5.28,16.84,33,27.85,57.51,31.72C326.68,529.94,362.2,520.26,361.38,502.91Z"/><path class="cls-69" d="M356.92,503.88c-.59-26.34-48.3-36.84-76.74-38.27-26.52-1.32-50.74,8-46.14,26.75,3.91,16,30.11,27.59,55.19,31.55C324,529.41,357.28,520.31,356.92,503.88Z"/><path class="cls-70" d="M352.46,504.84c.17-22.92-40.87-34.25-69-36.41-26.74-2.06-50.76,6.6-47.9,23.86,2.52,15.21,27.21,27.33,52.86,31.38C321.31,528.87,352.34,520.36,352.46,504.84Z"/><path class="cls-71" d="M348,505.8c.88-19.51-33.43-31.66-61.31-34.56-26.95-2.8-50.84,5.25-49.66,21,1.07,14.4,24.32,27.06,50.54,31.2C318.62,528.33,347.34,520.41,348,505.8Z"/><path class="cls-72" d="M343.53,506.76c1.49-16.1-26-29.09-53.6-32.71-27.16-3.55-51,3.89-51.43,18.1-.42,13.59,21.43,26.8,48.22,31C315.94,527.8,342.27,520.45,343.53,506.76Z"/><path class="cls-73" d="M339.07,507.72c2-12.73-18.55-26.53-45.9-30.85S242,479.35,240,492.08s18.54,26.54,45.9,30.86S337.06,520.45,339.07,507.72Z"/><path class="cls-74" d="M337.06,508.32c1.92-12.24-17.86-25.51-44.17-29.67s-49.23,2.38-51.17,14.62,17.84,25.51,44.17,29.67S335.12,520.56,337.06,508.32Z"/><path class="cls-75" d="M335,508.92c1.85-11.75-17.15-24.49-42.43-28.49s-47.3,2.29-49.15,14,17.14,24.48,42.43,28.48S333.19,520.66,335,508.92Z"/><path class="cls-76" d="M333,509.51c1.76-11.25-16.46-23.46-40.7-27.29S247,484.4,245.19,495.65s16.44,23.46,40.7,27.29S331.25,520.77,333,509.51Z"/><path class="cls-77" d="M331,510.11c1.68-10.76-15.77-22.44-39-26.11s-43.42,2.08-45.12,12.83,15.75,22.44,39,26.11S329.32,520.87,331,510.11Z"/><path class="cls-78" d="M329,510.71c1.61-10.27-15.06-21.42-37.24-24.92s-41.48,2-43.11,12.23,15,21.42,37.24,24.92S327.38,521,329,510.71Z"/><path class="cls-79" d="M327,511.31c1.53-9.78-14.37-20.4-35.51-23.74s-39.55,1.88-41.09,11.64,14.35,20.39,35.5,23.73S325.44,521.08,327,511.31Z"/><path class="cls-80" d="M325,511.9c1.45-9.28-13.68-19.37-33.78-22.54s-37.62,1.77-39.08,11,13.65,19.38,33.77,22.55S323.51,521.19,325,511.9Z"/><path class="cls-81" d="M323,512.5c1.38-8.79-13-18.35-32-21.36s-35.67,1.67-37.06,10.44,13,18.35,32,21.36S321.57,521.29,323,512.5Z"/><path class="cls-82" d="M321,513.1c1.29-8.3-12.28-17.33-30.32-20.17s-33.74,1.57-35,9.84,12.26,17.32,30.31,20.17S319.64,521.4,321,513.1Z"/><path class="cls-83" d="M318.93,513.7c1.22-7.81-11.57-16.31-28.58-19s-31.8,1.47-33,9.25,11.57,16.3,28.58,19S317.7,521.5,318.93,513.7Z"/><path class="cls-84" d="M316.92,514.29C318.06,507,306,499,290.07,496.5s-29.87,1.36-31,8.64,10.86,15.28,26.84,17.8S315.77,521.61,316.92,514.29Z"/><path class="cls-85" d="M612.26,390.5C586.62,494.13,496,513.73,380.35,512.81c-27.82-.23-37,23-98.33,10.75-18.66-3.73-40.07-27.71-59.69-39.83-76.59-47.23-147-134.55-123.17-215.27,27.2-92.28,127.08-141.06,234.68-144.62,28.82-.94,48.65-31.24,71.09-45.17,18.1-11.25,38.28-23,59.53-20a265.43,265.43,0,0,0,7.47,72.72,23.46,23.46,0,0,0-18.9-6.24c-9.24,1.16,10.33,31.92,15.22,34.33C562.25,206.07,636.42,292.8,612.26,390.5Z"/><path class="cls-86" d="M612.26,390.5C586.62,494.13,496,513.73,380.35,512.81c-27.82-.23-37,23-98.33,10.75-18.66-3.73-40.07-27.71-59.69-39.83-76.59-47.23-147-134.55-123.17-215.27,27.2-92.28,127.08-141.06,234.68-144.62,28.82-.94,48.65-31.24,71.09-45.17,18.1-11.25,38.28-23,59.53-20a265.43,265.43,0,0,0,7.47,72.72,23.46,23.46,0,0,0-18.9-6.24c-9.24,1.16,10.33,31.92,15.22,34.33C562.25,206.07,636.42,292.8,612.26,390.5Z"/><path class="cls-87" d="M442.92,53.71a8.82,8.82,0,0,0-3.68.18,4.89,4.89,0,0,0-3,2.88,2.58,2.58,0,0,0,0,2,1.43,1.43,0,0,0,2,.27c.73-.42,1.33-1.15,2-1.65a7.92,7.92,0,0,1,5.15-1.17c1,0,2.39.59,2,1.88a6.22,6.22,0,0,0-5.52,2,10.61,10.61,0,0,0-2.81,6.52,3.52,3.52,0,0,0,.77,2.9A1.39,1.39,0,0,0,442,68.49a1.26,1.26,0,0,0,0-.55,5,5,0,0,0-.32-.74c-.73-1.65.38-3.88,1.44-5.57a2.86,2.86,0,0,1,.59-.77,2.18,2.18,0,0,1,.89-.36L451.22,59a3.63,3.63,0,0,1-2.07,3.32,18.81,18.81,0,0,1-3.45.82,3.23,3.23,0,0,0-2.22,1.64c-.62,1.29,0,3,1.11,3.11-.09-1,.89-1.87,1.7-2.37,1.31-.78,2.62-1.59,3.94-2.38.83-.51,2-1,2.43-.08.56,1.07-.73,2.61-1.82,2.83s-2.28-.08-3.24.74-1.25,2.27-1.62,3.55a15.63,15.63,0,0,0-.71,3c-.06,1,.24,2.06,1,2.37s1.76-.56,1.67-1.53a5.37,5.37,0,0,0-.47-1.25,3.23,3.23,0,0,1,1.21-3.17,6,6,0,0,1,2.87-1c1.62-.29,4.33-3.07,5.56-1.74,1.59,1.75-1.32,6.35-2.46,7.64-2,2.18-4.4,4.36-4.74,7.43,1.53,0,3.51.72,3.24,2.67-.17,1.19-1.15,2-1.85,2.92-2.11,2.81-1.32,7.83,1.38,8.66A2.81,2.81,0,0,0,456,94.2c.49-1.61-1.37-3.13-2.2-1.7-1.47-.18-.71-3.26.61-4.43s3.12-2.37,3.07-4.25a9.49,9.49,0,0,1-5-4.25,18.11,18.11,0,0,0,8.72-7.71,3.71,3.71,0,0,1,3.15,3,5.53,5.53,0,0,1-1.45,5c-.8.71-1.76,1-2.6,1.6a2.89,2.89,0,0,0-1.23,2.93c1.21.88,3.14.4,3.94,1.85.94,1.74-.65,4.31-2.13,5.84s-3.23,3.77-2.62,5.78c.26.84.91,1.38,1.16,2.22.6,2-1.12,4.21-2.72,5.39s-3.55,2.46-4,4.68a9.34,9.34,0,0,0,5.48,1.63,5.93,5.93,0,0,0,4.84-4.16c-1.36-.27-3-1-3-2.74a3.06,3.06,0,0,1,2.45-2.83,5,5,0,0,1,3.19,1.07c1.6,1,3.43,2.75,2.71,5a5.62,5.62,0,0,1-2,2.52A33.49,33.49,0,0,1,450.5,118a7.28,7.28,0,0,0,.55,8.5c1.83,1.89,4.58,2.07,7.13,1.47,5.08-1.22,10.16-5.6,12.35-11.7a13.58,13.58,0,0,0,.75-7.27c-.49-2.3-2-4.15-3.92-4.29.16-1.37.33-2.71.47-4.08-1.89,2-4.91.74-5.36-2s1.53-6,3.82-6.69c1.28-.39,2.95-.46,3.41-2,.59-2.06-1.94-2.8-2.49-4.69-.61-2.09,1.77-4.5,3.53-4.08s2.78,2.54,3.43,4.58c.73,2.23,1.18,5,.09,7.27-.56,1.18-1.54,2.52-1.08,3.6a1.36,1.36,0,0,0,1.08.74c2.7.31,4.69-4.42,4.15-7.69s-2.49-5.7-3.48-8.73c-.72-2.13-.94-4.59-1.9-6.53s-3-3.23-4.81-1.93c-2,2.25-2.38,6.37-.79,8.52-1.58.94-2.81-1.6-2.5-3.72s1.39-4.17,1.29-6.25c-.09-1.88-1.27-3.42-2.75-3.58s-3.16,1-3.9,2.84a6.7,6.7,0,0,1,.48-3.8,7.29,7.29,0,0,0,.54-3.82c-.31-1.17-1.74-1.71-2.39-.58-.27,1-.54,2-.8,3,.09-.37-4.19-2.48-4.49-3.07-.46-.94.43-2.34.21-3.45a1.76,1.76,0,0,0-.45-.88,3,3,0,0,0-4.45.06c.08-1.33.07-2.93-.83-3.46a2.06,2.06,0,0,0-.95-.24Z"/></g></g></g></svg>