<svg id="katman_1" data-name="katman 1" xmlns="http://www.w3.org/2000/svg" viewBox="0 0 709.26 595.28"><defs><style>.cls-1{fill:#e5b323;}.cls-2{fill:#e6b722;}.cls-3{fill:#e7ba22;}.cls-4{fill:#e8be22;}.cls-5{fill:#eac121;}.cls-6{fill:#ebc521;}.cls-7{fill:#ecc920;}.cls-8{fill:#eecc20;}.cls-9{fill:#efd020;}.cls-10{fill:#f0d31f;}.cls-11{fill:#f1d71f;}.cls-12{fill:#f3da1f;}</style></defs><title>urun_biber4</title><path class="cls-1" d="M508,341.06c-7.43,19.62-21.24,41.23-42.21,41.23-19.81,0-38.6-20-56.73-12-13.56,5.95-16.55,23.9-15,38.61,3.95,37.07-5,62.87-43.79,75.83-13.48,4.53-28.26,1.5-41.95-2.43-32.29-9.25-61.73-30-82.86-56.12-17.36-21.44-52.35-54.49-42.35-85.69,10.16-31.7,48-20.45,71-32.06A56.61,56.61,0,0,0,278,285.14c3.45-6.44,4.94-14.3,2.27-21.1-4.92-12.49-20.42-16-32.66-21.5-8.28-3.74-15.72-9.06-22.83-14.72-11.45-9.15-22.35-19.63-28.7-32.84-25.36-52.91,36-69,74.66-67.28,22.33,1,45.21,5.86,63.33,18.94s30.49,35.72,26.79,57.75c-2.36,14-10.71,26.41-13.68,40.31-7,32.95,26.89,39.59,52,40.2,18.78.47,37.19-5.08,55.92-6.42,23.27-1.65,51,5.74,57.35,27.82C515.69,317.73,512.17,329.94,508,341.06Zm34.36-98.47c-25.93-29.86-70.48-31.68-109.16-39.89-7-1.5-14.48-3.56-19.13-9-4.8-5.66-5.5-13.57-7.38-20.75-5-19-19-34.27-33.51-47.61-13.72-12.66-28.88-24.74-47-29.39-11.87-3-24.32-2.68-36.55-1.78-30.25,2.22-60.84,7.93-87.47,22.5C158.79,140.37,124,198.06,154.62,245c5.75,8.81,13.78,17.61,12.8,28.08-.72,7.92-6.47,14.28-11.34,20.55-22.62,29.16-23.76,60.47-14.13,96.1,13.61,50.4,59.38,96.92,105.28,116.35,31.28,13.23,69.09,32.09,102.82,28.2s70.53-28.72,89.6-56.79c7.8-11.47,20.1-38.55,29.65-48.57,24.56-25.8,55.32-13.32,78-40.8,13.1-15.86,15.57-37.77,16.35-58.32C564.8,299.15,562.46,265.74,542.34,242.59Z"/><path class="cls-2" d="M196.86,191.83c-22-45.88,21.36-64,58.24-66.88a136,136,0,0,1,18.33-.17c22.66,1.38,45.35,7,63.7,20.65,10.79,8,19.73,19.51,23.42,32.09a49.21,49.21,0,0,1,.64,26.13c-3.51,14.07-10.53,26.86-11.72,39.84s3.74,21.6,12.17,26.57c7,4.14,16.06,5.86,25.55,6.72,5.68.49,11.49.71,17,.79,6.68.12,13.35-.3,19.93-.83,12.27-1,24.23-2.6,36-2.45,22.62.33,47.87,9.61,53,32.12,2.55,11.11-.82,22.8-5.05,33.45-7.55,18.9-21.17,39.26-41.48,39.27-19.81,0-38.6-20-56.73-12.05-13.56,5.95-16.55,23.91-15,38.61,3.95,37.07-5.05,62.86-43.79,75.83-13.49,4.52-28.27,1.49-42-2.44-32.3-9.25-61.73-30-82.86-56.12-17.37-21.43-52.36-54.47-42.35-85.67,10.15-31.7,48-20.45,71-32.06A56.63,56.63,0,0,0,278.79,282c3.44-6.43,4.93-14.29,2.27-21.09-4.92-12.49-20.43-16-32.67-21.5-8.28-3.74-15.72-9.06-22.82-14.72C214.12,215.52,203.21,205.05,196.86,191.83ZM203,113.49c-29.43,16.1-56.72,49.46-57.94,83-.64,16.16,3.92,32,14.79,46.73.58.78,1.18,1.56,1.78,2.34,3.19,4.1,6.72,8.4,8.68,13.06a24.49,24.49,0,0,1,1.7,6,20.3,20.3,0,0,1-.09,6.73c-1.43,7.67-7.64,13.64-12.87,19.74-23.79,27.76-25.81,59.8-16.35,95.26.27,1,.55,2,.84,3,14.5,49.34,59.44,94.53,104.52,113.61,31.27,13.23,69.08,32.09,102.81,28.19s70.53-28.71,89.6-56.78c7.81-11.46,20.1-38.54,29.66-48.56,24.55-25.8,55.31-13.32,78-40.8,13.1-15.86,15.57-37.76,16.35-58.31,1.17-30.66-1.17-64.06-21.29-87.21C517.24,209.58,472.7,207.77,434,199.55c-7-1.5-14.48-3.55-19.13-9-4.8-5.66-5.5-13.57-7.37-20.74-5-19-19-34.27-33.52-47.61-13.72-12.65-28.88-24.73-47-29.38-11.86-3-24.32-2.69-36.54-1.79C260.23,93.21,229.64,98.92,203,113.49Z"/><path class="cls-3" d="M197.7,188.69c-22.34-46.58,22.82-64.53,59.87-66.92a135.19,135.19,0,0,1,18.6.1c23,1.76,45.49,8.07,64.06,22.34,10.84,8.3,20,20.11,22.82,32.9a47.38,47.38,0,0,1-1.48,25.79c-4.7,14.15-10.35,27.2-9.75,39.37.59,12,6,19.78,14.68,23.66,7.26,3.24,16.07,3.89,25.52,4.13,5.67.12,11.54.14,17.11.19,6.78.06,13.55-.19,20.19-.38,12.46-.36,24.37-.94,35.82.23,22,2.31,44.75,13.44,48.7,36.41,1.85,10.77-1.38,22-5.65,32.16C500.56,356.86,487.08,376,467.44,376c-19.82,0-38.6-20-56.74-12-13.56,5.95-16.55,23.9-15,38.61,3.95,37.05-5.05,62.85-43.79,75.81-13.49,4.52-28.27,1.49-41.95-2.44-32.3-9.24-61.73-30-82.86-56.11-17.36-21.43-52.35-54.47-42.35-85.67,10.15-31.68,48-20.44,71-32a56.69,56.69,0,0,0,23.82-23.25c3.44-6.44,4.94-14.3,2.27-21.09-4.92-12.49-20.43-16-32.67-21.51-8.27-3.73-15.72-9-22.82-14.71C215,212.37,204,201.9,197.7,188.69Zm6.14-78.34c-29.61,16.2-58.8,51.51-57.29,85.4.72,16.28,6.8,31.48,18.55,45.64.63.76,1.28,1.51,1.94,2.27,3.46,4,7.31,8.31,9,13.16a21,21,0,0,1,.38,12.67c-2.12,7.42-8.79,13-14.4,18.93-24.9,26.38-27.85,59.14-18.56,94.42.26,1,.54,2,.84,3,14.41,49.45,59.43,94.76,104.59,113.87C280.17,513,318,531.82,351.71,527.92s70.53-28.71,89.6-56.78c7.81-11.46,20.11-38.53,29.66-48.55,24.56-25.79,55.31-13.32,78-40.79,13.11-15.86,15.58-37.76,16.35-58.31,1.18-30.66-1.17-64.06-21.29-87.2-25.92-29.85-70.47-31.67-109.16-39.89-7-1.5-14.48-3.55-19.13-9-4.8-5.66-5.5-13.57-7.37-20.75-5-19-19-34.26-33.51-47.6-13.72-12.65-28.89-24.73-47-29.38-11.86-3-24.32-2.69-36.54-1.78C261.07,90.07,230.47,95.79,203.84,110.35Z"/><path class="cls-4" d="M198.53,185.54c-22.68-47.27,24.28-65,61.52-66.94a132.81,132.81,0,0,1,18.85.36c23.32,2.14,45.63,9.17,64.43,24,10.88,8.56,20.24,20.72,22.22,33.71,1.38,8.85-.15,17.19-3.6,25.46-5.93,14.21-10.23,27.38-7.78,38.9,2.29,10.76,8.2,17.94,17.2,20.74,7.49,2.35,16.06,1.95,25.48,1.54,5.67-.24,11.6-.42,17.27-.42,6.87,0,13.75-.07,20.43.07,12.67.28,24.53.72,35.62,2.91,21.32,4.3,41.68,17.24,44.37,40.72,1.2,10.41-1.94,21.14-6.24,30.85-7.75,17.49-21,35.32-40,35.33-19.81,0-38.6-20-56.74-12.05-13.55,5.95-16.55,23.9-15,38.61,3.95,37.05-5.05,62.84-43.79,75.81-13.49,4.51-28.27,1.49-41.95-2.44-32.29-9.25-61.73-30-82.86-56.11C210.59,395.19,175.6,362.16,185.6,331c10.15-31.68,48-20.44,71-32a56.73,56.73,0,0,0,23.81-23.25c3.45-6.43,4.94-14.29,2.27-21.09-4.92-12.49-20.42-16-32.67-21.5-8.27-3.73-15.72-9.05-22.82-14.71C215.78,209.22,204.88,198.75,198.53,185.54Zm6.15-78.33c-29.81,16.31-61,53.56-56.65,87.82,2.06,16.39,9.68,31,22.31,44.55.68.74,1.39,1.46,2.09,2.19,3.74,3.86,7.93,8.23,9.36,13.27a17.93,17.93,0,0,1,.6,6.15,21.6,21.6,0,0,1-1.45,6.49C178.11,274.86,171,280,165,285.81c-26,25-29.91,58.47-20.78,93.58.26,1,.54,2,.83,3,14.32,49.55,59.43,95,104.67,114.13,31.27,13.23,69.09,32.08,102.82,28.19S423.07,496,442.15,468c7.8-11.46,20.1-38.53,29.65-48.55,24.56-25.79,55.31-13.33,78-40.79,13.11-15.86,15.58-37.75,16.36-58.3,1.17-30.66-1.17-64.05-21.3-87.19-25.92-29.85-70.47-31.67-109.16-39.89-7-1.49-14.48-3.55-19.13-9-4.8-5.66-5.5-13.57-7.37-20.74-5-19-19-34.26-33.51-47.6-13.72-12.65-28.89-24.73-47-29.37-11.86-3.05-24.32-2.69-36.54-1.79C261.9,86.94,231.3,92.65,204.68,107.21Z"/><path class="cls-5" d="M199.36,182.39c-23-48,25.74-65.5,63.16-67a133.86,133.86,0,0,1,19.12.63c23.64,2.52,45.77,10.27,64.79,25.72,10.92,8.83,20.49,21.32,21.62,34.52.8,9-1.67,17.08-5.72,25.12-7.19,14.29-10.25,27.47-5.82,38.43,3.84,9.47,10.44,16.12,19.72,17.84,7.73,1.44,16.06,0,25.45-1.05,5.67-.62,11.65-1,17.43-1,6.95,0,13.95,0,20.68.53,12.87.92,24.67,2.36,35.4,5.59,20.69,6.23,38.67,21,40.06,45,.58,10-2.51,20.31-6.84,29.55-7.87,16.77-21,33.34-39.31,33.35-19.81,0-38.6-20-56.74-12-13.55,6-16.55,23.89-15,38.6,3.95,37.05-5.05,62.84-43.79,75.8-13.49,4.52-28.26,1.49-41.95-2.44-32.29-9.24-61.73-30-82.86-56.1C211.42,392,176.43,359,186.43,327.8c10.15-31.68,48-20.44,71-32a56.67,56.67,0,0,0,23.81-23.25c3.45-6.43,4.94-14.29,2.27-21.08-4.92-12.49-20.42-16-32.67-21.5-8.27-3.73-15.72-9.05-22.82-14.7C216.61,206.07,205.71,195.6,199.36,182.39Zm6.15-78.31c-30,16.4-63.12,55.59-56,90.24,3.39,16.49,12.58,30.44,26.07,43.46l2.25,2.11c4,3.73,8.54,8.13,9.69,13.36a16.06,16.06,0,0,1,.06,6.25,22.75,22.75,0,0,1-2.14,6.38c-3.52,6.93-11.08,11.73-17.46,17.32C141,306.89,136,341,145,376c.26,1,.53,2,.82,3,14.24,49.65,59.43,95.21,104.75,114.39,31.28,13.23,69.09,32.08,102.82,28.19s70.52-28.7,89.6-56.77c7.8-11.46,20.1-38.52,29.66-48.54,24.55-25.79,55.3-13.33,78-40.79,13.1-15.85,15.57-37.75,16.35-58.29,1.17-30.65-1.17-64.05-21.29-87.19-25.93-29.84-70.48-31.66-109.16-39.87-7-1.5-14.49-3.55-19.14-9-4.79-5.66-5.5-13.57-7.36-20.75-5-19-19.05-34.25-33.52-47.59-13.72-12.65-28.89-24.72-47-29.37-11.87-3.05-24.32-2.69-36.55-1.79C262.73,83.8,232.13,89.52,205.51,104.08Z"/><path class="cls-6" d="M200.19,179.25c-23.35-48.67,27.21-66,64.81-67a133.42,133.42,0,0,1,19.38.9c24,2.91,45.91,11.37,65.16,27.42,10.95,9.08,20.73,21.91,21,35.32.22,9.1-3.21,17-7.84,24.79-8.48,14.34-10.45,27.54-3.85,38,5.19,8.18,12.67,14.29,22.23,14.92,8,.54,16.07-2,25.42-3.64a113.68,113.68,0,0,1,17.59-1.65,160.52,160.52,0,0,1,20.92,1c13.08,1.57,24.83,4,35.2,8.26,20,8.21,35.73,24.72,35.73,49.32,0,9.65-3.07,19.48-7.43,28.25-8,16.06-20.92,31.38-38.58,31.39-19.82,0-38.61-20-56.75-12.05-13.55,5.95-16.55,23.9-15,38.6,4,37.05-5,62.83-43.78,75.8-13.5,4.51-28.27,1.48-41.95-2.45-32.3-9.24-61.73-30-82.87-56.09-17.36-21.42-52.35-54.45-42.35-85.64,10.15-31.68,48-20.43,71-32a56.67,56.67,0,0,0,23.82-23.24c3.44-6.43,4.93-14.29,2.26-21.08-4.91-12.49-20.42-16-32.67-21.5-8.26-3.73-15.72-9.05-22.81-14.7C217.44,202.92,206.54,192.45,200.19,179.25Zm6.15-78.31c-30.19,16.51-65.28,57.63-55.35,92.66,4.71,16.6,15.48,29.91,29.83,42.37l2.4,2c4.3,3.6,9.16,8,10,13.46a14.43,14.43,0,0,1-.49,6.35,23.81,23.81,0,0,1-2.81,6.25c-4.23,6.7-12.22,11.11-19,16.52-28,22.38-34,57.13-25.2,91.91.26,1,.53,2,.82,3C160.72,425.29,206,471,251.4,490.19c31.27,13.23,69.08,32.08,102.81,28.18s70.52-28.69,89.6-56.75c7.8-11.46,20.1-38.53,29.66-48.55,24.55-25.78,55.3-13.32,78-40.77,13.1-15.86,15.57-37.75,16.35-58.29,1.17-30.65-1.17-64-21.29-87.18C520.57,197,476,195.17,437.34,187c-7-1.5-14.48-3.55-19.14-9-4.79-5.66-5.49-13.57-7.36-20.74-5-19-19-34.25-33.52-47.58-13.72-12.65-28.89-24.73-47-29.37-11.86-3-24.32-2.69-36.54-1.79C263.56,80.67,233,86.38,206.34,100.94Z"/><path class="cls-7" d="M201,176.1c-23.69-49.36,28.66-66.49,66.44-67a133.27,133.27,0,0,1,19.65,1.17c24.29,3.29,46,12.47,65.52,29.11,11,9.34,21,22.51,20.41,36.13-.36,9.22-4.76,16.84-10,24.46-9.81,14.37-10.83,27.72-1.88,37.48,6.39,7,14.89,12.46,24.75,12,8.2-.36,16.06-4,25.38-6.22a83.59,83.59,0,0,1,17.75-2.26,114,114,0,0,1,21.16,1.44c13.29,2.23,25,5.67,35,10.94,19.4,10.2,32.88,28.44,31.41,53.62-.54,9.26-3.65,18.65-8,26.94-8.11,15.34-20.85,29.41-37.86,29.42-19.82,0-38.61-20-56.75-12-13.55,5.94-16.55,23.89-15,38.59,4,37-5.05,62.83-43.78,75.79-13.49,4.51-28.27,1.48-41.95-2.44-32.3-9.25-61.73-30-82.87-56.09-17.36-21.42-52.34-54.45-42.35-85.63,10.15-31.68,48-20.43,71-32A56.67,56.67,0,0,0,283,266.2c3.44-6.43,4.93-14.28,2.26-21.08-4.91-12.48-20.42-16-32.67-21.49-8.26-3.73-15.72-9-22.81-14.7C218.27,199.78,207.37,189.31,201,176.1Zm6.15-78.3c-30.38,16.61-67.47,59.68-54.7,95.08,6,16.71,18.38,29.38,33.58,41.28.84.66,1.7,1.31,2.56,2,4.57,3.49,9.77,8,10.37,13.57a13.54,13.54,0,0,1-1,6.44,25.65,25.65,0,0,1-3.49,6.14c-4.94,6.45-13.35,10.49-20.53,15.72-29,21.1-36.05,56.45-27.42,91.06.26,1,.53,2,.81,3.05C161.38,422,206.73,467.77,252.23,487c31.27,13.23,69.08,32.07,102.81,28.18s70.52-28.69,89.6-56.75c7.8-11.46,20.11-38.52,29.66-48.54,24.56-25.78,55.3-13.32,78-40.77,13.1-15.85,15.57-37.74,16.35-58.28,1.18-30.65-1.17-64-21.29-87.17C521.4,193.84,476.86,192,438.17,183.81c-7-1.5-14.48-3.55-19.14-9-4.79-5.65-5.49-13.56-7.36-20.73-5-19-19.05-34.25-33.51-47.58-13.72-12.65-28.9-24.72-47-29.37-11.86-3-24.32-2.69-36.54-1.79C264.39,77.53,233.79,83.24,207.18,97.8Z"/><path class="cls-8" d="M201.86,173c-24-50.06,30.12-67,68.09-67.07a135.84,135.84,0,0,1,19.91,1.43c24.62,3.68,46.18,13.58,65.88,30.81,11,9.6,21.23,23.12,19.81,36.94-.94,9.35-6.33,16.71-12.08,24.12-11.15,14.39-11.33,28.09.08,37,7.54,5.89,17.13,10.63,27.27,9.09,8.45-1.26,16.06-5.94,25.35-8.81a68.07,68.07,0,0,1,17.91-2.87,90.72,90.72,0,0,1,21.41,1.9c13.49,2.88,25.13,7.33,34.79,13.61,18.75,12.19,30.12,32.18,27.08,57.93a70,70,0,0,1-8.63,25.64c-8.23,14.62-20.78,27.43-37.13,27.45-19.81,0-38.61-20-56.75-12.05-13.54,6-16.55,23.89-15,38.59,4,37-5.05,62.82-43.78,75.78C342.6,467,327.82,464,314.14,460c-32.3-9.24-61.73-30-82.87-56.08-17.36-21.42-52.34-54.44-42.35-85.63,10.15-31.67,48-20.42,71.05-32a56.82,56.82,0,0,0,23.81-23.24c3.45-6.43,4.93-14.29,2.26-21.08-4.91-12.49-20.41-16-32.67-21.49-8.26-3.73-15.72-9-22.81-14.7C219.1,196.63,208.21,186.16,201.86,173ZM208,94.66c-30.57,16.72-69.66,61.73-54,97.5C161.3,209,175.25,221,191.3,232.35c.9.64,1.81,1.26,2.71,1.89,4.86,3.36,10.39,7.87,10.71,13.67a13,13,0,0,1-1.59,6.54,26.83,26.83,0,0,1-4.17,6c-5.63,6.21-14.47,9.89-22.06,14.92-30,19.85-38.09,55.79-29.63,90.22.25,1,.52,2,.8,3.06,14,50,59.41,95.9,105,115.18,31.27,13.22,69.09,32.06,102.82,28.17s70.51-28.69,89.6-56.75c7.79-11.45,20.1-38.51,29.65-48.53,24.56-25.78,55.3-13.32,78-40.77,13.09-15.85,15.56-37.74,16.35-58.27,1.17-30.65-1.17-64-21.29-87.16-25.94-29.84-70.48-31.65-109.17-39.86-7-1.5-14.48-3.55-19.13-9-4.8-5.66-5.5-13.56-7.37-20.74-5-19-19.05-34.24-33.51-47.57C365.27,90.68,350.1,78.61,332,74c-11.86-3-24.32-2.68-36.54-1.78C265.22,74.4,234.62,80.11,208,94.66Z"/><path class="cls-9" d="M202.69,169.81c-24.36-50.76,31.59-67.47,69.73-67.11a135.86,135.86,0,0,1,20.18,1.7c24.94,4.06,46.32,14.68,66.24,32.5,11.08,9.87,21.48,23.72,19.21,37.75-1.51,9.48-7.9,16.56-14.2,23.79-12.52,14.37-11.86,28.65,2,36.54,8.69,4.93,19.36,8.8,29.79,6.18,8.68-2.16,16.05-7.93,25.31-11.4a57.45,57.45,0,0,1,18.07-3.48,76.75,76.75,0,0,1,21.65,2.35c13.69,3.56,25.26,9,34.59,16.3,18.07,14.21,27.47,35.94,22.76,62.22a73.08,73.08,0,0,1-9.23,24.34c-8.36,13.9-20.72,25.47-36.41,25.48-19.81,0-38.61-20-56.75-12-13.54,5.94-16.55,23.88-15,38.58,4,37-5,62.81-43.78,75.78-13.49,4.5-28.26,1.48-41.95-2.45-32.3-9.24-61.73-30-82.87-56.07-17.36-21.42-52.34-54.44-42.35-85.62,10.15-31.66,48-20.42,71.05-32a56.7,56.7,0,0,0,23.81-23.24c3.45-6.43,4.93-14.28,2.26-21.07-4.91-12.49-20.41-16-32.66-21.49-8.27-3.73-15.73-9.05-22.82-14.7C219.93,193.48,209,183,202.69,169.81Zm6.15-78.29c-30.76,16.82-71.86,63.79-53.4,99.92,8.65,16.94,24.2,28.29,41.1,39.1l2.87,1.82c5.13,3.23,11,7.77,11,13.76a12.66,12.66,0,0,1-2.13,6.64,28.88,28.88,0,0,1-4.85,5.9c-6.34,6-15.59,9.28-23.59,14.11-30.95,18.64-40.15,55.12-31.85,89.39.25,1,.52,2,.8,3.06,13.89,50.06,59.4,96.12,105.06,115.44,31.27,13.22,69.09,32.06,102.82,28.17s70.51-28.68,89.6-56.74c7.79-11.46,20.1-38.51,29.66-48.53,24.55-25.77,55.29-13.32,78-40.76,13.09-15.86,15.56-37.74,16.35-58.28,1.17-30.63-1.17-64-21.29-87.14-25.94-29.84-70.47-31.65-109.16-39.86-7-1.5-14.49-3.55-19.14-9-4.8-5.65-5.5-13.56-7.36-20.73-5-19-19-34.24-33.52-47.57-13.72-12.65-28.89-24.71-47-29.36-11.87-3-24.32-2.69-36.55-1.79C266.05,71.26,235.46,77,208.84,91.52Z"/><path class="cls-10" d="M203.53,166.66c-24.71-51.45,33-68,71.37-67.14a135.85,135.85,0,0,1,20.44,2c25.27,4.44,46.45,15.78,66.6,34.2,11.12,10.12,21.73,24.31,18.61,38.55-2.09,9.6-9.48,16.4-16.32,23.45-13.9,14.35-12.35,29.39,4,36.08,9.89,4,21.59,7,32.3,3.27,8.92-3.07,16.05-9.91,25.28-14a50.22,50.22,0,0,1,18.23-4.1,66.68,66.68,0,0,1,21.9,2.81c13.88,4.22,25.41,10.68,34.37,19,17.43,16.19,24.94,39.74,18.44,66.52a76,76,0,0,1-9.82,23c-8.5,13.18-20.66,23.5-35.68,23.52-19.82,0-38.62-20-56.76-12.05-13.54,5.95-16.55,23.89-15,38.58,4,37-5,62.81-43.77,75.77-13.5,4.51-28.27,1.48-41.95-2.44-32.31-9.24-61.73-30-82.88-56.07-17.36-21.42-52.34-54.43-42.35-85.61,10.15-31.66,48-20.42,71-32a56.7,56.7,0,0,0,23.82-23.23c3.44-6.43,4.92-14.29,2.25-21.08-4.9-12.48-20.41-16-32.66-21.48-8.26-3.73-15.73-9.05-22.81-14.7C220.76,190.33,209.87,179.86,203.53,166.66Zm6.14-78.27c-30.95,16.92-74.12,65.88-52.75,102.34,9.93,17.07,27.11,27.73,44.86,38l3,1.73c5.42,3.12,11.63,7.69,11.39,13.87a12.51,12.51,0,0,1-2.69,6.74,30.29,30.29,0,0,1-5.53,5.78c-7,5.71-16.7,8.69-25.12,13.3-31.89,17.45-42.19,54.45-34.06,88.55.25,1,.51,2.05.79,3.07,13.8,50.16,59.4,96.35,105.15,115.7,31.26,13.22,69.08,32.06,102.81,28.16s70.51-28.67,89.6-56.73c7.79-11.45,20.1-38.51,29.66-48.52,24.55-25.77,55.29-13.32,78-40.76,13.09-15.85,15.56-37.73,16.35-58.27,1.17-30.63-1.17-64-21.29-87.13-25.94-29.84-70.47-31.65-109.16-39.86-7-1.5-14.49-3.55-19.14-9-4.8-5.66-5.5-13.56-7.36-20.73-5-19-19.05-34.24-33.52-47.57-13.72-12.64-28.89-24.71-47-29.36-11.86-3-24.32-2.68-36.54-1.78C266.88,68.12,236.29,73.83,209.67,88.39Z"/><path class="cls-11" d="M204.36,163.52c-25.05-52.16,34.5-68.46,73-67.17a134.86,134.86,0,0,1,20.71,2.23c25.59,4.82,46.59,16.88,67,35.89,11.15,10.38,22,24.91,18,39.36-2.67,9.73-11.06,16.23-18.44,23.12-15.28,14.28-12.76,30.2,6,35.6,11.16,3.21,23.82,5.14,34.82.36,9.15-4,16.05-11.88,25.23-16.58a45.11,45.11,0,0,1,18.4-4.7,59.4,59.4,0,0,1,22.14,3.26c14.08,4.92,25.56,12.34,34.17,21.65,16.78,18.18,22.51,43.62,14.11,70.82a79.94,79.94,0,0,1-10.41,21.74c-8.67,12.43-20.59,21.52-35,21.54-19.82,0-38.62-20-56.76-12-13.54,5.94-16.54,23.88-15,38.58,4,37-5.05,62.79-43.78,75.76-13.5,4.5-28.27,1.48-41.95-2.45-32.31-9.24-61.73-30-82.88-56.06C216.4,373,181.43,340,191.42,308.83c10.15-31.66,48-20.42,71-32a56.7,56.7,0,0,0,23.82-23.23c3.44-6.43,4.92-14.28,2.25-21.07-4.9-12.48-20.41-16-32.66-21.49-8.26-3.72-15.72-9-22.81-14.69C221.6,187.18,210.71,176.72,204.36,163.52Zm6.15-78.27c-31.15,17-76.31,67.94-52.11,104.76,11.25,17.19,30,27.14,48.62,36.92l3.18,1.66c5.69,3,12.24,7.6,11.72,14a12.58,12.58,0,0,1-3.23,6.83,31.74,31.74,0,0,1-6.21,5.66c-7.74,5.47-17.82,8.11-26.65,12.5-32.84,16.29-44.24,53.78-36.27,87.71.24,1,.5,2.06.78,3.08,13.71,50.26,59.39,96.58,105.22,116,31.26,13.22,69.08,32.05,102.81,28.16s70.51-28.67,89.6-56.73c7.8-11.45,20.11-38.5,29.66-48.51,24.56-25.77,55.29-13.33,78-40.76,13.09-15.85,15.56-37.72,16.35-58.26,1.18-30.63-1.17-64-21.29-87.12-25.94-29.84-70.47-31.65-109.16-39.86-7-1.49-14.49-3.54-19.14-9-4.8-5.65-5.5-13.56-7.36-20.73-5-19-19.05-34.23-33.51-47.56-13.72-12.64-28.9-24.71-47-29.35-11.86-3.05-24.32-2.69-36.54-1.79C267.71,65,237.12,70.7,210.51,85.25Z"/><path class="cls-12" d="M520.18,307.47c-8.34,22.13-24.55,40-45.25,40-19.81,0-38.61-20-56.75-12-13.54,5.94-16.55,23.87-15,38.57,4,37-5.05,62.79-43.78,75.75-13.5,4.5-28.27,1.48-41.95-2.45-32.31-9.23-61.73-30-82.87-56.06-17.36-21.4-52.34-54.41-42.35-85.58,10.15-31.66,48-20.42,71.05-32a56.68,56.68,0,0,0,23.81-23.23c3.44-6.42,4.92-14.28,2.26-21.07-4.91-12.47-20.41-16-32.67-21.48-8.26-3.73-15.72-9-22.81-14.69-11.46-9.15-22.35-19.61-28.7-32.81-25.38-52.85,36-68.95,74.66-67.2,36.23,1.62,62.43,15.47,88.3,40.08,11.19,10.64,22.23,25.52,17.4,40.18-3.25,9.85-12.64,16-20.56,22.77-16.67,14.21-13.1,31.08,7.95,35.14,12.5,2.41,26.05,3.31,37.34-2.56,9.39-4.86,16.05-13.85,25.2-19.16,12.23-7.08,27.78-6.74,40.95-1.6C518.58,224.48,535.9,265.82,520.18,307.47Zm31.32-99.55c-25.94-29.83-70.48-31.63-109.17-39.84-7-1.5-14.49-3.55-19.14-9-4.8-5.65-5.5-13.55-7.36-20.72-5-19-19.05-34.23-33.51-47.56-13.72-12.64-28.9-24.7-47-29.35-11.87-3-24.32-2.68-36.55-1.78-30.27,2.21-60.86,7.92-87.47,22.47-31.33,17.13-78.48,70-51.46,107.18,13.29,18.3,35.31,27.64,55.71,37.42,6,2.86,12.86,7.51,12.06,14.06a12.71,12.71,0,0,1-3.78,6.94c-9,9.55-23.08,11.84-35.07,17.23-34.81,15.63-47,55.46-37.71,90,13.63,50.37,59.38,96.81,105.3,116.22,31.26,13.22,69.09,32.05,102.82,28.16s70.5-28.67,89.6-56.72c7.79-11.45,20.1-38.5,29.66-48.51,24.55-25.77,55.29-13.33,78-40.75C569.53,337.45,572,315.57,572.79,295,574,264.42,571.62,231.05,551.5,207.92Z"/></svg>