<svg id="katman_1" data-name="katman 1" xmlns="http://www.w3.org/2000/svg" xmlns:xlink="http://www.w3.org/1999/xlink" viewBox="0 0 709.26 595.28"><defs><style>.cls-1{fill:#c82b88;}.cls-2{fill:#cc4090;}.cls-3{fill:#cf5197;}.cls-4{fill:#d3619f;}.cls-5{fill:#d76fa7;}.cls-6{fill:#da7cb0;}.cls-7{fill:#df89ba;}.cls-8{fill:url(#linear-gradient);}</style><linearGradient id="linear-gradient" x1="451.75" y1="298.09" x2="251.41" y2="75.74" gradientTransform="matrix(-0.2, -1.62, 1.55, -0.21, 77.5, 950.54)" gradientUnits="userSpaceOnUse"><stop offset="0.35" stop-color="#f0d9e7"/><stop offset="0.48" stop-color="#eed1e3"/><stop offset="0.67" stop-color="#e8bcd6"/><stop offset="0.9" stop-color="#df99c2"/><stop offset="1" stop-color="#db88b9"/></linearGradient></defs><title>urun_sogan</title><path class="cls-1" d="M369.84,493.19c-70.94,0-128.45-88.53-128.45-197.74S298.91,97.73,369.84,97.73s128.45,88.52,128.45,197.73S440.77,493.18,369.84,493.19Zm0-429.76c-83.25,0-150.73,103.87-150.74,232s67.49,232.05,150.74,232,150.74-103.88,150.74-232S453.1,63.4,369.84,63.43Z"/><path class="cls-2" d="M363.1,494.33c-70.94,0-128.45-88.53-128.45-197.73S292.17,98.87,363.1,98.87,491.55,187.4,491.55,296.6,434,494.33,363.1,494.33Zm0-429.76c-83.25,0-150.73,103.88-150.74,232s67.49,232,150.74,232,150.74-103.89,150.74-232S446.36,64.55,363.1,64.57Z"/><path class="cls-3" d="M356.35,495.47c-70.93,0-128.44-88.53-128.44-197.73S285.42,100,356.36,100s128.45,88.53,128.45,197.73S427.29,495.47,356.35,495.47Zm0-429.76c-83.25,0-150.73,103.88-150.74,232s67.49,232,150.74,232,150.74-103.89,150.73-232S439.62,65.7,356.36,65.71Z"/><path class="cls-4" d="M349.61,496.62c-70.93,0-128.45-88.53-128.44-197.73s57.51-197.73,128.45-197.74,128.44,88.53,128.45,197.74S420.55,496.62,349.61,496.62Zm0-429.76c-83.25,0-150.74,103.88-150.74,232s67.49,232,150.74,232S500.35,427,500.35,298.89,432.87,66.84,349.62,66.86Z"/><path class="cls-5" d="M342.87,497.76c-70.94,0-128.45-88.53-128.44-197.73S271.94,102.3,342.88,102.3,471.32,190.83,471.32,300,413.81,497.76,342.87,497.76Zm0-429.76c-83.25,0-150.74,103.88-150.75,232s67.5,232,150.75,232S493.61,428.17,493.61,300,426.13,68,342.88,68Z"/><path class="cls-6" d="M336.13,498.9c-70.94,0-128.45-88.53-128.44-197.72S265.2,103.44,336.13,103.44,464.58,192,464.58,301.17,407.07,498.91,336.13,498.9Zm0-429.76c-83.24,0-150.74,103.89-150.74,232s67.49,232,150.75,232,150.73-103.9,150.73-232S419.39,69.14,336.13,69.14Z"/><path class="cls-7" d="M329.39,500.05c-70.94,0-128.45-88.53-128.44-197.73s57.5-197.74,128.44-197.74,128.45,88.53,128.45,197.74S400.33,500.05,329.39,500.05Zm0-429.77c-83.24,0-150.74,103.89-150.74,232s67.49,232.05,150.75,232,150.73-103.89,150.73-232S412.65,70.28,329.39,70.28Z"/><path class="cls-8" d="M329.39,500.05c-70.94,0-128.45-88.53-128.44-197.73s57.5-197.74,128.44-197.74,128.45,88.53,128.45,197.74S400.33,500.05,329.39,500.05Zm0-429.77c-83.24,0-150.74,103.89-150.74,232s67.49,232.05,150.75,232,150.73-103.89,150.73-232S412.65,70.28,329.39,70.28Z"/></svg>