<svg id="katman_1" data-name="katman 1" xmlns="http://www.w3.org/2000/svg" viewBox="0 0 709.26 595.28"><defs><style>.cls-1{fill:#d33a27;}.cls-2{fill:#d63e26;}.cls-3{fill:#d94226;}.cls-4{fill:#dc4626;}.cls-5{fill:#df4a25;}.cls-6{fill:#e34e25;}.cls-7{fill:#e75225;}</style></defs><title>urun_biber1</title><path class="cls-1" d="M519.3,439.78c-12.67,20.15-32,35.1-50.82,49.63-30,23.08-58.82,26.21-95.36,15.65-10.57-3.05-20.89-7.34-29.69-13.92-4.69-3.53-8.89-7.64-13.4-11.39-13.33-11.14-33.61-23.38-51.51-24-18.64-.64-28.84,4.39-47.78-5.91-28.2-15.34-53.22-37.57-68.33-65.87s-19.48-63-8.21-93c5.84-15.62,18.63-36.47,34.68-43.46,15.64-6.81,35.35-2.79,50-14.26,12.46-9.72,3.78-34.06,5.51-49.76,5-45.26,33.56-73.24,83.64-73.7,21.5-.2,41.14,8.94,57.43,23.1,23.93,20.82,43.88,35.16,48.75,64.15,3.44,20.6,0,61.52,15,76,27.77,26.69,62.3,36.13,78.16,75.42C539.27,377.89,536.17,412.92,519.3,439.78Zm31.09-86.6c-17.81-44.15-56.64-54.76-87.81-84.75-16.93-16.26-13-62.22-16.87-85.36-5.45-32.57-27.86-48.69-54.78-72.07-18.3-15.93-40.34-26.18-64.49-26-56.27.51-88.36,31.94-94,82.79-1.95,17.64,7.79,45-6.18,55.92-16.51,12.88-38.61,8.35-56.21,16-18,7.84-32.37,31.27-38.95,48.83-12.63,33.73-7.73,72.67,9.23,104.48s45.09,56.75,76.76,74c21.29,11.57,32.73,5.9,53.65,6.64,20.16.69,42.93,14.46,57.91,27,5.06,4.21,9.78,8.83,15,12.79,9.89,7.37,21.49,12.21,33.37,15.65,41,11.88,73.38,8.31,107.11-17.6,21.19-16.32,42.85-33.12,57.06-55.75C560.22,425.56,563.72,386.22,550.39,353.18Z"/><path class="cls-2" d="M521.84,434.2c-12.52,19.85-31.62,34.58-50.26,48.88-29.7,22.73-58.19,25.83-94.33,15.42-10.45-3-20.67-7.23-29.37-13.71-4.64-3.47-8.79-7.52-13.25-11.21-13.19-11-33.25-23-51-23.63-18.44-.64-28.52,4.31-47.26-5.83-27.89-15.11-52.65-37-67.59-64.88s-19.27-62-8.12-91.61c5.78-15.38,18.42-35.93,34.3-42.81,15.48-6.7,35-2.74,49.49-14,12.31-9.57,3.73-33.54,5.44-49,4.95-44.58,33.2-72.15,82.74-72.59,21.27-.2,40.69,8.79,56.8,22.74,23.68,20.52,43.41,34.64,48.22,63.19,3.41,20.29,0,60.6,14.85,74.86,27.47,26.29,61.63,35.58,77.32,74.29A100.57,100.57,0,0,1,521.84,434.2Zm33-85.5c-17.81-44.15-56.63-54.76-87.81-84.74-16.93-16.26-13-62.23-16.87-85.37-5.45-32.56-27.86-48.68-54.77-72.07-18.3-15.92-40.35-26.17-64.5-26-56.26.52-88.35,32-94,82.79-1.95,17.65,7.8,45-6.18,55.92-16.5,12.88-38.61,8.36-56.21,16-18,7.85-32.36,31.28-38.94,48.83-12.64,33.74-7.73,72.68,9.23,104.48s45.09,56.76,76.76,74c21.28,11.57,32.73,5.91,53.65,6.65,20.15.69,42.92,14.45,57.91,27,5.05,4.2,9.77,8.83,15,12.79,9.9,7.37,21.5,12.21,33.37,15.65,41,11.87,73.38,8.31,107.11-17.6,21.2-16.32,42.85-33.13,57.07-55.75C564.7,421.09,568.2,381.74,554.86,348.7Z"/><path class="cls-3" d="M524.39,428.62c-12.39,19.55-31.28,34.05-49.72,48.14-29.37,22.38-57.54,25.44-93.29,15.18-10.33-2.95-20.44-7.12-29.05-13.49-4.59-3.42-8.7-7.41-13.11-11.05-13-10.81-32.88-22.68-50.4-23.27-18.23-.63-28.21,4.25-46.74-5.73C214.5,423.52,190,402,175.23,374.5s-19.06-61.07-8-90.21c5.71-15.15,18.21-35.38,33.92-42.15,15.31-6.61,34.58-2.71,48.95-13.84,12.18-9.42,3.69-33,5.38-48.26,4.9-43.9,32.84-71,81.84-71.48,21-.19,40.24,8.66,56.18,22.4,23.42,20.2,42.93,34.11,47.69,62.22,3.37,20,0,59.67,14.69,73.71,27.16,25.89,60.95,35.05,76.47,73.16A98.69,98.69,0,0,1,524.39,428.62Zm35-84.39c-17.81-44.15-56.63-54.76-87.82-84.75-16.92-16.26-13-62.22-16.87-85.36-5.45-32.57-27.85-48.69-54.77-72.08-18.3-15.92-40.35-26.17-64.5-25.95-56.26.52-88.35,31.94-94,82.79-2,17.64,7.79,45-6.18,55.91-16.51,12.88-38.61,8.37-56.21,16-18,7.84-32.37,31.27-38.94,48.82-12.65,33.74-7.74,72.69,9.22,104.49s45.1,56.76,76.76,74c21.28,11.57,32.73,5.91,53.65,6.64,20.15.7,42.92,14.46,57.91,27,5.05,4.21,9.77,8.84,15.05,12.79,9.89,7.38,21.49,12.21,33.36,15.65,41,11.87,73.39,8.31,107.11-17.6,21.21-16.32,42.86-33.12,57.07-55.75C569.17,416.61,572.68,377.27,559.34,344.23Z"/><path class="cls-4" d="M526.93,423c-12.24,19.25-30.92,33.53-49.16,47.4-29,22-56.91,25-92.26,14.95-10.21-2.91-20.22-7-28.73-13.29-4.53-3.37-8.6-7.3-13-10.87-12.89-10.65-32.52-22.34-49.84-22.92-18-.62-27.89,4.19-46.22-5.64-27.27-14.65-51.49-35.88-66.11-62.91S162.79,309.63,173.7,281c5.64-14.91,18-34.83,33.54-41.5,15.14-6.5,34.2-2.67,48.41-13.62,12-9.28,3.65-32.53,5.33-47.51,4.84-43.23,32.47-69.94,80.93-70.38,20.79-.19,39.79,8.53,55.55,22.05,23.17,19.89,42.46,33.59,47.17,61.27,3.33,19.67,0,58.74,14.52,72.56,26.86,25.49,60.29,34.5,75.63,72A96.77,96.77,0,0,1,526.93,423Zm36.89-83.29C546,295.6,507.18,285,476,255c-16.92-16.26-13-62.23-16.87-85.37-5.45-32.56-27.85-48.68-54.76-72.07C386.06,81.65,364,71.4,339.85,71.62c-56.25.51-88.34,31.94-94,82.79-1.94,17.64,7.8,45-6.18,55.91-16.5,12.88-38.61,8.36-56.2,16-18,7.85-32.37,31.28-39,48.83-12.65,33.74-7.73,72.69,9.23,104.49s45.09,56.76,76.76,74c21.27,11.57,32.73,5.92,53.65,6.65,20.14.7,42.91,14.45,57.9,27,5.05,4.21,9.77,8.84,15.05,12.78,9.9,7.39,21.5,12.21,33.36,15.65,41,11.88,73.39,8.32,107.12-17.6,21.2-16.32,42.85-33.11,57.07-55.75C573.65,412.14,577.15,372.8,563.82,339.75Z"/><path class="cls-5" d="M529.47,417.47c-12.1,18.94-30.57,33-48.61,46.65-28.72,21.67-56.26,24.65-91.22,14.71-10.1-2.86-20-6.91-28.41-13.08-4.48-3.31-8.51-7.17-12.83-10.7-12.76-10.45-32.15-22-49.28-22.55-17.82-.62-27.58,4.12-45.7-5.56-27-14.42-50.91-35.31-65.37-61.92s-18.63-59.18-7.85-87.41c5.58-14.68,17.8-34.29,33.16-40.85,15-6.4,33.82-2.62,47.87-13.4,11.91-9.14,3.61-32,5.27-46.77,4.79-42.54,32.11-68.84,80-69.26,20.56-.19,39.35,8.38,54.93,21.7,22.91,19.57,42,33.06,46.63,60.3,3.3,19.36,0,57.82,14.36,71.42,26.55,25.08,59.62,33.95,74.79,70.89A94.89,94.89,0,0,1,529.47,417.47Zm38.82-82.19c-17.81-44.15-56.63-54.76-87.83-84.75-16.91-16.26-13-62.23-16.87-85.37-5.45-32.55-27.84-48.67-54.76-72.07-18.3-15.91-40.36-26.17-64.51-25.95-56.24.52-88.34,31.94-94,82.79-1.95,17.65,7.8,45-6.18,55.91-16.5,12.88-38.61,8.37-56.21,16-18,7.85-32.36,31.28-38.94,48.82-12.66,33.75-7.74,72.69,9.22,104.49s45.1,56.77,76.76,74c21.27,11.56,32.74,5.92,53.65,6.65,20.14.7,42.92,14.44,57.9,27,5.05,4.22,9.77,8.85,15.06,12.79,9.89,7.39,21.5,12.21,33.35,15.65,41,11.87,73.4,8.31,107.12-17.6,21.21-16.32,42.86-33.11,57.08-55.75C578.13,407.67,581.63,368.32,568.29,335.28Z"/><path class="cls-6" d="M532,411.89c-12,18.63-30.22,32.47-48.05,45.9-28.4,21.33-55.63,24.26-90.19,14.48-10-2.81-19.77-6.8-28.09-12.87-4.43-3.25-8.41-7-12.68-10.53-12.63-10.27-31.79-21.63-48.73-22.19-17.62-.61-27.26,4.06-45.19-5.47-26.64-14.18-50.33-34.75-64.62-60.93s-18.42-58.23-7.76-86c5.51-14.44,17.59-33.74,32.78-40.19,14.81-6.3,33.44-2.59,47.33-13.19,11.77-9,3.58-31.51,5.21-46,4.74-41.86,31.75-67.73,79.12-68.15,20.33-.19,38.91,8.25,54.31,21.36,22.66,19.25,41.52,32.52,46.11,59.33,3.26,19,0,56.89,14.2,70.28,26.24,24.68,58.94,33.41,74,69.76A93,93,0,0,1,532,411.89Zm40.76-81.09C555,286.65,516.13,276,484.93,246.06c-16.91-16.26-13-62.23-16.87-85.37-5.45-32.56-27.83-48.68-54.75-72.08C395,72.7,372.94,62.45,348.79,62.67c-56.24.52-88.33,31.94-94,82.79-2,17.64,7.79,45-6.19,55.9-16.5,12.88-38.6,8.38-56.2,16-18,7.86-32.37,31.28-38.95,48.82-12.66,33.75-7.73,72.7,9.23,104.5s45.09,56.77,76.76,74c21.26,11.57,32.73,5.93,53.65,6.66,20.13.7,42.91,14.44,57.89,27,5.05,4.23,9.77,8.86,15.06,12.79,9.9,7.39,21.5,12.21,33.35,15.65,41.05,11.88,73.41,8.31,107.12-17.6,21.22-16.32,42.86-33.1,57.08-55.75C582.6,403.2,586.11,363.85,572.77,330.8Z"/><path class="cls-7" d="M534.56,406.31c-11.82,18.33-29.87,31.95-47.51,45.16-28.07,21-55,23.87-89.15,14.25C388,463,378.35,459,370.13,453.05c-4.38-3.2-8.31-6.94-12.54-10.35-12.45-10.14-31.42-21.28-48.17-21.83-17.42-.61-26.95,4-44.67-5.39-26.34-14-49.75-34.18-63.88-59.94s-18.21-57.29-7.67-84.61c5.45-14.21,17.39-33.19,32.4-39.54,14.64-6.2,33.06-2.55,46.8-13,11.63-8.85,3.53-31,5.14-45.28,4.69-41.18,31.39-66.64,78.22-67,20.1-.18,38.46,8.12,53.68,21,22.41,18.94,41.05,32,45.58,58.37,3.23,18.74,0,56,14,69.13,25.94,24.29,58.28,32.87,73.11,68.64A91.12,91.12,0,0,1,534.56,406.31Zm42.68-80c-17.81-44.15-56.63-54.76-87.84-84.74-16.9-16.26-13-62.24-16.87-85.38-5.45-32.55-27.83-48.67-54.74-72.07C399.48,68.23,377.41,58,353.26,58.2c-56.23.51-88.33,31.94-94,82.79-1.95,17.64,7.8,45-6.18,55.9-16.5,12.88-38.61,8.37-56.21,16-18,7.86-32.36,31.29-38.94,48.83-12.67,33.75-7.73,72.7,9.22,104.5s45.1,56.77,76.77,74c21.25,11.57,32.73,5.94,53.65,6.67,20.12.7,42.9,14.43,57.88,26.95,5.05,4.23,9.77,8.86,15.07,12.78,9.9,7.4,21.5,12.21,33.34,15.66,41.05,11.87,73.41,8.31,107.12-17.6,21.22-16.32,42.87-33.1,57.09-55.76C587.08,398.73,590.58,359.38,577.24,326.33Z"/></svg>